<svg version="1.1" id="Layer_1" xmlns="http://www.w3.org/2000/svg" xmlns:xlink="http://www.w3.org/1999/xlink" x="0px" y="0px"
	 viewBox="0 0 29.2 27.8" style="enable-background:new 0 0 29.2 27.8;" xml:space="preserve" width="48" height="48">
<style type="text/css">
	.st0{fill:#FFFFFF;}
</style>
<g>
	<path class="st0" d="M14.6,0.7c3.8,0,7.5,0,11.3,0c1.2,0,2.2,0.8,2.5,1.9c0.1,0.3,0.1,0.6,0.1,0.9c0,1,0,1.9,0,2.9
		c0,0.5,0,1-0.3,1.4C27.8,8.6,27,9.1,26,9.1c-0.6,0-1.2,0-1.8,0c-0.1,0-0.2,0-0.2,0.2c0,5.2,0,10.5,0,15.7c0,1-0.7,1.9-1.6,2.1
		c-0.2,0-0.4,0.1-0.6,0.1c-4.9,0-9.8,0-14.6,0c-1.2,0-2.1-0.9-2.2-2.1c0-0.1,0-0.1,0-0.2c0-5.2,0-10.4,0-15.6c0-0.1,0-0.2-0.2-0.2
		c-0.6,0-1.1,0-1.7,0c-1.2,0-2.3-0.8-2.5-2C0.7,6.9,0.7,6.6,0.7,6.3c0-1,0-1.9,0-2.9c0-0.5,0.1-1.1,0.4-1.6C1.5,1.2,2.1,0.8,3,0.7
		c0.2,0,0.4,0,0.6,0C7.2,0.7,10.9,0.7,14.6,0.7z M6,15.4c0,3.2,0,6.5,0,9.7c0,0.6,0.4,1,0.9,1.2c0.2,0.1,0.5,0,0.7,0
		c4.8,0,9.5,0,14.3,0c0.1,0,0.2,0,0.3,0c0.6-0.1,1-0.6,1-1.2c0-5.5,0-11,0-16.6c0-0.9,0-1.9,0-2.8c0-0.1,0-0.2-0.2-0.2
		c-5.6,0-11.2,0-16.8,0C6.1,5.5,6,5.6,6,5.7C6,9,6,12.2,6,15.4z M14.6,1.5c-3.5,0-7.1,0-10.6,0c-0.3,0-0.6,0-0.9,0
		c-0.9,0-1.6,0.8-1.6,1.7c0,1.2,0,2.3,0,3.5c0,0.8,0.7,1.6,1.5,1.6c0.6,0,1.3,0,1.9,0c0.1,0,0.1,0,0.1-0.1c0-0.5,0-1,0-1.5
		c0-0.1,0-0.2-0.2-0.2c-0.6,0-1-0.5-1-1.1c0-0.3,0-0.7,0-1c0-0.3,0.2-0.6,0.4-0.9c0.3-0.2,0.6-0.3,1-0.3c6.1,0,12.3,0,18.4,0
		c0.2,0,0.4,0,0.5,0c0.6,0,1.1,0.5,1.1,1.1c0,0.3,0,0.6,0,0.8c0,0.7-0.5,1.2-1.1,1.2c-0.1,0-0.1,0-0.1,0.1c0,0.5,0,1,0,1.5
		c0,0.1,0,0.1,0.1,0.1c0.7,0,1.3,0,2,0c0.8-0.1,1.5-0.7,1.5-1.6c0-1.2,0-2.4,0-3.5c0-0.4-0.2-0.8-0.4-1.1c-0.4-0.4-0.8-0.5-1.4-0.5
		C22.1,1.5,18.4,1.5,14.6,1.5z M14.6,4.1C14.6,4.1,14.6,4.1,14.6,4.1c-0.2,0-0.4,0-0.6,0c-2.9,0-5.8,0-8.7,0c-0.1,0-0.2,0-0.3,0
		c-0.2,0-0.3,0.1-0.3,0.3c0,0.3,0,0.6,0,0.8c0,0.2,0.1,0.3,0.2,0.3c0.1,0,0.1,0,0.1-0.1c0-0.1,0-0.3,0-0.4c0-0.2,0.1-0.4,0.4-0.4
		c0.1,0,0.2,0,0.2,0c5.9,0,11.8,0,17.7,0c0.1,0,0.1,0,0.2,0c0.3,0.1,0.4,0.2,0.4,0.5c0,0.1,0,0.2,0,0.3c0,0.1,0,0.2,0,0.2
		c0.1,0,0.2,0,0.2-0.1c0.1-0.1,0.1-0.2,0.1-0.3c0-0.3,0-0.5,0-0.8c0-0.2-0.1-0.3-0.3-0.3c-0.1,0-0.2,0-0.2,0
		C20.8,4.1,17.7,4.1,14.6,4.1z" fill="#ffffff"/>
	<path class="st0" d="M14.6,7.2c1.8,0,3.4,0.5,4.9,1.6c1,0.8,1.8,1.8,2.1,3.1c0.3,1.3,0.1,2.6-0.5,3.7c-0.7,1.2-1.7,2.1-2.9,2.6
		c-0.8,0.4-1.6,0.6-2.5,0.7c-1.5,0.2-3,0-4.3-0.6c-1.6-0.7-2.9-1.8-3.5-3.5c-0.3-0.9-0.4-1.7-0.3-2.6c0.3-1.7,1.3-2.9,2.7-3.8
		c0.9-0.6,1.9-1,2.9-1.2C13.6,7.2,14.1,7.2,14.6,7.2z M14.8,18.2c0.3,0,0.9,0,1.4-0.2c1.6-0.3,3-1.1,3.9-2.5c0.9-1.2,1-2.6,0.5-4
		c-0.4-1.1-1.2-1.9-2.2-2.5c-1-0.6-2-0.9-3.2-1c-1.3-0.1-2.6,0.1-3.8,0.7c-1,0.5-1.9,1.2-2.5,2.2c-0.8,1.3-0.8,2.6-0.3,4
		c0.4,1.1,1.2,1.8,2.2,2.4C12,17.9,13.3,18.2,14.8,18.2z" fill="#ffffff"/>
	<path class="st0" d="M16,13.6c-0.4,0-0.8,0-1.2,0c-0.1,0-0.1,0-0.1,0.1c0,0.3,0,0.6,0,0.9c-0.2,0.8-0.6,1.4-1.4,1.7
		c-1.2,0.5-2.5-0.4-2.8-1.6c-0.1-0.3-0.1-0.7-0.1-1c0-0.1,0-0.1-0.1-0.1c-0.2,0-0.3,0-0.5,0c-0.3,0-0.4-0.2-0.4-0.4
		c0-0.2,0.2-0.4,0.4-0.4c0.1,0,0.3,0,0.4,0c0.1,0,0.1,0,0.1-0.1c0-0.7,0-1.4,0-2.1c0-0.1,0-0.2,0-0.4c0-0.2,0.2-0.4,0.4-0.4
		c0.2,0,0.4,0.2,0.4,0.4c0,0.4,0,0.9,0,1.3c0,0.4,0,0.8,0,1.1c0,0.1,0,0.1,0.1,0.1c0.8,0,1.6,0,2.4,0c0.1,0,0.1,0,0.1-0.1
		c0-0.3,0-0.6,0-0.9c0.1-0.8,0.6-1.4,1.4-1.8c1.4-0.6,2.9,0.6,2.9,1.9c0,0.2,0,0.5,0,0.7c0,0.1,0,0.1,0.1,0.1c0.2,0,0.4,0,0.6,0
		c0.3,0,0.4,0.2,0.5,0.4c0,0.2-0.1,0.4-0.4,0.5c-0.2,0-0.5,0-0.7,0c-0.1,0-0.1,0-0.1,0.1c0,0.7,0,1.5,0,2.2c0,0.2,0,0.4-0.2,0.5
		c-0.3,0.1-0.6,0-0.6-0.3c0-0.2,0-0.3,0-0.5c0-0.6,0-1.3,0-1.9c0-0.1,0-0.1-0.1-0.1C16.8,13.6,16.4,13.6,16,13.6
		C16,13.6,16,13.6,16,13.6z M16,12.7c0.4,0,0.8,0,1.2,0c0,0,0.1,0,0.1-0.1c0-0.4,0.1-0.7-0.1-1.1c-0.2-0.6-0.7-1-1.3-0.9
		c-0.6,0.1-1.1,0.5-1.2,1.2c0,0.3,0,0.5,0,0.8c0,0.1,0,0.1,0.1,0.1C15.2,12.7,15.6,12.7,16,12.7z M13.9,14.1c0-0.1,0-0.3,0-0.4
		c0-0.1,0-0.1-0.1-0.1c-0.8,0-1.6,0-2.4,0c-0.1,0-0.1,0-0.1,0.1c0,0.3,0,0.5,0,0.8c0.1,0.5,0.4,0.9,0.8,1.1c0.5,0.2,0.9,0.1,1.3-0.3
		C13.8,14.9,13.9,14.5,13.9,14.1z" fill="#ffffff"/>
</g>
</svg>
