<svg version="1.1" id="Layer_1" xmlns="http://www.w3.org/2000/svg" xmlns:xlink="http://www.w3.org/1999/xlink" x="0px" y="0px" viewBox="0 0 31 36" style="enable-background:new 0 0 31 36;" xml:space="preserve" width="48" height="48">
<style type="text/css">
	.st0{fill:#FFFFFF;}
</style>
<g>
	<path d="M0.1,18C0.1,9.5,7,2.6,15.5,2.6c8.6,0,15.5,6.9,15.5,15.5c0,8.5-7,15.4-15.6,15.4C6.9,33.4,0.1,26.5,0.1,18z M15.5,3.7
		C7.6,3.7,1.2,10.1,1.2,18c0,7.9,6.4,14.3,14.3,14.3c7.9,0,14.3-6.4,14.3-14.3C29.8,10.1,23.4,3.7,15.5,3.7z" fill="#ffffff"/>
	<path d="M15.5,21.6c-0.8,0-1.5,0-2.3,0c-1,0-1.7-0.8-1.7-1.8c0-1,0-2,0-3.1c0-0.2-0.1-0.2-0.2-0.2c-0.5,0-1.1,0-1.6,0
		c-0.7,0-1.3-0.4-1.4-1.1c-0.1-0.5,0.1-0.9,0.4-1.3c0.7-0.7,1.5-1.5,2.2-2.2c1.2-1.1,2.3-2.3,3.5-3.4c0.7-0.7,1.6-0.7,2.3,0
		c1.9,1.9,3.7,3.7,5.6,5.6c0.7,0.7,0.6,1.7,0,2.2c-0.3,0.2-0.6,0.3-0.9,0.3c-0.6,0-1.1,0-1.7,0c-0.1,0-0.2,0-0.2,0.2
		c0,1,0,2.1,0,3.1c0,0.9-0.5,1.5-1.3,1.7c-0.2,0-0.4,0-0.6,0C16.9,21.6,16.2,21.6,15.5,21.6C15.5,21.6,15.5,21.6,15.5,21.6z
		 M15.5,20.4C15.5,20.4,15.5,20.4,15.5,20.4c0.8,0,1.5,0,2.3,0c0.2,0,0.3,0,0.4-0.2c0.1-0.1,0.1-0.3,0.1-0.5c0-1.2,0-2.5,0-3.7
		c0-0.5,0.2-0.7,0.7-0.7c0.7,0,1.5,0,2.2,0c0.1,0,0.3,0,0.4-0.1c0.1-0.2-0.1-0.2-0.2-0.3c0,0,0,0,0,0c-1.9-1.9-3.7-3.7-5.6-5.6
		c-0.3-0.3-0.4-0.3-0.7,0c-1.9,1.8-3.7,3.7-5.6,5.5c-0.1,0.1-0.3,0.2-0.2,0.4c0.1,0.2,0.3,0.2,0.4,0.2c0.7,0,1.4,0,2.1,0
		c0.5,0,0.7,0.2,0.7,0.7c0,1.2,0,2.4,0,3.7c0,0.5,0.2,0.7,0.7,0.7C14.1,20.4,14.8,20.4,15.5,20.4z" fill="#ffffff"/>
	<path d="M15.5,28.1c-0.8,0-1.6,0-2.5,0c-0.9,0-1.5-0.6-1.5-1.5c0-0.4,0-0.9,0-1.3c0-0.9,0.6-1.5,1.5-1.5c1.7,0,3.3,0,5,0
		c0.9,0,1.5,0.7,1.5,1.6c0,0.4,0,0.9,0,1.3c0,0.8-0.5,1.3-1.2,1.5c-0.1,0-0.2,0-0.2,0c-0.4,0-0.9,0-1.3,0
		C16.4,28.1,15.9,28.1,15.5,28.1C15.5,28.1,15.5,28.1,15.5,28.1z M15.5,26.9c0.8,0,1.7,0,2.5,0c0.3,0,0.4-0.1,0.4-0.4
		c0-0.4,0-0.9,0-1.3c0-0.3-0.1-0.4-0.4-0.4c-0.5,0-0.9,0-1.4,0c-1.2,0-2.4,0-3.5,0c-0.3,0-0.4,0.1-0.4,0.4c0,0.4,0,0.8,0,1.2
		c0,0.3,0.1,0.4,0.4,0.4C13.9,26.9,14.7,26.9,15.5,26.9z" fill="#ffffff"/>
</g>
</svg>
