<svg version="1.1" id="Layer_1" xmlns="http://www.w3.org/2000/svg" xmlns:xlink="http://www.w3.org/1999/xlink" x="0px" y="0px" viewBox="0 0 31 36" style="enable-background:new 0 0 31 36;" xml:space="preserve" width="48" height="48">
<style type="text/css">
	.st0{fill:#FFFFFF;}
</style>
<g>
	<path d="M11.5,20.6c-0.6,0-1.2,0-1.7,0c-0.3,0-0.7,0.1-0.8-0.3c-0.2-0.3,0.1-0.6,0.3-0.8c2.1-2.9,4.2-5.9,6.4-8.8
		c0.8-1.1,1.5-2.1,2.3-3.1c0.2-0.3,0.4-0.9,0.9-0.6C19.3,7.1,19,7.6,18.9,8c-0.6,2.3-1.1,4.6-1.7,6.9c-0.1,0.4,0,0.6,0.4,0.6
		c1.3,0,2.5,0,3.8,0c0.3,0,0.5,0,0.7,0.3c0.1,0.3,0,0.5-0.2,0.7c-3,4.1-5.9,8.2-8.9,12.4c-0.2,0.3-0.4,0.5-0.8,0.3
		c-0.4-0.2-0.3-0.5-0.2-0.8c0.6-2.4,1.2-4.8,1.8-7.2c0.1-0.5,0-0.6-0.5-0.6C12.7,20.6,12.1,20.6,11.5,20.6z M10.4,19.5
		c1.4,0,2.6,0,3.8,0c0.9,0,1,0.2,0.8,1c-0.4,1.6-0.8,3.3-1.2,4.9c0,0.1-0.1,0.3,0,0.5c2.3-3.2,4.5-6.3,6.9-9.5c-1.4,0-2.6,0-3.8,0
		c-0.9,0-1-0.2-0.8-1c0.4-1.6,0.8-3.3,1.2-4.9c0-0.1,0.1-0.3,0-0.5C14.9,13.2,12.7,16.3,10.4,19.5z" fill="#ffffff"/>
	<path d="M27.2,8c0-0.7,0-1.5,0-2.2c0-0.2,0-0.4,0-0.5c0-0.3,0.2-0.5,0.5-0.5c0.3,0,0.5,0.2,0.5,0.5c0,1.3,0,2.7,0,4
		c0,0.4-0.3,0.6-0.6,0.6c-1.3,0-2.6,0-3.8,0c-0.3,0-0.6-0.1-0.6-0.5c0-0.4,0.3-0.5,0.6-0.5c0.8,0,1.6,0,2.4,0c0-0.3-0.1-0.4-0.3-0.5
		c-4.1-4.2-9.1-5.7-14.7-3.9C5.7,6.1,2.4,10.2,1.4,16c-0.1,0.6-0.1,1.2-0.1,1.8c0,0.4-0.1,0.7-0.5,0.7c-0.5,0-0.5-0.4-0.5-0.8
		c0-6.5,4.6-12.6,11-14.4c6-1.6,11.2-0.1,15.6,4.4C26.9,7.8,27,8,27.2,8z" fill="#ffffff"/>
	<path d="M3.8,28c0,0.8,0,1.7,0,2.5c0,0.4-0.1,0.7-0.5,0.7c-0.4,0-0.5-0.4-0.5-0.7c0-1.2,0-2.4,0-3.6c0-0.5,0.2-0.8,0.7-0.8
		c1.2,0,2.4,0,3.6,0c0.4,0,0.7,0.1,0.7,0.5c0,0.4-0.4,0.5-0.7,0.5c-0.8,0-1.6,0-2.5,0c0.7,0.9,1.4,1.6,2.2,2.1
		c4.6,3.3,9.6,4,14.8,1.5c5.1-2.4,7.8-6.7,8.2-12.4c0-0.4-0.1-1,0.6-1c0.7,0,0.5,0.6,0.5,1c-0.1,7.3-6.1,13.8-13.4,14.6
		c-5.3,0.6-9.7-1.1-13.3-5C4,28.2,4,28,3.9,27.9C3.9,28,3.8,28,3.8,28z" fill="#ffffff"/>
</g>
</svg>
