<svg id="Layer_1" data-name="Layer 1" xmlns="http://www.w3.org/2000/svg" viewBox="0 0 32 36" width="40" height="40">
  <defs>
    <style>
      .cls-1 {
        fill: #fff;
      }
    </style>
  </defs>
  <path class="cls-1" d="m27,15.2c.07-.33.14-.67.21-1,.5-2.4,1-4.8,1.5-7.2.18-.88.37-1.76.56-2.65.03-.13,0-.16-.14-.14-1.31.23-2.62.45-3.94.68-1.76.3-3.51.6-5.27.9-.66.11-1.32.22-1.99.34.02.09.1.12.15.18.5.51,1,1.02,1.49,1.54.49.5.48,1.09-.03,1.59-2.72,2.71-5.44,5.42-8.15,8.13-2.1,2.09-4.19,4.18-6.29,6.28-.15.15-.31.3-.55.28-.38-.03-.6-.45-.38-.77.04-.05.08-.1.12-.15.87-.87,1.73-1.73,2.6-2.6.12-.12,0-.12-.06-.13-.32-.09-.63-.16-.94-.28-2.72-1.05-4.48-2.98-5.15-5.81C-.12,10.74,1.67,6.98,5.02,5.3c1.53-.77,3.15-1.04,4.85-.79,3.27.47,5.89,2.82,6.71,6,.03.1.05.21.08.31.08,0,.11-.06.14-.1.67-.66,1.33-1.33,2-1.99.09-.08.07-.13,0-.21-.55-.54-1.09-1.08-1.63-1.63-.43-.44-.44-1.06-.03-1.49.19-.2.45-.27.71-.31,1.52-.26,3.04-.52,4.56-.78,1.35-.23,2.7-.47,4.05-.7,1.13-.19,2.25-.38,3.38-.58.41-.07.71.23.62.64-.31,1.48-.62,2.96-.93,4.44-.5,2.41-1.01,4.81-1.51,7.22-.09.43-.31.74-.74.87-.42.13-.78,0-1.08-.31-.52-.53-1.05-1.05-1.57-1.57-.1-.1-.15-.12-.26,0-2.05,2.06-4.11,4.11-6.17,6.17-.16.16-.33.26-.56.2-.4-.1-.52-.57-.22-.87.59-.6,1.19-1.19,1.78-1.78,1.48-1.48,2.97-2.96,4.45-4.44.11-.11.23-.23.37-.31.42-.22.87-.16,1.23.19.55.54,1.1,1.09,1.65,1.64.03.03.05.07.11.08ZM1.57,12.54c0,1.41.36,2.71,1.17,3.92,1.17,1.75,2.82,2.77,4.89,3.12.19.03.32-.02.45-.15,1.22-1.23,2.46-2.45,3.68-3.68,1.29-1.29,2.58-2.57,3.87-3.86.07-.07.13-.13.12-.25-.16-1.16-.57-2.23-1.24-3.19-1.64-2.32-4.53-3.44-7.33-2.83-3.26.7-5.61,3.61-5.61,6.93Z"/>
  <path class="cls-1" d="m.54,32.37c0-.19.11-.32.23-.44.6-.6,1.2-1.2,1.81-1.8,1.73-1.73,3.46-3.45,5.2-5.18.24-.24.53-.29.75-.12.25.2.29.52.06.76-.31.33-.63.64-.95.96-2.01,2.01-4.03,4.02-6.04,6.02-.07.07-.14.15-.23.21-.17.12-.35.14-.53.04-.18-.09-.28-.25-.29-.45Z"/>
  <path class="cls-1" d="m9.98,27.4c0-.15.09-.27.21-.39,1.13-1.13,2.26-2.25,3.39-3.38.81-.8,1.61-1.61,2.42-2.41.12-.12.25-.22.43-.22.21,0,.37.1.47.29.09.18.08.37-.06.53-.23.25-.48.49-.72.74-1.72,1.72-3.44,3.43-5.16,5.15-.2.2-.4.32-.69.2-.19-.08-.31-.26-.3-.5Z"/>
  <path class="cls-1" d="m4.96,32.45c0-.18.09-.3.21-.42.95-.94,1.89-1.89,2.84-2.83.16-.16.31-.31.47-.47.25-.24.53-.25.76-.02.21.21.21.51-.03.74-.9.9-1.8,1.79-2.7,2.68-.23.23-.45.46-.68.68-.25.24-.6.2-.78-.08-.06-.09-.09-.18-.08-.29Z"/>
  <path class="cls-1" d="m9.85,24.08c-.19-.02-.36-.11-.45-.31-.09-.21-.05-.4.1-.56.38-.39.77-.77,1.15-1.15.59-.59,1.18-1.18,1.77-1.77.05-.05.09-.09.14-.13.22-.2.5-.19.71,0,.2.19.21.48.03.7-.09.11-.2.21-.3.31-.88.89-1.77,1.77-2.65,2.66-.13.13-.27.25-.49.25Z"/>
  <path class="cls-1" d="m9.23,9.7c-.34,0-.68-.01-1.02,0-.42.02-.78.32-.9.72-.11.39.03.82.38,1.07.16.12.35.18.56.18.43,0,.87-.03,1.3.06.81.16,1.44.81,1.59,1.65.14.77-.24,1.62-.92,2.04-.33.2-.68.31-1.07.32-.12,0-.16.03-.15.15.01.2,0,.4,0,.6-.01.32-.23.55-.52.54-.29,0-.51-.23-.52-.55,0-.19,0-.39,0-.58,0-.12-.02-.17-.15-.16-.21,0-.43,0-.64,0-.26-.01-.45-.18-.5-.42-.04-.22.07-.44.27-.55.1-.06.22-.06.33-.06.61,0,1.23,0,1.84,0,.64,0,1.09-.56.99-1.16-.08-.46-.49-.81-.98-.83-.39-.01-.77.03-1.16-.03-.95-.14-1.67-.92-1.73-1.88-.06-.94.58-1.82,1.5-2.06.23-.06.23-.06.23-.3,0-.19,0-.39,0-.58.01-.27.24-.49.5-.49.24,0,.49.2.51.46.02.22.02.45,0,.68,0,.12.03.16.15.16.33,0,.67,0,1,0,.36,0,.59.23.58.55,0,.24-.2.46-.44.47-.35.01-.71,0-1.06,0,0,0,0,.01,0,.02Z"/>
</svg>