<svg id="Layer_1" data-name="Layer 1" xmlns="http://www.w3.org/2000/svg" viewBox="0 0 32 36" width="40" height="40">
  <defs>
    <style>
      .cls-1 {
        fill: #fff;
      }
    </style>
  </defs>
  <path class="cls-1" d="m14.69,3.28c8.49,0,14.8,5.76,15.47,13.54.67,7.74-4.75,14.25-11.86,15.61C8.83,34.26.22,26.69.82,17.06c.15-2.43.87-4.69,2.16-6.77.08-.13.16-.27.27-.37.15-.15.35-.16.53-.04.16.1.21.27.16.45-.02.07-.04.15-.09.21-.76.84-.65,1.8-.45,2.81.17.86.29,1.74.38,2.61.05.51.23.46.54.22.17-.13.36-.22.53-.35.68-.49,1.36-.6,2.04-.01.21.18.34.14.38-.14,0-.02.01-.04.01-.06.15-1.7,1.19-2.5,2.76-2.92,1.54-.41,1.52-.49.66-1.83-.11-.18-.23-.35-.34-.53-.19-.29-.44-.35-.74-.21-.26.12-.52.25-.78.35-.66.25-1.36-.02-1.66-.63-.31-.61-.12-1.34.49-1.7.65-.39,1.33-.76,2.01-1.1.82-.41,1.68-.17,2.25.56.53.68,1.31.92,2.12.64.07-.02.14-.05.21-.09.65-.41,1.14-2.25.78-2.92-.59-1.09-.59-1.1-1.81-.89-3.1.54-5.73,1.97-7.88,4.27-.13.14-.25.29-.39.42-.18.16-.38.17-.57,0-.18-.17-.19-.37-.05-.57.1-.14.22-.27.33-.39,2.94-3.15,6.58-4.7,10.04-4.78Zm.81.89c-.05.18.05.26.1.35.71,1.22.41,3.2-.64,4.16-.19.17-.39.33-.64.37-1.2.22-2.45.24-3.08-.88-.26-.46-.73-.59-1.2-.36-.66.31-1.28.69-1.91,1.04-.23.13-.31.35-.19.59.13.26.36.32.63.19.21-.1.42-.19.63-.28.81-.36,1.41-.19,1.89.53.28.41.54.83.8,1.26.53.89.22,1.76-.76,2.12-.58.21-1.16.4-1.74.58-.63.2-.99.62-1.12,1.26-.07.36-.14.72-.25,1.06-.21.63-.95.93-1.43.5-.57-.51-1-.37-1.5.03-.25.2-.54.37-.82.53-.3.16-.3.38-.13.61.46.63,1.07,1.06,1.85,1.1.97.05,1.95,0,2.93.02.83.01,1.37.44,1.44,1.19.04.48.25.73.69.85.22.06.43.15.65.24,1.23.48,1.65,1.55,1.05,2.74-.42.84-.86,1.67-1.29,2.5-.33.64-.41,1.31-.24,2.01.19.76.39,1.52.53,2.29.09.49.33.68.81.78,7.27,1.55,14.46-2.85,16.35-10.05.39-1.49.52-3,.38-4.61-.42.23-.8.42-1.19.38-.61-.05-.55.22-.4.62.29.81.29,1.62-.14,2.39-1.14,2.02-2.28,4.03-3.42,6.04-.2.35-.47.6-.85.74-1.02.37-2.04-.34-2.06-1.47-.02-1.55,0-3.1,0-4.65,0-.91-.3-1.21-1.19-1.23-.38,0-.76-.05-1.13-.17-2.21-.71-2.97-3.38-1.48-5.18.1-.12.48-.2.11-.51-1.34-1.1-1.18-2.98.3-3.89.46-.28.92-.55,1.38-.82.46-.27.92-.55,1.38-.82.25-.15.45-.33.31-.65-.14-.32-.41-.29-.68-.18-.07.03-.14.06-.21.08-.66.22-1.31-.01-1.64-.58-.33-.55-.23-1.2.26-1.68.2-.2.42-.38.69-.62-1.29-.39-2.54-.55-3.81-.53Zm6.57,18.81c0,.77,0,1.53,0,2.3,0,.42.02.83.51.97.5.14.72-.21.93-.58.83-1.48,1.6-3.01,2.54-4.43.88-1.33,1.25-2.64.54-4.13-.02-.03-.02-.07-.03-.11-.1-.51.08-.71.61-.67.27.02.53.07.8.06.89,0,1.28-.46,1.08-1.32-1.02-4.37-3.55-7.56-7.56-9.57-1.21-.61-1.22-.59-2.19.36-.01.01-.03.03-.04.04-.22.19-.29.42-.13.66.15.25.4.26.66.16.11-.04.21-.09.32-.12.66-.2,1.31.08,1.59.68.27.58.1,1.24-.45,1.62-.3.21-.62.38-.93.57-.67.4-1.35.81-2.03,1.2-.6.34-.83.87-.8,1.53.03.57.33.95.83,1.01.5.06.9-.23,1.02-.79.12-.58.4-1.05,1.02-1.08,1.24-.05,2.49-.04,3.73,0,.63.02,1.13.58,1.2,1.2.07.64-.28,1.23-.88,1.45-.33.12-.71.25-.87-.21-.15-.41.19-.51.5-.59.28-.07.42-.27.39-.55-.03-.26-.2-.44-.45-.44-1.15-.02-2.3-.05-3.44,0-.49.02-.37.59-.44.89-.05.24.33.12.51.13.44.02.88.01,1.32,0,.29,0,.57.06.58.4.01.38-.27.46-.59.45-.71,0-1.42-.02-2.12,0-.94.04-1.64.5-2.05,1.35-.39.83-.31,1.65.23,2.39.51.7,1.23.98,2.09.98,1.32,0,2.01.72,2.02,2.03,0,.71,0,1.42,0,2.12Zm-11.14,8.03c-.18-.77-.33-1.48-.52-2.18-.27-1.03-.14-2,.36-2.94.43-.79.84-1.59,1.24-2.39.32-.64.12-1.16-.55-1.44-.3-.13-.61-.23-.91-.34-.62-.22-.99-.63-1.02-1.31-.02-.44-.26-.6-.67-.59-.54.01-1.07,0-1.61,0q-1.42,0-1.92,1.35c-.39,1.05-.28,1.51.62,2.18.73.54,1.23,1.22,1.6,2.05.69,1.58,1.45,3.12,2.14,4.69.24.56.61.83,1.25.92Zm-2.22-.98c-.62-1.34-1.19-2.52-1.7-3.73-.42-1.01-.97-1.87-1.89-2.52-.86-.61-1.06-1.57-.72-2.57.12-.34.22-.7.39-1.02.23-.45.14-.72-.33-.93-.63-.29-1.09-.78-1.26-1.47-.1-.41-.15-.83-.21-1.24-.15-1.02-.3-2.04-.47-3.2-2.17,5.82-.03,13.16,6.2,16.68Z"/>
</svg>