<svg id="Layer_1" data-name="Layer 1" xmlns="http://www.w3.org/2000/svg" viewBox="0 0 32 36" width="40" height="40">
  <defs>
    <style>
      .cls-1 {
        fill: #fff;
      }
    </style>
  </defs>
  <path class="cls-1" d="m16.98,6.46c0,1.04,0,2.08,0,3.12,0,.38-.16.54-.53.51-.63-.04-1.26-.05-1.88.04-1.77.25-3.29,1.01-4.55,2.28-1.26,1.27-2.01,2.79-2.24,4.57-.42,3.29,1.19,6.44,4.11,8.02,1.36.73,2.82,1.04,4.36.92.1,0,.2-.01.3-.01.24,0,.41.16.43.4,0,.1,0,.2,0,.3,0,2.03,0,4.05,0,6.08,0,.37-.16.53-.52.53-1.07,0-2.13,0-3.2,0-.31,0-.45-.12-.51-.42-.17-.85-.34-1.7-.5-2.56-.02-.09-.06-.14-.14-.17-.82-.34-1.64-.68-2.46-1.02-.12-.05-.21-.02-.31.04-.68.46-1.37.92-2.05,1.38-.09.06-.18.13-.29.15-.18.03-.31-.07-.44-.19-.6-.6-1.2-1.2-1.8-1.8-.51-.51-1.02-1.02-1.52-1.52-.26-.26-.27-.41-.07-.72.45-.68.9-1.35,1.37-2.02.1-.14.12-.25.05-.42-.34-.78-.66-1.57-.98-2.36-.05-.12-.12-.17-.24-.19-.82-.16-1.64-.32-2.47-.48-.36-.07-.45-.18-.45-.54,0-1.57,0-3.15,0-4.72,0-.34.1-.46.43-.53.82-.16,1.64-.33,2.47-.48.14-.03.22-.09.27-.22.33-.81.67-1.62,1.01-2.43.04-.09.03-.15-.03-.23-.49-.72-.97-1.44-1.45-2.16-.16-.25-.14-.43.06-.63,1.12-1.12,2.25-2.25,3.37-3.37.24-.24.4-.25.68-.06.7.47,1.39.93,2.09,1.4.11.07.2.09.32.04.81-.34,1.63-.68,2.45-1.01.12-.05.14-.14.16-.25.16-.82.32-1.64.49-2.47.06-.32.2-.43.53-.43,1.06,0,2.12,0,3.18,0,.36,0,.52.16.52.51,0,1.05,0,2.1,0,3.15h0Zm-.85-.01h0c0-.88,0-1.77,0-2.65,0-.1,0-.15-.13-.15-.78,0-1.57,0-2.35,0-.08,0-.12.02-.14.11-.15.8-.32,1.6-.47,2.41-.04.23-.16.38-.37.46-.97.4-1.95.8-2.92,1.21-.25.11-.44.08-.66-.07-.65-.45-1.31-.89-1.97-1.34-.09-.06-.15-.07-.23.02-.94.95-1.88,1.89-2.82,2.83-.06.06-.07.09-.02.16.41.6.82,1.21,1.22,1.81.37.56.37.48.12,1.08-.37.9-.75,1.81-1.12,2.71-.08.2-.21.32-.43.35-.19.03-.37.08-.56.11-.62.12-1.23.24-1.85.36-.12.02-.16.07-.15.19,0,.17,0,.33,0,.5,0,1.12.01,2.23,0,3.35,0,.17.03.23.2.26.79.15,1.58.31,2.38.47.19.04.31.14.39.32.41,1,.82,1.99,1.24,2.99.1.23.07.42-.07.62-.46.67-.91,1.35-1.36,2.02-.05.07-.04.11.02.17.88.87,1.75,1.75,2.62,2.62q.29.29.62.06c.6-.41,1.21-.81,1.81-1.22.15-.1.29-.17.48-.09,1.04.43,2.08.86,3.11,1.29.16.07.26.18.29.36.16.82.32,1.63.48,2.45.02.11.06.15.17.15.76,0,1.52,0,2.28,0,.14,0,.19-.03.19-.18,0-1.72,0-3.44,0-5.16,0-.29.04-.25-.25-.25-1.73.05-3.34-.38-4.82-1.28-3.35-2.04-4.97-6.1-3.87-9.87.84-2.88,2.71-4.84,5.51-5.9,1.05-.4,2.15-.54,3.27-.5.12,0,.16-.02.16-.15,0-.87,0-1.75,0-2.62Z"/>
  <path class="cls-1" d="m12.51,18c0-1.49,0-2.98,0-4.46,0-.56.37-1.01.91-1.13.09-.02.18-.02.27-.02.7,0,1.41,0,2.11,0,.38,0,.68.14.92.43.05.06.1.1.18.08.78-.15,1.53-.36,2.21-.8.86-.55,1.33-1.37,1.55-2.35.22-.96.21-1.92.17-2.89-.01-.21-.04-.41-.04-.62-.02-.6.37-1.02.97-1.06,1.32-.08,2.24.53,2.74,1.81.23.6.34,1.22.39,1.85.08,1.09.03,2.17-.11,3.25-.01.11.03.12.12.12,1.04,0,2.07,0,3.11,0,.26,0,.52,0,.78.05,1.28.25,1.84,1.73,1.05,2.77-.06.08-.08.12.02.19.94.7.95,2.04.02,2.78-.1.08-.12.12-.03.24.62.81.36,2.03-.54,2.53-.08.04-.13.06-.07.18.64,1.12-.09,2.42-1.39,2.46-.44.01-.87.01-1.31,0-.71-.02-1.4.09-2.1.15-1.31.12-2.61.24-3.93.13-.76-.06-1.48-.24-2.2-.46-.4-.12-.82-.21-1.24-.26-.12-.01-.19,0-.27.12-.2.34-.52.53-.92.54-.75,0-1.5.01-2.25,0-.64-.01-1.11-.51-1.11-1.15,0-1.49,0-2.98,0-4.46Zm4.46-.07h0c0,1.35,0,2.69,0,4.04,0,.1.03.13.13.14.52.05,1.02.16,1.52.31.94.3,1.9.45,2.89.45,1.01,0,2.02-.1,3.02-.19.13-.01.09-.06.05-.13-.29-.53-.28-1.06.02-1.58.07-.12.05-.16-.06-.22-.95-.55-1.14-1.88-.38-2.67.08-.08.06-.11,0-.17-.26-.24-.45-.53-.52-.88-.03-.14-.07-.11-.15-.04-.44.37-.94.62-1.47.8-.25.08-.47-.01-.56-.24-.09-.22.02-.45.26-.55.11-.05.23-.08.34-.13.93-.38,1.55-1.03,1.76-2.04.12-.54.13-1.09.09-1.63-.02-.29-.05-.58,0-.87.15-1.12.23-2.24.14-3.37-.05-.66-.15-1.31-.45-1.91-.36-.74-.96-1.08-1.78-1.01-.13.01-.19.06-.18.2.02.2.03.4.04.6.07,1.07.05,2.14-.2,3.19-.33,1.38-1.1,2.42-2.39,3.06-.62.31-1.27.5-1.94.63-.13.03-.17.08-.17.21,0,1.34,0,2.67,0,4.01Zm-.84.09h0c0-1.38,0-2.76,0-4.15,0-.12,0-.23,0-.35-.01-.16-.13-.29-.28-.29-.74,0-1.48,0-2.22,0-.17,0-.26.09-.28.26-.02.12-.02.24-.02.36.02,1.57,0,3.14.01,4.71,0,1.26,0,2.52,0,3.79,0,.36.08.43.44.43.65,0,1.3,0,1.95,0,.33,0,.4-.08.4-.41,0-1.45,0-2.9,0-4.34Zm10.94-2.31c-.57,0-1.14,0-1.72,0-.17,0-.33.03-.48.12-.36.2-.54.61-.45.98.11.43.44.7.9.7,1.14,0,2.28,0,3.42,0,.18,0,.36-.03.52-.13.35-.23.51-.63.39-1.02-.11-.37-.46-.64-.87-.64-.57,0-1.14,0-1.72,0Zm-.16,2.65h0c-.53,0-1.06,0-1.58.01-.5.01-.89.53-.8,1.02.08.45.41.75.86.76.61.01,1.22,0,1.82,0,.42,0,.84,0,1.27,0,.41-.01.77-.35.82-.75.08-.57-.32-1.03-.92-1.04-.49,0-.98,0-1.48,0Zm.22-3.49c.44,0,.87,0,1.31,0,.69-.01,1.12-.73.79-1.32-.19-.34-.49-.48-.88-.48-.81,0-1.62,0-2.43,0-.06,0-.12,0-.18.01-.52.06-.85.46-.82.97.03.45.43.81.92.82.43,0,.85,0,1.28,0Zm-.22,7.67s0,0,0,0c.34,0,.68.01,1.02,0,.36-.02.65-.34.68-.69.03-.48-.31-.83-.82-.84-.58,0-1.17,0-1.75,0-.06,0-.12,0-.18.02-.38.05-.67.39-.66.76,0,.4.31.73.7.75.34.02.67,0,1.01,0Z"/>
</svg>