<svg id="Layer_1" data-name="Layer 1" xmlns="http://www.w3.org/2000/svg" viewBox="0 0 32 36" width="40" height="40">
  <defs>
    <style>
      .cls-1 {
        fill: #fff;
      }
    </style>
  </defs>
  <path class="cls-1" d="m18.28,26.83c0-.33,0-.62,0-.91,0-3.41,0-6.82,0-10.22,0-1.06.73-2,1.73-2.25,1.29-.32,2.61.56,2.8,1.88.02.13.03.27.03.4,0,2.14,0,4.29,0,6.43,0,.12.04.15.15.17,1.37.24,2.73.5,4.1.74,1.03.18,1.9.63,2.52,1.49.71.98.92,2.07.57,3.24-.46,1.53-.94,3.05-1.42,4.57-.08.27-.26.44-.55.47-.25.03-.48-.11-.61-.34-.08-.15-.08-.31-.03-.46.29-.96.59-1.91.89-2.87.19-.63.42-1.24.57-1.88.31-1.36-.58-2.7-1.96-2.95-1.04-.19-2.08-.38-3.12-.57-.6-.11-1.21-.21-1.81-.33-.38-.07-.56-.29-.56-.69,0-.88,0-1.76,0-2.64,0-1.47,0-2.94,0-4.4,0-.51-.25-.88-.7-1.04-.65-.24-1.36.25-1.39.97,0,.13,0,.26,0,.39,0,4.08,0,8.16,0,12.24,0,.18-.02.34-.14.49-.25.29-.65.31-.93.03-.5-.49-.99-.99-1.49-1.48-.27-.27-.54-.54-.81-.81-.47-.46-1.16-.46-1.61,0-.44.44-.43,1.14.03,1.6,1.18,1.18,2.36,2.36,3.53,3.53.08.08.16.16.23.24.2.26.17.6-.07.82-.24.22-.58.24-.82,0-.52-.5-1.02-1.01-1.53-1.52-.73-.73-1.46-1.46-2.19-2.19-.95-.96-.94-2.46.02-3.39.88-.85,2.28-.88,3.18-.07.45.4.86.84,1.29,1.27.02.02.04.03.08.07Z"/>
  <path class="cls-1" d="m12.41,3.17c4.92,0,9.29,3.05,11.02,7.69.06.17.13.33.17.51.08.33-.09.64-.41.75-.3.1-.63-.06-.76-.37-.11-.29-.2-.58-.32-.87-1.24-2.88-3.35-4.85-6.3-5.9-1.4-.5-2.86-.68-4.33-.52-3.28.34-5.87,1.86-7.76,4.56-.93,1.33-1.51,2.82-1.71,4.44-.44,3.64.68,6.74,3.36,9.25,1.22,1.14,2.66,1.9,4.27,2.34.26.07.49.18.58.47.14.48-.29.9-.8.76-1.05-.28-2.06-.69-2.99-1.26-2.69-1.63-4.47-3.96-5.33-6.99-.32-1.13-.48-2.28-.42-3.45.14-3.18,1.33-5.91,3.62-8.13,1.55-1.5,3.39-2.47,5.48-2.97.87-.2,1.75-.31,2.64-.31Z"/>
  <path class="cls-1" d="m11.14,18.66c-.21,0-.36-.09-.49-.22-.92-.92-1.84-1.84-2.75-2.75-.13-.13-.26-.25-.38-.38-.24-.26-.24-.61,0-.86.24-.24.6-.27.86-.02.53.51,1.04,1.03,1.56,1.55.37.36.73.73,1.09,1.1.07.08.11.07.18,0,1.85-1.86,3.7-3.71,5.56-5.56.08-.08.16-.17.25-.24.25-.19.59-.16.82.06.22.22.24.56.05.8-.05.06-.11.12-.17.18-2.02,2.02-4.04,4.04-6.06,6.06-.15.15-.31.28-.52.27Z"/>
</svg>