<svg xmlns="http://www.w3.org/2000/svg" width="138" height="16.649" viewBox="0 0 138 16.649">
  <g id="Group_2776" data-name="Group 2776" transform="translate(-80 -15.675)">
    <text id="Made_in_america" data-name="Made in america" transform="translate(110 29)" fill="#fff" font-size="14" font-family="Helvetica" letter-spacing="0.012em"><tspan x="0" y="0">Made In America</tspan></text>
    <g id="flag" transform="translate(77.166 -16.53)">
      <path id="Path_29782" data-name="Path 29782" d="M23.948,47.626c-7.038-4.258-14.076,4.257-21.114,0V33.435c7.038,4.258,14.076-4.258,21.114,0Z" fill="#cccbca"/>
      <g id="Group_1806" data-name="Group 1806" transform="translate(3.01 32.379)">
        <path id="Path_29783" data-name="Path 29783" d="M25.916,49.46c-6.923-3.986-13.845,4.184-20.768.205V35.82c6.923,3.98,13.844-4.191,20.768-.2Z" transform="translate(-5.148 -34.487)" fill="#b02a3d"/>
        <g id="Group_1804" data-name="Group 1804" transform="translate(0 1.064)">
          <path id="Path_29784" data-name="Path 29784" d="M25.916,50.683c-6.923-3.986-13.845,4.184-20.768.2V49.824c6.923,3.98,13.844-4.191,20.768-.2Z" transform="translate(-5.148 -48.491)" fill="#fff"/>
          <path id="Path_29785" data-name="Path 29785" d="M25.916,78.686c-6.923-3.986-13.845,4.185-20.768.2V77.826c6.923,3.979,13.844-4.191,20.768-.2Z" transform="translate(-5.148 -74.365)" fill="#fff"/>
          <path id="Path_29786" data-name="Path 29786" d="M25.916,106.691c-6.923-3.986-13.845,4.184-20.768.2v-1.064c6.923,3.979,13.844-4.191,20.768-.2Z" transform="translate(-5.148 -100.241)" fill="#fff"/>
          <path id="Path_29787" data-name="Path 29787" d="M25.916,134.695c-6.923-3.987-13.845,4.184-20.768.2v-1.064c6.923,3.979,13.844-4.191,20.768-.205Z" transform="translate(-5.148 -126.116)" fill="#fff"/>
          <path id="Path_29788" data-name="Path 29788" d="M25.916,162.7c-6.923-3.987-13.845,4.184-20.768.2v-1.064c6.923,3.979,13.844-4.191,20.768-.205Z" transform="translate(-5.148 -151.992)" fill="#fff"/>
          <path id="Path_29789" data-name="Path 29789" d="M25.916,190.7c-6.923-3.986-13.845,4.184-20.768.2v-1.064c6.923,3.979,13.844-4.191,20.768-.205Z" transform="translate(-5.148 -177.866)" fill="#fff"/>
        </g>
        <path id="Path_29790" data-name="Path 29790" d="M15.532,50.652c-3.461,1.046-6.923,2.094-10.384.1v7.45c3.461,1.99,6.923.942,10.384-.1Z" transform="translate(-5.148 -49.423)" fill="#434177"/>
        <g id="Group_1805" data-name="Group 1805" transform="translate(0.434 1.964)">
          <path id="Path_29791" data-name="Path 29791" d="M11.1,63.68,11,63.923s0,0,0,0l0,0c.081-.02.162-.042.243-.065.082.095.163.188.244.279h0s0,0,0,0h0c-.031-.108-.063-.216-.094-.324.082-.025.163-.051.244-.079,0,0,0,0,0,0a.006.006,0,0,0,0,0c-.1-.038-.2-.078-.3-.12-.031-.109-.063-.218-.094-.327,0,0,0,0-.006,0l-.092.244c-.1-.045-.2-.094-.3-.144,0,0,0,0,0,0v0C10.934,63.485,11.016,63.584,11.1,63.68Z" transform="translate(-10.852 -63.055)" fill="#fff"/>
          <path id="Path_29792" data-name="Path 29792" d="M33.57,70.794l-.093.266v0h0c.081-.041.163-.082.244-.125.081.075.162.148.243.221h0a0,0,0,0,0,0,0h0l-.093-.3c.081-.044.162-.09.243-.137,0,0,0,0,0,0l0,0c-.1-.015-.2-.032-.3-.05l-.094-.3s0,0-.005,0l-.094.267c-.1-.021-.2-.044-.3-.069a0,0,0,0,0,0,0,0,0,0,0,0,0,0Q33.449,70.679,33.57,70.794Z" transform="translate(-31.617 -69.594)" fill="#fff"/>
          <path id="Path_29793" data-name="Path 29793" d="M56.054,73c-.031.1-.063.19-.094.284,0,0,0,0,0,0h0l.244-.173.243.175h0a0,0,0,0,0,0,0h0c-.031-.095-.063-.19-.094-.285.081-.06.163-.12.244-.182a0,0,0,0,0,0,0s0,0,0,0c-.1,0-.2.005-.3.006l-.093-.286s-.005,0-.006,0l-.094.286c-.1,0-.2,0-.3-.009,0,0,0,0,0,0a0,0,0,0,0,0,0C55.891,72.876,55.973,72.937,56.054,73Z" transform="translate(-52.392 -71.602)" fill="#fff"/>
          <path id="Path_29794" data-name="Path 29794" d="M78.524,71.363l-.094.3,0,0h0l.243-.209.244.139h0a0,0,0,0,0,0,0s0,0,0,0l-.093-.271c.081-.072.163-.143.244-.216,0,0,0,0,0,0s0,0,0,0q-.15.026-.3.048l-.094-.272s0,0-.006,0l-.093.3c-.1.014-.2.026-.3.038a0,0,0,0,0,0,0,0,0,0,0,0,0,0Z" transform="translate(-73.154 -70.07)" fill="#fff"/>
          <path id="Path_29795" data-name="Path 29795" d="M101,66.955l-.093.308s0,0,0,0h0l.243-.234.244.116h0s0,0,0,0a0,0,0,0,0,0,0l-.092-.262.243-.239a0,0,0,0,0,0,0s0,0,0,0l-.3.076-.093-.264s0,0-.005,0l-.094.309-.3.069,0,0s0,0,0,0Z" transform="translate(-93.919 -65.983)" fill="#fff"/>
          <path id="Path_29796" data-name="Path 29796" d="M123.477,60.844l-.094.314s0,0,0,0h0l.244-.248.243.1h0a0,0,0,0,0,0,0,0,0,0,0,0,0,0l-.093-.258.244-.249a.006.006,0,0,0,0,0s0,0,0,0l-.3.089-.093-.259s-.005,0-.006,0l-.094.314-.3.087,0,0s0,0,0,0Z" transform="translate(-114.69 -60.328)" fill="#fff"/>
          <path id="Path_29797" data-name="Path 29797" d="M22.243,77.8s0,0,0,0h0c.081-.031.163-.064.244-.1q.122.127.243.249h0s0,0,0,0h0l-.094-.313c.081-.035.163-.072.244-.11a0,0,0,0,0,0,0s0,0,0,0c-.1-.026-.2-.054-.3-.084l-.093-.315s-.005,0-.006,0l-.092.258c-.1-.033-.2-.068-.3-.106h0a.01.01,0,0,0,0,0c.081.089.163.176.244.262Z" transform="translate(-21.237 -75.849)" fill="#fff"/>
          <path id="Path_29798" data-name="Path 29798" d="M44.716,82.352l0,0h0c.081-.049.162-.1.243-.151.081.067.163.133.244.2h0a0,0,0,0,0,0,0s0,0,0,0l-.093-.293.244-.161s0,0,0,0,0,0,0,0c-.1-.005-.2-.012-.3-.02l-.094-.3a0,0,0,0,0-.006,0l-.092.277c-.1-.011-.2-.023-.3-.037,0,0,0,0,0,0a.007.007,0,0,0,0,0c.081.07.163.139.244.207C44.778,82.169,44.747,82.261,44.716,82.352Z" transform="translate(-42.002 -80.004)" fill="#fff"/>
          <path id="Path_29799" data-name="Path 29799" d="M67.194,82.517a.007.007,0,0,0,0,0h0l.243-.194.244.157h0a.005.005,0,0,0,0,0s0,0,0,0L67.6,82.2c.081-.066.162-.133.243-.2,0,0,0,0,0,0l0,0c-.1.011-.2.021-.3.029l-.094-.279s0,0-.005,0l-.094.294c-.1.007-.2.012-.3.016l0,0a.006.006,0,0,0,0,0c.081.055.162.11.243.164Z" transform="translate(-62.771 -80.116)" fill="#fff"/>
          <path id="Path_29800" data-name="Path 29800" d="M89.675,79.37v0h0c.081-.074.163-.149.244-.225q.122.065.243.128h0a.007.007,0,0,0,0,0s0,0,0,0L90.079,79l.244-.228a.009.009,0,0,0,0,0s0,0,0,0c-.1.023-.2.043-.3.064l-.093-.268s-.005,0-.006,0l-.094.305c-.1.02-.2.038-.3.055,0,0,0,0,0,0a0,0,0,0,0,0,0l.244.132Z" transform="translate(-83.544 -77.179)" fill="#fff"/>
          <path id="Path_29801" data-name="Path 29801" d="M112.143,73.986a0,0,0,0,0,0,0h0l.243-.244.244.11h0a.005.005,0,0,0,0,0s0,0,0,0l-.093-.261.244-.245a.009.009,0,0,0,0,0s0,0,0,0l-.3.085-.092-.261s0,0-.006,0l-.093.312-.3.08s0,0,0,0,0,0,0,0l.244.112Z" transform="translate(-104.304 -72.186)" fill="#fff"/>
          <path id="Path_29802" data-name="Path 29802" d="M11,83.183s0,0,0,0l0,0q.122-.031.243-.066c.082.095.163.188.244.28h0s0,0,0,0h0c-.031-.108-.063-.216-.094-.324.082-.025.163-.051.244-.079,0,0,0,0,0,0a.006.006,0,0,0,0,0c-.1-.038-.2-.078-.3-.12l-.094-.327s0,0-.006,0c-.031.082-.061.164-.092.245-.1-.045-.2-.094-.3-.144,0,0,0,0,0,0a.015.015,0,0,0,0,0c.081.1.163.2.244.294L11,83.183Z" transform="translate(-10.853 -80.851)" fill="#fff"/>
          <path id="Path_29803" data-name="Path 29803" d="M33.477,90.322a.006.006,0,0,0,0,0h0c.081-.041.163-.083.244-.126q.122.113.243.222h0s0,0,0,0h0l-.093-.3c.081-.044.162-.09.243-.137,0,0,0,0,0,0l0,0c-.1-.015-.2-.032-.3-.05-.031-.1-.063-.2-.094-.3,0,0,0,0-.005,0l-.094.268c-.1-.021-.2-.044-.3-.069a0,0,0,0,0,0,0,0,0,0,0,0,0,0q.122.119.243.234Z" transform="translate(-31.617 -87.391)" fill="#fff"/>
          <path id="Path_29804" data-name="Path 29804" d="M55.959,92.546s0,0,0,0h0c.081-.057.163-.115.244-.174.081.06.162.118.243.176h0a0,0,0,0,0,0,0h0l-.094-.285c.081-.06.163-.12.244-.182a0,0,0,0,0,0,0s0,0,0,0c-.1,0-.2.005-.3.006l-.093-.287s-.005,0-.006,0l-.094.286c-.1,0-.2,0-.3-.009,0,0,0,0,0,0a0,0,0,0,0,0,0c.081.063.163.124.244.184C56.022,92.357,55.99,92.452,55.959,92.546Z" transform="translate(-52.391 -89.401)" fill="#fff"/>
          <path id="Path_29805" data-name="Path 29805" d="M78.431,90.926s0,0,0,0h0l.243-.21.244.141h0s0,0,0,0,0,0,0,0l-.093-.272c.081-.072.163-.143.244-.216,0,0,0,0,0,0a0,0,0,0,0,0,0q-.15.026-.3.048l-.094-.273s0,0-.006,0l-.093.3c-.1.014-.2.026-.3.038a0,0,0,0,0,0,0,0,0,0,0,0,0,0l.244.147Z" transform="translate(-73.154 -87.869)" fill="#fff"/>
          <path id="Path_29806" data-name="Path 29806" d="M100.905,86.528s0,0,0,0h0l.243-.235.244.117h0a0,0,0,0,0,0,0s0,0,0,0l-.092-.263.243-.239a0,0,0,0,0,0,0s0,0,0,0l-.3.076-.093-.264s0,0-.005,0l-.094.309-.3.069,0,0s0,0,0,0l.243.12Z" transform="translate(-93.92 -83.782)" fill="#fff"/>
          <path id="Path_29807" data-name="Path 29807" d="M123.383,80.419s0,0,0,0h0l.244-.249.243.106h0a0,0,0,0,0,0,0s0,0,0,0l-.093-.258.244-.249a.006.006,0,0,0,0,0s0,0,0,0l-.3.089-.093-.259s-.005,0-.006,0l-.094.314-.3.087,0,0s0,0,0,0l.244.106Z" transform="translate(-114.69 -78.126)" fill="#fff"/>
          <path id="Path_29808" data-name="Path 29808" d="M22.775,96.51s-.005,0-.007,0l-.092.258c-.1-.033-.2-.067-.3-.1h0a0,0,0,0,0,0,0c.081.089.163.177.244.263l-.093.254a0,0,0,0,0,0,0h0c.081-.031.163-.063.244-.1.081.084.163.166.244.247h0s0,0,0,0a.006.006,0,0,0,0,0l-.093-.311c.081-.036.163-.073.244-.112a0,0,0,0,0,0,0l0,0c-.1-.026-.2-.054-.3-.083C22.836,96.72,22.806,96.615,22.775,96.51Z" transform="translate(-21.496 -93.757)" fill="#fff"/>
          <path id="Path_29809" data-name="Path 29809" d="M45.249,100.942a0,0,0,0,0-.007,0l-.092.278c-.1-.01-.2-.023-.3-.036h0a0,0,0,0,0,0,0c.081.071.163.14.244.208L45,101.67a0,0,0,0,0,0,0h0c.081-.049.162-.1.243-.151.082.067.163.132.244.2h0s0,0,0,0a0,0,0,0,0,0,0l-.092-.292q.122-.08.243-.163s0,0,0,0a0,0,0,0,0,0,0q-.15-.007-.3-.019Z" transform="translate(-42.262 -97.852)" fill="#fff"/>
          <path id="Path_29810" data-name="Path 29810" d="M67.565,101.5l-.092.291a0,0,0,0,0,0,0h0c.081-.064.162-.128.243-.193.082.052.163.1.244.155h0l0,0s0,0,0,0l-.092-.277q.122-.1.243-.2a0,0,0,0,0,0,0h0c-.1.011-.2.021-.3.029l-.094-.279s0,0-.005,0l-.093.293c-.1.007-.2.013-.3.017h0a0,0,0,0,0,0,0Z" transform="translate(-63.029 -97.926)" fill="#fff"/>
          <path id="Path_29811" data-name="Path 29811" d="M90.045,98.309l-.092.3s0,0,0,0h0l.244-.224.244.126h0s0,0,0,0v0l-.094-.266.244-.23s0,0,0,0h0l-.3.064-.093-.268a0,0,0,0,0-.006,0l-.093.305-.3.056h0s0,0,0,0C89.883,98.221,89.964,98.265,90.045,98.309Z" transform="translate(-83.8 -94.959)" fill="#fff"/>
          <path id="Path_29812" data-name="Path 29812" d="M112.674,92.384s-.005,0-.006,0l-.092.312-.3.08,0,0s0,0,0,0l.244.113-.093.311s0,0,0,0h0l.243-.242.244.108h0s0,0,0,0v0c-.031-.087-.063-.174-.094-.259l.244-.247a.005.005,0,0,0,0,0h0l-.3.085Z" transform="translate(-104.563 -89.946)" fill="#fff"/>
          <path id="Path_29813" data-name="Path 29813" d="M11.6,101.908s0-.005-.005,0l-.093.245c-.1-.045-.2-.093-.3-.143,0,0,0,0,0,0s0,0,0,0q.122.149.243.293l-.092.243a0,0,0,0,0,0,0s0,0,0,0c.081-.02.163-.042.244-.066q.122.141.243.278h0s0,0,0,0v0l-.093-.323c.081-.026.163-.052.244-.081,0,0,0,0,0,0s0,0,0,0c-.1-.038-.2-.078-.3-.12Z" transform="translate(-11.171 -98.745)" fill="#fff"/>
          <path id="Path_29814" data-name="Path 29814" d="M34.073,108.905s-.005,0-.006,0l-.092.267c-.1-.02-.2-.044-.3-.068a0,0,0,0,0,0,0s0,0,0,0c.081.079.163.157.244.233l-.093.266a0,0,0,0,0,0,0s0,0,0,0c.081-.041.163-.083.244-.126l.243.221h0a0,0,0,0,0,0,0v0l-.094-.3c.082-.045.163-.091.244-.138a0,0,0,0,0,0,0,0,0,0,0,0,0,0c-.1-.015-.2-.031-.3-.049Z" transform="translate(-31.936 -105.21)" fill="#fff"/>
          <path id="Path_29815" data-name="Path 29815" d="M56.546,111.01a0,0,0,0,0-.006,0c-.031.1-.061.191-.092.286-.1,0-.2,0-.3-.008l0,0s0,0,0,0c.081.063.163.124.244.184l-.093.284a0,0,0,0,0,0,0s0,0,0,0q.122-.086.243-.174l.244.175h0s0,0,0,0v0l-.094-.284c.081-.06.163-.122.244-.184,0,0,0,0,0,0l0,0c-.1,0-.2.006-.3.007Z" transform="translate(-52.701 -107.156)" fill="#fff"/>
          <path id="Path_29816" data-name="Path 29816" d="M79.021,109.3s0,0-.005,0c-.031.1-.063.2-.094.3-.1.014-.2.027-.3.038l0,0s0,0,0,0l.243.147-.093.3s0,0,0,0,0,0,0,0l.244-.21.243.14h0s0,0,0,0v0l-.093-.271.243-.217s0,0,0,0,0,0,0,0c-.1.017-.2.033-.3.049Z" transform="translate(-73.467 -105.579)" fill="#fff"/>
          <path id="Path_29817" data-name="Path 29817" d="M101.5,104.843s-.005,0-.006,0l-.094.309q-.15.037-.3.07a0,0,0,0,0,0,0s0,0,0,0l.244.121-.094.308s0,0,0,0,0,0,0,0l.244-.236.243.117h0s0,0,0,0,0,0,0,0l-.093-.262.244-.239a0,0,0,0,0,0,0h0l-.3.077Z" transform="translate(-94.241 -101.458)" fill="#fff"/>
          <path id="Path_29818" data-name="Path 29818" d="M123.977,98.707s0,0-.006,0l-.093.314-.3.088s0,0,0,0,0,0,0,0l.244.107-.094.314s0,0,0,0,0,0,0,0l.243-.248.244.1h0a0,0,0,0,0,0,0s0,0,0,0l-.093-.258.244-.25a0,0,0,0,0,0,0h0l-.3.09Z" transform="translate(-115.007 -95.788)" fill="#fff"/>
          <path id="Path_29819" data-name="Path 29819" d="M11.9,121.289l-.093-.326s0,0-.006,0l-.093.245c-.1-.045-.2-.092-.3-.142,0,0,0,0,0,0a0,0,0,0,0,0,0c.081.1.163.2.244.293l-.093.243s0,0,0,0h0c.081-.021.163-.044.244-.067.081.094.163.187.244.278h0a0,0,0,0,0,0,0,0,0,0,0,0,0,0l-.092-.323c.081-.026.162-.053.243-.082,0,0,0,0,0,0s0,0,0,0c-.1-.038-.2-.077-.3-.119Z" transform="translate(-11.363 -116.352)" fill="#fff"/>
          <path id="Path_29820" data-name="Path 29820" d="M34.374,128.208l-.093-.3s0,0-.006,0l-.093.268c-.1-.021-.2-.043-.3-.067,0,0,0,0,0,0a0,0,0,0,0,0,0q.122.118.243.233l-.092.266s0,0,0,0h0c.082-.041.163-.083.244-.127q.122.113.243.22h0s0,0,0,0,0,0,0,0l-.092-.3c.081-.045.162-.091.243-.138a0,0,0,0,0,0,0s0,0,0,0C34.575,128.242,34.474,128.226,34.374,128.208Z" transform="translate(-32.128 -122.765)" fill="#fff"/>
          <path id="Path_29821" data-name="Path 29821" d="M56.854,130.255l-.093-.286a0,0,0,0,0-.006,0l-.093.286c-.1,0-.2,0-.3-.008,0,0,0,0,0,0a0,0,0,0,0,0,0c.081.063.162.123.243.184-.031.1-.061.19-.092.285a0,0,0,0,0,0,0h0c.081-.058.163-.116.244-.176.081.06.163.117.244.174h0s0,0,0,0a.006.006,0,0,0,0,0l-.093-.284.244-.184a0,0,0,0,0,0,0s0,0,0,0C57.055,130.252,56.955,130.254,56.854,130.255Z" transform="translate(-52.9 -124.674)" fill="#fff"/>
          <path id="Path_29822" data-name="Path 29822" d="M79.329,128.5l-.093-.272s0,0-.006,0l-.092.3c-.1.014-.2.027-.3.038,0,0,0,0,0,0s0,0,0,0l.244.146-.093.3s0,0,0,0a0,0,0,0,0,0,0l.243-.211.244.139h0a0,0,0,0,0,0,0,0,0,0,0,0,0,0l-.092-.271.243-.218a0,0,0,0,0,0,0s0,0,0,0l-.3.05Z" transform="translate(-73.667 -123.069)" fill="#fff"/>
          <path id="Path_29823" data-name="Path 29823" d="M101.806,124.017l-.094-.263s0,0-.005,0l-.093.309-.3.07,0,0s0,0,0,0l.243.12-.092.308s0,0,0,0,0,0,0,0l.243-.235.244.117h0a0,0,0,0,0,0,0v0l-.093-.262.244-.239a0,0,0,0,0,0,0s0,0,0,0Z" transform="translate(-94.435 -118.932)" fill="#fff"/>
          <path id="Path_29824" data-name="Path 29824" d="M124.583,117.773l-.3.089-.093-.259s-.005,0-.006,0l-.093.314-.3.088,0,0s0,0,0,0l.243.106-.092.314s0,0,0,0h0l.244-.249.243.105h0a.005.005,0,0,0,0,0v0l-.094-.258.244-.25a0,0,0,0,0,0,0S124.584,117.772,124.583,117.773Z" transform="translate(-115.202 -113.249)" fill="#fff"/>
          <path id="Path_29825" data-name="Path 29825" d="M11.626,140.351l-.093-.327s0,0-.005,0l-.094.246c-.1-.045-.2-.093-.3-.143,0,0,0,0,0,0s0,0,0,0c.081.1.163.2.244.295l-.093.243s0,0,0,0h0c.081-.02.162-.042.243-.066.081.094.163.187.244.278,0,0,0,0,0,0h0s0,0,0,0a.006.006,0,0,0,0,0c-.031-.109-.061-.216-.092-.323q.122-.039.243-.082s0,0,0,0a0,0,0,0,0,0,0C11.826,140.433,11.726,140.394,11.626,140.351Z" transform="translate(-11.109 -133.964)" fill="#fff"/>
          <path id="Path_29826" data-name="Path 29826" d="M34.1,147.336c-.031-.1-.062-.2-.093-.3,0,0,0,0-.006,0l-.093.268c-.1-.02-.2-.044-.3-.068a0,0,0,0,0,0,0s0,0,0,0c.081.08.162.157.243.234l-.092.266s0,0,0,0,0,0,0,0q.122-.061.243-.125l.244.221h0s0,0,0,0a0,0,0,0,0,0,0c-.031-.1-.061-.2-.092-.3.081-.044.162-.091.243-.138,0,0,0,0,0,0s0,0,0,0C34.3,147.372,34.2,147.355,34.1,147.336Z" transform="translate(-31.876 -140.439)" fill="#fff"/>
          <path id="Path_29827" data-name="Path 29827" d="M56.582,149.445l-.092-.286s-.006,0-.007,0l-.092.286c-.1,0-.2,0-.3-.008a0,0,0,0,0,0,0s0,0,0,0c.081.063.162.124.243.185-.031.1-.061.19-.092.284,0,0,0,0,0,0s0,0,0,0c.081-.056.163-.114.244-.173l.244.174s0,0,0,0,0,0,0,0,0,0,0,0l-.094-.283c.082-.061.163-.122.244-.185,0,0,0,0,0,0s0,0,0,0C56.783,149.442,56.683,149.444,56.582,149.445Z" transform="translate(-52.649 -142.405)" fill="#fff"/>
          <path id="Path_29828" data-name="Path 29828" d="M79.052,147.727c-.031-.091-.063-.181-.094-.273,0,0-.005,0-.006,0-.031.1-.061.2-.092.3-.1.014-.2.027-.3.038l0,0v0c.081.049.163.1.244.147l-.093.3s0,0,0,0,0,0,0,0l.243-.209.244.138s0,0,0,0,0,0,0,0h0l-.092-.272.243-.217s0,0,0,0,0,0,0,0c-.1.018-.2.033-.3.049Z" transform="translate(-73.409 -140.831)" fill="#fff"/>
          <path id="Path_29829" data-name="Path 29829" d="M101.526,143.265l-.094-.265s0,0-.005,0l-.093.31-.3.069s0,0,0,0a0,0,0,0,0,0,0l.243.122-.092.308s0,0,0,0,0,0,0,0l.243-.234.244.116s0,0,0,0a0,0,0,0,0,0,0v0l-.093-.262q.122-.118.243-.24s0,0,0,0,0,0,0,0l-.3.076Z" transform="translate(-94.175 -136.715)" fill="#fff"/>
          <path id="Path_29830" data-name="Path 29830" d="M124.007,137.128l-.093-.26s-.005,0-.006,0l-.093.314-.3.087,0,0a.006.006,0,0,0,0,0l.243.107c-.031.1-.061.209-.092.312a0,0,0,0,0,0,0s0,0,0,0l.244-.248.243.1h0s0,0,0,0v0l-.094-.258.244-.25s0,0,0,0h0Z" transform="translate(-114.948 -131.05)" fill="#fff"/>
          <path id="Path_29831" data-name="Path 29831" d="M22.93,115.781l-.093-.315a.005.005,0,0,0-.007,0c-.031.086-.061.172-.092.258-.1-.032-.2-.067-.3-.1,0,0,0,0,0,0s0,0,0,0c.081.089.163.176.244.262l-.093.255a0,0,0,0,0,0,0h0c.081-.032.163-.064.244-.1.081.085.163.168.244.249h0s0,0,0,0h0l-.092-.313q.122-.053.243-.11s0,0,0,0a0,0,0,0,0,0,0C23.131,115.839,23.03,115.811,22.93,115.781Z" transform="translate(-21.553 -111.273)" fill="#fff"/>
          <path id="Path_29832" data-name="Path 29832" d="M45.409,120.181c-.031-.1-.061-.2-.092-.295,0,0-.005,0-.006,0l-.094.278c-.1-.011-.2-.023-.3-.036,0,0,0,0,0,0s0,0,0,0c.081.07.162.139.243.207l-.092.276a0,0,0,0,0,0,0h0c.082-.049.163-.1.245-.153q.122.1.243.2h0s0,0,0,0h0l-.092-.293q.122-.08.243-.162s0,0,0,0,0,0,0,0C45.61,120.2,45.509,120.189,45.409,120.181Z" transform="translate(-42.324 -115.358)" fill="#fff"/>
          <path id="Path_29833" data-name="Path 29833" d="M67.885,120.23l-.093-.28s0,0-.006,0l-.092.294c-.1.007-.2.013-.3.017,0,0,0,0,0,0s0,0,0,0c.081.055.163.11.244.163l-.093.293a0,0,0,0,0,0,0h0l.244-.194.244.156h0s0,0,0,0h0l-.093-.277.244-.2s0,0,0,0,0,0,0,0Z" transform="translate(-63.093 -115.418)" fill="#fff"/>
          <path id="Path_29834" data-name="Path 29834" d="M90.357,117l-.094-.268s0,0-.006,0l-.092.3c-.1.02-.2.038-.3.056a0,0,0,0,0,0,0,.008.008,0,0,0,0,0l.244.132-.093.3a0,0,0,0,0,0,0s0,0,0,0l.243-.224.244.127h0a0,0,0,0,0,0,0h0l-.092-.266.243-.229s0,0,0,0,0,0,0,0Z" transform="translate(-83.855 -112.449)" fill="#fff"/>
          <path id="Path_29835" data-name="Path 29835" d="M112.831,111.563l-.094-.261s0,0-.005,0l-.093.312-.3.08,0,0s0,0,0,0l.243.112-.092.312a0,0,0,0,0,0,0h0l.244-.244.243.11h0s0,0,0,0h0l-.092-.26.243-.246s0,0,0,0,0,0,0,0Z" transform="translate(-104.621 -107.426)" fill="#fff"/>
          <path id="Path_29836" data-name="Path 29836" d="M22.867,134.915c-.031-.1-.061-.208-.092-.313,0,0-.005,0-.007,0l-.092.256c-.1-.033-.2-.067-.3-.1a0,0,0,0,0,0,0,0,0,0,0,0,0,0c.081.089.163.177.244.263l-.093.254a.007.007,0,0,0,0,0h0l.244-.1c.081.084.163.167.244.248h0a0,0,0,0,0,0,0v0l-.093-.311c.081-.036.163-.073.244-.111,0,0,0,0,0,0s0,0,0,0C23.068,134.973,22.968,134.945,22.867,134.915Z" transform="translate(-21.496 -128.954)" fill="#fff"/>
          <path id="Path_29837" data-name="Path 29837" d="M45.342,139.328l-.093-.295a0,0,0,0,0-.007,0c-.031.092-.061.184-.092.277-.1-.011-.2-.023-.3-.037h0a.006.006,0,0,0,0,0c.081.07.163.14.244.207l-.093.275s0,0,0,0a0,0,0,0,0,0,0c.081-.049.162-.1.243-.151.082.067.163.132.244.2h0a0,0,0,0,0,0,0h0l-.092-.292c.081-.052.162-.107.243-.162,0,0,0,0,0,0s0,0,0,0C45.542,139.343,45.442,139.335,45.342,139.328Z" transform="translate(-42.262 -133.05)" fill="#fff"/>
          <path id="Path_29838" data-name="Path 29838" d="M67.816,139.384l-.094-.278s0,0-.005,0l-.093.292c-.1.007-.2.013-.3.017,0,0,0,0,0,0s0,0,0,0l.243.163-.092.292s0,0,0,0h0l.243-.194.244.156h0a0,0,0,0,0,0,0h0c-.031-.093-.061-.186-.092-.278l.243-.2s0,0,0,0,0,0,0,0c-.1.011-.2.021-.3.03Z" transform="translate(-63.028 -133.116)" fill="#fff"/>
          <path id="Path_29839" data-name="Path 29839" d="M90.3,136.17,90.2,135.9s0,0-.006,0l-.093.3c-.1.019-.2.038-.3.055l0,0a.006.006,0,0,0,0,0l.243.132c-.031.1-.061.2-.092.3,0,0,0,0,0,0s0,0,0,0c.081-.075.163-.149.244-.225l.244.128h0s0,0,0,0h0l-.093-.266c.081-.076.163-.153.244-.23,0,0,0,0,0,0s0,0,0,0l-.3.064Z" transform="translate(-83.799 -130.157)" fill="#fff"/>
          <path id="Path_29840" data-name="Path 29840" d="M112.768,130.733l-.094-.26s-.005,0-.006,0c-.031.1-.061.207-.092.311l-.3.081,0,0a0,0,0,0,0,0,0l.244.112-.093.311s0,0,0,0h0l.243-.244.244.109h0a.006.006,0,0,0,0,0h0l-.094-.259.244-.246a.005.005,0,0,0,0,0s0,0,0,0Z" transform="translate(-104.563 -125.141)" fill="#fff"/>
        </g>
      </g>
    </g>
  </g>
</svg>
