<svg xmlns="http://www.w3.org/2000/svg" width="241.8" height="52.91" viewBox="0 0 241.8 52.91">
  <g id="Group_3033" data-name="Group 3033" transform="translate(-1307.09 -349.811)">
    <g id="Group_2862" data-name="Group 2862" transform="translate(-6411.18 -9542.46)">
      <path id="Path_30750" data-name="Path 30750" d="M32.725,6.271A26.455,26.455,0,1,1,6.27,32.726,26.506,26.506,0,0,1,32.725,6.271Zm0,4.77A21.685,21.685,0,1,1,11.041,32.726,21.727,21.727,0,0,1,32.725,11.041Z" transform="translate(7712 9886)" fill-rule="evenodd"/>
      <path id="Path_30751" data-name="Path 30751" d="M77.941,76.016H67.364V55.249h5.055V71.786h5.522Zm-12.6-13.323c0,3.786-2.52,5.848-6.127,5.848H58.47c-3.579,0-6.182-1.838-6.182-5.682V47.444h5.055V63.123q0,1.648,1.319,1.648h.275c1.126,0,1.346-1.076,1.346-1.978V47.444h5.055Zm-9.5,10.085a2.95,2.95,0,1,0,2.95-2.95A2.953,2.953,0,0,0,55.843,72.778Zm.556,0a2.4,2.4,0,1,1,2.394,2.5A2.449,2.449,0,0,1,56.4,72.778Zm1.315,1.45h.548V73.006h.447c.624,0,.641.278.649.548.017.489.009.556.11.674h.565c-.118-.16-.093-.244-.118-.7-.017-.295-.042-.632-.421-.708V72.8a.682.682,0,0,0,.5-.674.844.844,0,0,0-.969-.851H57.713v2.95Zm.548-2.545h.573c.354,0,.6.093.6.447,0,.211-.084.472-.539.472h-.632v-.919Z" transform="translate(7679.492 9856.916)" fill-rule="evenodd"/>
    </g>
    <path id="Path_31000" data-name="Path 31000" d="M2.543-10.042v6.207a3.651,3.651,0,0,0,.41,1.818A2.156,2.156,0,0,0,5-.923,2.409,2.409,0,0,0,7.355-2.105,3.765,3.765,0,0,0,7.69-3.835v-6.207H9.071V-4.4a6.525,6.525,0,0,1-.5,2.851A3.507,3.507,0,0,1,5.113.267,3.492,3.492,0,0,1,1.661-1.552a6.525,6.525,0,0,1-.5-2.851v-5.64Zm8.8,0h1.36V-1.2h5.086V0H11.345Zm7.469,5.51h3.432v1.265H18.814Zm10.47.417L27.759-8.552l-1.62,4.437Zm-2.235-5.927h1.538L32.23,0h-1.49L29.721-3.008H25.749L24.662,0H23.268ZM36.561-.827a1.755,1.755,0,0,0,1.432-.721,3.432,3.432,0,0,0,.571-2.157,4.026,4.026,0,0,0-.253-1.5,1.746,1.746,0,0,0-1.75-1.21,1.745,1.745,0,0,0-1.75,1.278A5.066,5.066,0,0,0,34.558-3.4a3.681,3.681,0,0,0,.253,1.442A1.745,1.745,0,0,0,36.561-.827Zm-3.186-6.46h1.2v.971a2.987,2.987,0,0,1,.807-.772,2.6,2.6,0,0,1,1.463-.41,2.751,2.751,0,0,1,2.112.954,3.907,3.907,0,0,1,.868,2.724A4.183,4.183,0,0,1,38.57-.4a2.826,2.826,0,0,1-1.846.649,2.505,2.505,0,0,1-1.388-.362,3.2,3.2,0,0,1-.731-.7V2.919h-1.23Zm11.14,6.46a1.755,1.755,0,0,0,1.432-.721,3.432,3.432,0,0,0,.571-2.157,4.026,4.026,0,0,0-.253-1.5,1.746,1.746,0,0,0-1.75-1.21,1.745,1.745,0,0,0-1.75,1.278A5.066,5.066,0,0,0,42.512-3.4a3.681,3.681,0,0,0,.253,1.442A1.745,1.745,0,0,0,44.515-.827Zm-3.186-6.46h1.2v.971a2.987,2.987,0,0,1,.807-.772A2.6,2.6,0,0,1,44.8-7.5a2.751,2.751,0,0,1,2.112.954,3.907,3.907,0,0,1,.868,2.724A4.183,4.183,0,0,1,46.525-.4a2.826,2.826,0,0,1-1.846.649,2.505,2.505,0,0,1-1.388-.362,3.2,3.2,0,0,1-.731-.7V2.919h-1.23Zm8.084-.034h1.169v1.265a2.794,2.794,0,0,1,.7-.9,1.826,1.826,0,0,1,1.292-.53q.034,0,.116.007l.28.027v1.3a1.838,1.838,0,0,0-.2-.027q-.092-.007-.2-.007a1.756,1.756,0,0,0-1.429.6,2.088,2.088,0,0,0-.5,1.377V0h-1.23Zm7.7,6.528a1.7,1.7,0,0,0,1.678-.926,4.615,4.615,0,0,0,.455-2.061,3.67,3.67,0,0,0-.328-1.668A1.846,1.846,0,0,0,57.128-6.46a1.766,1.766,0,0,0-1.641.861,3.992,3.992,0,0,0-.513,2.078,3.473,3.473,0,0,0,.513,1.948A1.806,1.806,0,0,0,57.114-.793Zm.048-6.74a3.315,3.315,0,0,1,2.393.943,3.684,3.684,0,0,1,.978,2.775,4.762,4.762,0,0,1-.861,2.926A3.116,3.116,0,0,1,57,.267,3.017,3.017,0,0,1,54.6-.755,4.037,4.037,0,0,1,53.71-3.5a4.367,4.367,0,0,1,.937-2.939A3.143,3.143,0,0,1,57.162-7.533Zm5.6.212L64.72-1.36l2.044-5.961h1.347L65.349,0H64.036l-2.7-7.321Zm9.615-.164a3.34,3.34,0,0,1,1.511.366,2.786,2.786,0,0,1,1.114.947A3.266,3.266,0,0,1,75.5-4.881a8.453,8.453,0,0,1,.109,1.613H70.241a3.131,3.131,0,0,0,.526,1.788,1.763,1.763,0,0,0,1.524.673,1.971,1.971,0,0,0,1.538-.636,2.143,2.143,0,0,0,.465-.854H75.5a2.548,2.548,0,0,1-.318.9,3.2,3.2,0,0,1-.6.81A2.867,2.867,0,0,1,73.194.15a4.216,4.216,0,0,1-1,.109,3.083,3.083,0,0,1-2.317-.995,3.87,3.87,0,0,1-.95-2.786,4.208,4.208,0,0,1,.957-2.864A3.157,3.157,0,0,1,72.38-7.485Zm1.962,3.24a3.188,3.188,0,0,0-.349-1.278A1.787,1.787,0,0,0,72.3-6.412a1.872,1.872,0,0,0-1.422.612,2.311,2.311,0,0,0-.608,1.555Zm3.723.67a3.629,3.629,0,0,0,.5,1.969,1.749,1.749,0,0,0,1.6.793,1.685,1.685,0,0,0,1.4-.735,3.471,3.471,0,0,0,.55-2.109,3.118,3.118,0,0,0-.567-2.054,1.77,1.77,0,0,0-1.4-.667,1.85,1.85,0,0,0-1.507.711A3.256,3.256,0,0,0,78.065-3.575Zm1.853-3.876a2.6,2.6,0,0,1,1.408.355,3.308,3.308,0,0,1,.745.718v-3.7h1.183V0H82.146V-1.019a2.662,2.662,0,0,1-1.019.978,2.915,2.915,0,0,1-1.347.3A2.727,2.727,0,0,1,77.661-.769a4.022,4.022,0,0,1-.9-2.738,4.726,4.726,0,0,1,.817-2.772A2.674,2.674,0,0,1,79.917-7.451Zm12.62-2.755a23.87,23.87,0,0,0-1.395,3.069,11.221,11.221,0,0,0-.485,3.459,11.275,11.275,0,0,0,.554,3.623,21.879,21.879,0,0,0,1.347,2.912h-.827q-1-1.559-1.237-1.989A9.24,9.24,0,0,1,89.974-.3a9.608,9.608,0,0,1-.533-2.16A9.057,9.057,0,0,1,89.366-3.6,9.583,9.583,0,0,1,90-7.2a20.735,20.735,0,0,1,1.682-3.008Zm3.23.164v6.207a3.651,3.651,0,0,0,.41,1.818A2.156,2.156,0,0,0,98.229-.923a2.409,2.409,0,0,0,2.352-1.183,3.765,3.765,0,0,0,.335-1.729v-6.207H102.3V-4.4a6.525,6.525,0,0,1-.5,2.851A3.507,3.507,0,0,1,98.338.267a3.492,3.492,0,0,1-3.452-1.818,6.525,6.525,0,0,1-.5-2.851v-5.64Zm8.8,0h1.36V-1.2h5.086V0H104.57Zm11.629,0h7.321v1.23h-6v3.049h5.544V-4.6h-5.544v3.4h6.1V0H116.2ZM126.238-2.5a1.706,1.706,0,0,0,.978,1.456,2.359,2.359,0,0,0,1.012.205,1.9,1.9,0,0,0,1.62-.7,2.5,2.5,0,0,0,.526-1.545,2.019,2.019,0,0,0-.625-1.586,2.171,2.171,0,0,0-1.5-.561,2.26,2.26,0,0,0-1.09.246,2.336,2.336,0,0,0-.776.684l-1.066-.062.745-5.271h5.086v1.189h-4.163l-.417,2.721a3.057,3.057,0,0,1,.649-.39,3.3,3.3,0,0,1,1.265-.226,3.236,3.236,0,0,1,2.283.868,2.871,2.871,0,0,1,.937,2.2,3.777,3.777,0,0,1-.858,2.447A3.318,3.318,0,0,1,128.1.246a3.487,3.487,0,0,1-2.116-.673A2.671,2.671,0,0,1,124.96-2.5ZM133.8-6.932v-.943a5.013,5.013,0,0,0,1.859-.434,2.139,2.139,0,0,0,.786-1.439h.971V0h-1.312V-6.932Zm10.4-2.857a2.892,2.892,0,0,1,2.748,1.565,7,7,0,0,1,.656,3.315,7.984,7.984,0,0,1-.595,3.3A2.912,2.912,0,0,1,144.2.267a2.82,2.82,0,0,1-2.625-1.531,7.011,7.011,0,0,1-.718-3.432,8.479,8.479,0,0,1,.431-2.864A2.947,2.947,0,0,1,144.2-9.789ZM144.19-.854a1.751,1.751,0,0,0,1.524-.848,6.137,6.137,0,0,0,.567-3.158,7.8,7.8,0,0,0-.41-2.745,1.561,1.561,0,0,0-1.593-1.077A1.665,1.665,0,0,0,142.69-7.66a7.057,7.057,0,0,0-.5,3.011,7.4,7.4,0,0,0,.321,2.406A1.751,1.751,0,0,0,144.19-.854Zm5.521-6.077v-.943a5.013,5.013,0,0,0,1.859-.434,2.139,2.139,0,0,0,.786-1.439h.971V0h-1.312V-6.932Zm10.709-2.9a2.7,2.7,0,0,1,2.287.851,2.871,2.871,0,0,1,.646,1.753h-1.217a2.244,2.244,0,0,0-.349-.909,1.551,1.551,0,0,0-1.347-.615A1.864,1.864,0,0,0,158.8-7.8a5.5,5.5,0,0,0-.677,2.731A2.675,2.675,0,0,1,159.189-6a3.075,3.075,0,0,1,1.313-.273,3.193,3.193,0,0,1,2.146.786,2.92,2.92,0,0,1,.916,2.345A3.557,3.557,0,0,1,162.7-.776,3.058,3.058,0,0,1,160.221.253,3.174,3.174,0,0,1,157.849-.79a5,5,0,0,1-1-3.51,9.447,9.447,0,0,1,.444-3.1A3.155,3.155,0,0,1,160.42-9.83Zm-.089,8.989a1.689,1.689,0,0,0,1.453-.653,2.524,2.524,0,0,0,.482-1.542,2.635,2.635,0,0,0-.431-1.432,1.707,1.707,0,0,0-1.565-.68,2.041,2.041,0,0,0-1.391.526,2,2,0,0,0-.6,1.586,2.313,2.313,0,0,0,.543,1.562A1.882,1.882,0,0,0,160.331-.841Zm5.288-6.091v-.943a5.013,5.013,0,0,0,1.859-.434,2.139,2.139,0,0,0,.786-1.439h.971V0h-1.312V-6.932Zm7.1,9.789a24.134,24.134,0,0,0,1.4-3.09,11.154,11.154,0,0,0,.479-3.445,11.252,11.252,0,0,0-.554-3.616,21.878,21.878,0,0,0-1.347-2.912h.827q1.053,1.682,1.275,2.075a8.02,8.02,0,0,1,.482,1.083,8.757,8.757,0,0,1,.468,1.688,9.7,9.7,0,0,1,.14,1.606,9.545,9.545,0,0,1-.643,3.609,19.823,19.823,0,0,1-1.675,3Z" transform="translate(1373 384.949)"/>
  </g>
</svg>
