<svg xmlns="http://www.w3.org/2000/svg" width="165.037" height="58.639" viewBox="0 0 165.037 58.639">
  <path id="path2" d="M164.839,23.955C142.724,9.2,113.876.256,82.321.256S21.917,9.2-.2,23.955c21.994-7.306,47.707-11.85,82.518-11.85s60.524,4.544,82.518,11.85M69.668,31.629c-1.623,0-2.454,1.309-2.674,2.927-.237,1.771-1.166,7.933-1.375,9.5-.127.941-.193,1.92-1.1,2.322s-2.019-.215-2.96-1.018l-14.908-12.7a4.208,4.208,0,0,0-2.778-1.029c-2.107,0-4.142,1.309-4.142,4.511V55.967a2.4,2.4,0,0,0,2.4,2.542A2.519,2.519,0,0,0,44.7,56.159s1.535-9.451,1.722-10.513c.22-1.221.413-2.184,1.6-2.547,1.073-.336,2.085.286,3.592,1.606C53.1,46,65.674,57.364,65.674,57.364A4.037,4.037,0,0,0,68.705,58.5c1.232,0,3.482-.5,3.482-4.285V34.462a2.541,2.541,0,0,0-2.52-2.833m89.989,21.136c-10.964,2.355-23.5-.165-23.5-7.922,0-5.853,5.435-8.241,9.715-8.582,4.489-.358,8,.583,9.814,2.459,1.128,1.172.809,2.767-1.4,2.9-2.041.127-5.875.242-9.061.363-1.815.066-2.778,1.04-2.778,2.344,0,1.029.781,2.211,2.861,2.222l14.32.072c2.487.006,3.708-1.386,3.708-4.241,0-4.527-4.1-11.393-16.1-11.393-10.876,0-18.748,5.419-18.748,14.27,0,12.554,18.484,16.394,32.017,11.718,1.287-.44,2.454-1.359,2.085-2.795-.33-1.265-1.37-1.749-2.927-1.414m-127.172,0C21.521,55.119,8.978,52.6,8.978,44.843c0-5.853,5.435-8.241,9.715-8.582,4.5-.358,8.01.583,9.814,2.459,1.133,1.172.814,2.767-1.4,2.9-2.041.127-5.87.242-9.061.363-1.8.066-2.778,1.04-2.778,2.344,0,1.029.781,2.211,2.861,2.222l14.331.072c2.476.006,3.7-1.386,3.7-4.241,0-4.527-4.1-11.393-16.108-11.393-10.87,0-18.737,5.419-18.737,14.27,0,12.554,18.484,16.394,32.017,11.718,1.282-.44,2.443-1.359,2.074-2.795-.33-1.265-1.364-1.749-2.921-1.414m84.9-12.07c.242,6.844.891,12.521,1.067,14.507.237,2.569,1.562,3.306,2.894,3.306,1.276,0,2.635-.677,2.866-3.284.2-2.189.853-8.967,1.166-15.667a.4.4,0,0,0-.506-.44l-7.135,1.155a.416.416,0,0,0-.352.424m3.983-9.715a3.945,3.945,0,0,0-4.192,4.142c0,.3.039,1.1.088,2.107a.428.428,0,0,0,.484.407l7.443-1.21a.418.418,0,0,0,.363-.413c.022-.347.033-.71.039-.88a4.005,4.005,0,0,0-4.23-4.153M110.421,41.9c-2.481,0-10.139.055-15.046.077-2.377,0-2.971,1.282-2.971,2.338,0,.919.638,2.112,2.861,2.222,3.378.176,7.68.385,9.666.479,2.668.138,2.707,1.507,1.8,2.7-1.815,2.355-6.233,3.906-10.815,3.906-5.985,0-12.576-3.411-12.576-8.807,0-5.061,5.644-10.645,22.4-8.3,1.469.22,2.916-.055,3.284-1.414.385-1.447-.55-2.382-2.459-2.883A40.39,40.39,0,0,0,96,30.98c-11.278,0-20.322,5.386-20.322,14.083,0,9.286,9.006,13.83,20.245,13.83,12.537,0,18.649-6.827,18.649-12.8,0-3.037-1.551-4.2-4.148-4.2" transform="translate(0.198 -0.256)" fill="#fff"/>
</svg>
