<svg xmlns="http://www.w3.org/2000/svg" width="196.472" height="39.294" viewBox="0 0 196.472 39.294">
  <path id="_16359-11" data-name="16359-11" d="M136.3,0c-13.093,0-21,9.234-21,19.333s7.918,19.962,21,19.962,21-9.863,21-19.962S149.4,0,136.3,0Zm0,34c-8.828,0-13.7-7.454-13.7-14.663s4.873-14.052,13.7-14.052,13.7,6.833,13.7,14.05S145.14,34,136.3,34ZM105.592,19.229c1.8,0,4.859-2.817,4.859-7.8C110.451,5,106.881.589,97.083.589H76.363v38.1h20.72c8.5,0,15.183-2.927,15.183-11.134.006-5.281-4.093-8.325-6.674-8.325ZM82.738,6.452H97.091c4.468,0,6.68,1.232,6.68,4.983s-2.212,4.873-6.68,4.873H82.738ZM97.091,32.828H82.738V22.16H97.091c4.468,0,8.5,1.35,8.5,5.393S101.559,32.828,97.091,32.828ZM76.369.591l-33.2,38.1H36.534V6.454H6.348v9.965H27.365V22.28H6.348V32.83H31.964v5.861H0V.593H42.874V29.921L68.439.589h7.93Zm120.1,38.1h-7.932L175.9,24.192l-12.639,14.5h-7.937l16.608-19.05L155.331.591h7.947L175.9,15.081,188.527.591h7.945l-16.6,19.042,16.6,19.056Z" fill="#fff"/>
</svg>
