<svg id="Group_2896" data-name="Group 2896" xmlns="http://www.w3.org/2000/svg" width="222.689" height="35.302" viewBox="0 0 222.689 35.302">
  <path id="path2633" d="M111.131,35.114c0,1.9.931,2.7,2.716,2.7h19.405v3.511H112.53c-7.492,0-11.118-2.558-11.118-7.944V12.932h9.719V35.114" transform="translate(89.436 -11.041)" fill="#fff"/>
  <path id="path2635" d="M108.961,13.268v-1.2c-10.156,0-17.1,4.6-24.264,11.281-3.211-2.81-5.682-4.963-6.341-5.536-3.376-2.926-3.733-3.854-8.509-3.854h-8.07c8.1,7.1,13.56,11.888,17.347,15.209C72.18,36.1,62.957,46.763,53.487,46.264v1c8.482.8,17.787-2.83,29.452-14.74,4.364,3.815,5.105,4.436,6.78,5.8,4.611,3.741,3.87,4.029,9.113,4.029h7.713L88.292,26.484c5.49-6.176,12.736-13.216,20.669-13.216" transform="translate(32.124 -12.071)" fill="#fff"/>
  <path id="path2637" d="M45.854,25.148c.192-7.721,2.278-9.16,7-9.16h5.929c4.721,0,6.807,1.438,7,9.16Zm30.029,3.233c.027-.42.027-.854.027-1.3,0-12.1-8.646-14.457-19.79-14.457h-.851c-8.866,0-19.543,2.358-19.543,14.457,0,12.308,8.866,14.608,14.575,14.608H73.384V38.222H52.853c-6.231,0-6.917-2.4-7-9.846l30.029.006" transform="translate(10.883 -11.408)" fill="#fff"/>
  <path id="path2639" d="M89.741,25.148c.22-7.721,2.278-9.16,7-9.16h5.929c4.721,0,6.807,1.438,7,9.16Zm30.029,3.233c.027-.42.027-.854.027-1.3,0-12.1-8.646-14.457-19.763-14.457h-.878c-8.838,0-19.543,2.358-19.543,14.457,0,12.308,8.866,14.608,14.575,14.608h23.084V38.222H96.74c-6.231,0-6.917-2.4-7-9.846l30.029.006" transform="translate(63.367 -11.408)" fill="#fff"/>
  <path id="path2641" d="M46.2,29.313c4.035-1.219,6.4-3.953,6.4-8.391,0-6.47-5.49-7.99-11.391-7.99H14.5V41.324h9.772V30.487l12.05.005c4.2,0,6.862.332,6.862,10.834H53.01C53.01,34.728,50.238,31.193,46.2,29.313ZM24.272,16.047H38.984c5.105,0,4.584,11.155-.769,11.155H24.272V16.047" transform="translate(-14.5 -11.043)" fill="#fff"/>
</svg>
