<svg xmlns="http://www.w3.org/2000/svg" width="237.557" height="70.131" viewBox="0 0 237.557 70.131">
  <g id="Group_2895" data-name="Group 2895" transform="translate(0)">
    <path id="Path_30871" data-name="Path 30871" d="M18.079,107.258A25.288,25.288,0,0,1,17,103.665c-.4-2.691,1-4.463,2.3-4.869,1.45-.4,2.016.324,2.577,2.016.726,2.577.806,5.955.562,10.789-.317,6.6-3.621,14.58-11.835,14.415C3.506,125.861.369,121.269.043,114.263a32.18,32.18,0,0,1,1.45-11.274c.726-2.5,1.373-3.39,3.624-3.869,1.77-.324,1.61,1.527,1.21,3.709A42.9,42.9,0,0,0,5.36,115.47c.316,5.8,2.979,8.056,5.879,8.056,4.349.084,6.281-3.54,7.09-8.781C18.967,110.558,18.486,108.544,18.079,107.258Zm92.737,5.72c1.694,0,2.179,2,1.775,3.217a5.165,5.165,0,0,1-4.105,2.982C108,117.965,107.756,112.977,110.815,112.977Zm-31.484,2.73c0-1.364-.729-2.492-1.608-2.492-.733,0-2.418.8-2.418,3.381a5,5,0,0,0,1.047,3.389A4.179,4.179,0,0,0,79.331,115.707ZM54.279,99.28a2.364,2.364,0,0,0-2.5-2.171,3.2,3.2,0,0,0-2.815,3.619,2.361,2.361,0,0,0,2.419,2.421C53.152,103.15,54.44,101.136,54.279,99.28Zm13.1,4.731c-.14-2.252-.685-3.269-1.895-3.185-1.6.1-2.345,5.143-2.017,10.448.209,3.461.724,3.995,1.2,3.961C65.556,115.18,67.685,109,67.377,104.011Zm53.427,8.478c-1,4.141-4.025,10.232-8.54,10.232-1.045,0-2.9-.406-2.9-1.452,0-1.129,7.093-1.284,7.093-6.684,0-2.011-1.852-4.834-4.592-4.834-3.624,0-7.159,3.95-7.159,9.426,0,4.909,3.05,6.521,6.11,6.521,5.318,0,8.54-4.352,10.23-7.973.809,2.417,1.284,7.973,3.305,7.973.8,0,1.37-.4,2.337-2.575,2.41-5.4,4.749-11.6,7.972-11.6,1.2,0,.483,2.179,3.381,2.179a2.353,2.353,0,0,0,2.329-2.422c0-1.854-1.689-3.3-4.263-3.3-7.573,0-9.178,11.357-10.388,11.357-2.015,0-1.37-9.1-2.823-9.1C121.609,110.234,120.976,111.77,120.8,112.489Zm-64.429,9.663a5.647,5.647,0,0,0,4.917-3.008A30.033,30.033,0,0,1,59.6,111.35c-.48-7.808,2.528-15.152,5.82-15.356,2.414-.146,4.346,2.139,4.567,5.841.594,9.729-2.646,13.79-4.269,17.293a5.762,5.762,0,0,0,4.753,3.671,3.121,3.121,0,0,0,2.017-.729,7.986,7.986,0,0,1-.326-2.335c0-5.637,3.625-10.391,6.768-10.391,2.5,0,3.946,3.3,3.946,5.481,0,2.573-2.177,4.672-5.4,6.685a3.86,3.86,0,0,0,2.5.967c4.595,0,7-5.559,8.779-10.635.321-.968.889-2.335,2.014-2.335,1.933,0,2.742,12.726,5.955,12.726,1.374,0,2.5-2.821,2.5-4.99,0-1.613-.564-1.775-.564-4.111,0-2.575,1.37-4.747,3.227-4.747,1.126,0,1.533,1.122,1.533,2.489,0,5.156-3.71,14.742-9.179,14.742-4.115,0-3.794-7.089-5.242-7.089-1.618,0-3.873,7.168-11.839,7.168a5.112,5.112,0,0,1-3.786-1.935,9.265,9.265,0,0,1-5.4,1.856c-2.977,0-4.269-3.061-5.473-3.061-1.452,0-3.059,3.141-7.9,3.141-3.865,0-4.51-5.149-5.876-5.149-1.211,0-3.063,5.149-5.075,5.149-3.388,0-4.105-8.938-7.091-8.938-2.335,0-9.714,9.077-11.717,8.87-.805-.084-1.144-.685-1.06-1.492a56.839,56.839,0,0,1,1.462-5.508c.651-2.449,1.249-5.134,1.583-5.99a2.139,2.139,0,0,1,1.943-1.413c.361.034.47.709.582,1.266.407,1.991.975,4.022,1.616,4.022,1.131,0,4.868-7.169,7.042-7.169,2.662,0,2.981,11.279,6.6,11.279,1.211,0,2.1-1.447,2.9-3.225.082-2.984.887-7.244,3.3-7.244,1.693,0,2.5,3.782,1.287,7.089,0,3.944,2.572,4.911,4.267,4.911" transform="translate(97.186 -75.938)" fill="#fff"/>
    <g id="Group_2894" data-name="Group 2894" transform="translate(0)">
      <path id="Path_30872" data-name="Path 30872" d="M85.732,18.518a1.13,1.13,0,0,1-1.173-.572c-.235-.469-.156-1.226-.6-1.564a4.54,4.54,0,0,0,1.276.13c1.174,0,2.3-.807,3.157-.807a.675.675,0,0,1,.75.729C89.144,17.58,86.829,18.518,85.732,18.518Zm.573,2.944c2.707,0,5.186-2.162,5.186-4.064A1.588,1.588,0,0,0,90,15.652a1.146,1.146,0,0,1,.26.834c0,1.434-2.184,3.023-4.558,3.023a1,1,0,0,0-1.122.911C84.585,21.15,85.29,21.462,86.305,21.462ZM86.1,22.557c.34,2.474,4.089,5.81,5.105,5.731.679-.057.94-3.231.94-5.731,0-1.433.079-2.554-.678-2.815-1.2,2.424-4.349,2.919-5.367,2.815" transform="translate(-24.745 -3.2)" fill="#fff"/>
      <path id="Path_30873" data-name="Path 30873" d="M12.371,43.4c.885,0,.7-5.42,2.135-5.42.34,0,.444.339.444.756,0,1.224-.6,3.023-.6,4.012,0,.5.13.652.365.652.626,0,1.72-5.967,2.788-5.967.339,0,.495.339.495.678,0,1.251-1.588,4.846-1.588,5.862,0,.157.051.286.182.286.652,0,1.954-2.813,2.37-4.22.235-.73.547-1.122.835-1.122.26,0,.5.287.5.887,0,1.407-1.3,4.715-2.45,6.931-.885,1.719-2.266,4.193-2.266,5.574a2.763,2.763,0,0,0,1.145,2.319c-1.667-.1-2.344-.26-2.969-1.562-2.788,5.549,5.132,5,2.422,9.924-.5-.884-4.4-1.8-4.4-6.955,0-4.455,3.907-7.06,3.907-8.909a1.189,1.189,0,0,0-.468-.963c-.861-.731-.887-1.329-1.564-1.329-.494,0-1.1,1.146-.469,2.161.209.339.391.547.391.86,0,.729-1.147,2.682-1.954,2.682s-1.432-2-1.432-5.235c0-2.867.65-5.757,1.458-5.757.234,0,.312.156.312.365,0,.339-.1,1.015-.1,2.161,0,1.224.286,1.329.521,1.329" transform="translate(-9.661 -7.653)" fill="#fff"/>
      <path id="Path_30874" data-name="Path 30874" d="M20.92,51.27c1.1,0,2.006-.809,2.006-2.6V46.008a4.557,4.557,0,0,1,.757-2.971A4.661,4.661,0,0,0,23.6,44.08c0,2.241,1.25,3.779,1.25,5.94,0,.807-.235,1.251-.858,1.251-.6,0-.547-.547-.679-.547-.1,0-.26.338-.26.7a1.408,1.408,0,0,0,1.484,1.407,1.787,1.787,0,0,0,1.693-1.823c0-2.343-1.823-4.95-1.823-7.45a5.856,5.856,0,0,1,.521-2.4c0,5.185,4.4,8.963,4.4,11.124a.87.87,0,0,1-.912.887.851.851,0,0,1-.886-.835c0-.182-.026-.234-.1-.234a1.335,1.335,0,0,0-.625,1.2,1.95,1.95,0,0,0,2.006,1.9,2.308,2.308,0,0,0,2.292-2.372c0-2.734-5.341-6.878-5.341-11.306a6.117,6.117,0,0,1,.678-2.918,8.957,8.957,0,0,0-4.507,7.737c0,2.241-.078,3.36-1.224,3.36-.6,0-.756-.546-.965-.546-.156,0-.235.469-.235.6A1.429,1.429,0,0,0,20.92,51.27" transform="translate(-11.568 -7.894)" fill="#fff"/>
      <path id="Path_30875" data-name="Path 30875" d="M70.857,17.4c.331-.222,1.8.13,3.7-.809a1.413,1.413,0,0,1,.677-.181c.913,0,.679,1.041,1.513,1.041.65,0,1.486-.547,1.982-.547.776,0,1.9,2.449,1.9,3.6,0,1.329-2,2.137-4.375,2.137a5.563,5.563,0,0,1-5.55-4.977A.277.277,0,0,1,70.857,17.4Zm5.68,3.309c1.147,0,2.007-.521,2.007-.835,0-.1-.156-.181-.5-.181a14.251,14.251,0,0,1-2.294-.235c-1.1-.182-1.93-.6-2.243-.6-.1,0-.157.052-.157.13,0,.679,1.252,1.72,3.182,1.72" transform="translate(-22.034 -3.354)" fill="#fff"/>
      <path id="Path_30876" data-name="Path 30876" d="M21.4,66.635a3.792,3.792,0,0,0-2.241,3.7c0,2.551,2.736,6.487,7.243,6.487,3.8,0,4.741-2.632,4.741-4.4,0-3.933-2.422-6.7-5.574-6.7a3.143,3.143,0,0,0-3.258,3.1,4.313,4.313,0,0,0,4.4,4.3,2.2,2.2,0,0,0,2.318-2.239A2.882,2.882,0,0,0,26.4,68.1a.763.763,0,0,0-.807.807c0,.624.858,1.251,1.928,1.251a1.4,1.4,0,0,0,.574-.105.64.64,0,0,1,.078.313c0,.6-.574.965-1.459.965A2.55,2.55,0,0,1,24.1,68.771c0-.936.808-1.613,1.98-1.613a3.874,3.874,0,0,1,3.7,4.117c0,1.848-1.014,2.918-3.1,2.918-4.169,0-6.2-3.753-5.288-7.558" transform="translate(-11.495 -13.437)" fill="#fff"/>
      <path id="Path_30877" data-name="Path 30877" d="M53.317,83.561a12.267,12.267,0,0,0,1.576-.1c.39,0,.417.235.417.391,0,.574-1.278,1.277-3.544,1.277a2.3,2.3,0,0,1-2.371-1.485,10.269,10.269,0,0,1-5.236,1.589c-5.34,0-6.695-2.321-8.363-3.074-1.277-.574-3.231.547-5.967-2.5a6.535,6.535,0,0,0,1.251.1c2.4,0,3.672-1.17,3.672-3.048a6.741,6.741,0,0,0-.053-.727,5.171,5.171,0,0,1,2.79,3.749c.051.261,1.119.495,1.8.495A2.12,2.12,0,0,0,41.605,78.3c3.127-.26,5.238-2.109,5.681-4.457a6.179,6.179,0,0,1,2.708,1.9,4.707,4.707,0,0,1,1.562-.235,10.019,10.019,0,0,1,2.892.5c.053-.339.1-.756.626-.756.781,0,.573.86.834,1.352.13.261.783.417.783.939a.669.669,0,0,1-.679.679,1.152,1.152,0,0,1-.313-.052c-.52.182-.547,3.932-2.735,3.932a4.388,4.388,0,0,1-3.752-2.994,1.116,1.116,0,0,0-.938-.808c-.416,0-.651.079-1.145.626a9.058,9.058,0,0,1-6.644,2.864c-.886,0-1.59-.08-1.772-.08-.105,0-.105.026-.105.052,0,.183.885.887,2.814.887,4.586,0,5.706-2.58,6.435-2.58a.6.6,0,0,1,.6.418A5.119,5.119,0,0,0,53.317,83.561ZM51.3,78.354A1.043,1.043,0,1,0,52.34,77.31,1.046,1.046,0,0,0,51.3,78.354" transform="translate(-13.678 -15.098)" fill="#fff"/>
      <path id="Path_30878" data-name="Path 30878" d="M80.387,62.887c-.365,0-.756.287-.756.992a1.649,1.649,0,0,0,.938,1.43,1.6,1.6,0,0,0,.754.21c.757,0,1.357-.21,1.357-.836C82.68,63.88,81.506,62.887,80.387,62.887ZM77.576,64.5c-.547,0-3.574,4.038-5.524,4.038-.469,0-.86-.885-.86-1.56,0-.365.234-.626,1.07-.81,4.48-1.016,3.488-4.378,7.315-4.378a4.373,4.373,0,0,1,4.458,4.664c0,3.439-4.9,7.71-5.625,7.71-.6,0-1.251-.859-1.251-1.432,0-.182.079-.417.6-.625,2.5-.991,3.929-3.283,3.929-4.457a.462.462,0,0,0-.469-.519c-.442,0-2.339,4.323-4.452,4.323-1.461,0-2.948-1.325-2.948-1.952,0-1.044,4.225-2.97,4.225-4.43,0-.548-.261-.573-.469-.573" transform="translate(-22.135 -12.633)" fill="#fff"/>
      <path id="Path_30879" data-name="Path 30879" d="M13.408,20.922a3.126,3.126,0,0,1-1.693.572A1.958,1.958,0,0,1,9.71,19.489a2.2,2.2,0,0,1,1.38-2.059,2.589,2.589,0,0,0-.025.443A3.032,3.032,0,0,0,13.408,20.922Zm5.575,5a4.948,4.948,0,0,0-1.173,3A2.341,2.341,0,0,0,20,31.5a1.971,1.971,0,0,0,1.876-2.213A3.848,3.848,0,0,0,18.984,25.924Zm-8.648,1.041a.51.51,0,0,0,.415.782c.208,0,.339-.052.443-.052.625,0,1.329.442,2.344.442a4.972,4.972,0,0,0,2.188-.625,5.437,5.437,0,0,0,2.606-3.648c0-.5-.4-.43-.73-.886s-.205-.856-.417-1.068c-.12-.122-.494-.13-.964-.182-.157-.017-.365-.026-.574-.026a5.283,5.283,0,0,0-3.021.835C10.366,23.979,10.7,26.367,10.335,26.966Zm6.122-3.231c.181.246.679.548.679.73,0,.364-.21.834-.626.834-.912,0-1.641-1.381-1.641-2.164,0-.494.287-.546.677-.546a.628.628,0,0,1,.391.1C16.17,22.824,16.17,23.345,16.457,23.735Zm-2.4,3.179a2.151,2.151,0,0,1-1.8-2.033c0-.52.391-1.173.677-1.173.1,0,.157.079.182.262a2.963,2.963,0,0,0,1.772,2.37c.078.052.13.078.13.13C15.024,26.653,14.529,26.914,14.059,26.914Zm2.216-6.566a5.133,5.133,0,0,0,.234-1.512c0-1.25-.574-3.152-2.345-3.152a1.736,1.736,0,0,0-1.746,1.772C12.417,19.516,14.476,20.348,16.275,20.348ZM9.527,30.769c0,1.979.6,2.918,1.667,2.918a5.835,5.835,0,0,0,3.282-1.746,11.548,11.548,0,0,1-2.5.391A2.739,2.739,0,0,1,9.527,30.769Zm.912-2.319a2.023,2.023,0,0,0-.025.391c0,1.224.65,1.9,1.51,1.9a2.8,2.8,0,0,0,2.082-1.251,5.483,5.483,0,0,1-.937.078A3.12,3.12,0,0,1,10.439,28.45Zm6.383-.364a2.477,2.477,0,0,0-1.85,2.188,1.534,1.534,0,0,0,1.641,1.538,1.7,1.7,0,0,0,1.016-.261,3.035,3.035,0,0,1-.99-2.266A3.482,3.482,0,0,1,16.822,28.086Zm.937-7.138A1.042,1.042,0,1,0,18.8,19.9,1.046,1.046,0,0,0,17.759,20.948Zm1.354,2.344a1.043,1.043,0,1,0,1.045-1.041,1.047,1.047,0,0,0-1.045,1.041" transform="translate(-9.527 -3.207)" fill="#fff"/>
      <path id="Path_30880" data-name="Path 30880" d="M70.09,38.012a1,1,0,0,1,2,0,1,1,0,1,1-2,0Zm-9.147-8.024a1.043,1.043,0,1,0,1.041-1.041A1.046,1.046,0,0,0,60.943,29.988Zm-.885,3.673a1.485,1.485,0,1,0,1.484-1.485A1.5,1.5,0,0,0,60.058,33.661Zm3.283-1.667A1.588,1.588,0,1,0,64.926,30.4,1.578,1.578,0,0,0,63.341,31.993Zm.131-3.387a.988.988,0,1,0,.985-.989A.99.99,0,0,0,63.472,28.607Zm4.714-2.5a.991.991,0,1,0,.991-.991A.99.99,0,0,0,68.186,26.107Zm-1.955,3.2A1.669,1.669,0,1,0,67.9,27.644,1.679,1.679,0,0,0,66.231,29.312Zm-2.681,6.1a1.041,1.041,0,1,0,1.038-1.042A1.044,1.044,0,0,0,63.55,35.407Zm3.411-2.085A1.043,1.043,0,1,0,68,32.281,1.046,1.046,0,0,0,66.961,33.322ZM66,37a1.8,1.8,0,1,0,1.8-1.8A1.8,1.8,0,0,0,66,37ZM69.75,34.78a1.223,1.223,0,1,0,1.221-1.224A1.223,1.223,0,0,0,69.75,34.78ZM69.672,31.5A1.093,1.093,0,1,0,70.761,30.4,1.1,1.1,0,0,0,69.672,31.5" transform="translate(-19.858 -5.135)" fill="#fff"/>
      <path id="Path_30881" data-name="Path 30881" d="M73.063,75.376a7.674,7.674,0,0,1-4.9,1.692,6.431,6.431,0,0,1-2.242-.443c-.261,0-.547.26-.835.6a5.878,5.878,0,0,0-1.428,3.569,2.135,2.135,0,0,0,2.314,2.082c4.877,0,8.521-3.047,8.521-5.52C74.5,75.95,73.664,75.376,73.063,75.376Zm-1.355-.286a.953.953,0,0,0,.26-.757v-.6c0-.757-1.142-1.2-2.706-1.2-1.9,0-2.92.858-2.92,1.224v1.2c0,.5,1.148.991,2.556.991A4.348,4.348,0,0,0,71.708,75.09Zm-.21,2.579c.131,0,.286.077.286.547a2.283,2.283,0,0,1-1.193,1.925,5,5,0,0,1-2.842.833,6.126,6.126,0,0,0,.365-1.9,5.025,5.025,0,0,0-.052-.6H68.4a5.874,5.874,0,0,0,3.1-.807" transform="translate(-20.595 -14.831)" fill="#fff"/>
      <path id="Path_30882" data-name="Path 30882" d="M60.571,38.97c.286,2.213,3.259,1.093,3.259,3.776,0,.391-.1.966-.1,1.46,0,.574.051,1.068.49,1.068s.547-.312.547-.73-.105-.938-.105-1.224A1.009,1.009,0,0,1,65.7,42.2c.99,0,1.746,1.016,3.233,1.016-.34,1.667-3.781,1.224-3.781,3.049,0,.912.913,1.119,1.512,1.119.547,0,.73-.078.73-.546,0-.262-.053-.548-.053-.73a.206.206,0,0,1,.209-.209c.575,0,3.383,2.137,3.383,2.789,0,.6-2.967,1.2-3.827,1.2A.278.278,0,0,1,66.8,49.6c0-.182.443-.73.443-1.041,0-.235-.391-.391-1.434-.391-.5,0-.861.053-.861.444,0,.7,1.147,1.562,1.147,2.212,0,.522-.313.835-1.147.835-.7,0-1.768-.548-1.768-1.459,0-.73.752-1.457.752-1.9a.362.362,0,0,0-.412-.339c-.966,0-1.226,2.552-4.64,2.839a2.616,2.616,0,0,0,1.015-2.161c0-.547-.129-.991-.129-1.59,0-.782.364-1.173.885-1.173.963,0,1.433,1.354,2.06,1.354a.753.753,0,0,0,.7-.78c0-1.98-3.805-1.694-3.805-4.481A6.47,6.47,0,0,1,60.571,38.97ZM73,46.6c0,.65.21,1.406.862,1.406.547,0,1.016-.832,1.016-1.745,0-1.042-.182-1.85-.182-2.268,0-.181.079-.259.182-.259.391.026.756,1.094,1.174,1.094.469,0,1.169-.861,1.454-.861.079,0,.1.105.1.13,0,.391-.6,1.252-.6,1.59,0,.286,1.512.338,1.512.6,0,.391-1.586.391-2.34.73-.73.312-1.175.7-1.175,1.224s.522.625,1.252.625c1.741,0,2.966-.937,3.356-.937a.122.122,0,0,1,.13.13c0,.261-.885,1.12-.885,1.512,0,.442,1.617.962,1.59,1.224-.025.078-.13.1-.313.1-.288,0-.73-.078-1.07-.078a.6.6,0,0,0-.47.13c-.181.209.053,1.59-.31,1.59-.34,0-1.226-3.074-3.228-3.074-.287,0-.5.235-.5.625a3.923,3.923,0,0,0,1.982,2.813c.437.287,1.168.574,1.168.731,0,.311-1.663.025-1.663.546,0,.469.208,1.174.208,1.59,0,.13-.026.286-.182.286-.313,0-1.07-1.432-1.434-1.432-.313,0-.99.859-1.278.859a.145.145,0,0,1-.13-.155c0-.6.965-1.954.965-3.283,0-.625-.079-1.98-.835-1.98-.625,0-1.33.99-1.643,1.98-.181.573-.052,2.788-.469,2.788-.391,0-.286-1.484-.809-1.484-.384,0-1.219.7-1.506.7-.053,0-.105-.026-.105-.078,0-.312.757-1.329.757-1.537,0-.391-1.721-.442-1.721-.755,0-.183.678-.313,1.3-.418,1.325-.235,3.28-1.2,3.28-2.552,0-1.511-1.46-2.163-2.419-2.788-.5-.313-1.043-.572-1.043-.78s.625-.209.886-.209c.391,0,.777-.026.777-.338,0-.235-.053-.7-.053-1.068,0-.261.025-.469.131-.469.391,0,.938,1.276,1.2,1.276.416,0,.99-1.042,1.382-1.042.129,0,.182.079.182.313,0,.964-.495,2.058-.495,3" transform="translate(-19.616 -7.968)" fill="#fff"/>
      <path id="Path_30883" data-name="Path 30883" d="M59.9,57.132c1.2.157,1.487.573,1.487.912,0,.574-.522.755-1.018.755-.364,0-.781-.078-1.224-.078a1.972,1.972,0,0,0-1.615.678.891.891,0,0,1,.834.809c0,1.511-4.194.259-4.194,4.142,0,2.057,2.137,4.3,5.366,4.3,1.67,0,2.738-.547,2.738-1.174,0-.494-.885-.157-.885-.574,0-.182.313-.522.313-.81,0-.126-.1-.362-.313-.362a10.437,10.437,0,0,1-3.155.753c-1.407,0-2.788-.805-2.788-1.9,0-.234.105-.365.261-.365s.364.105.547.105c.157,0,.182-.105.182-.391s0-1.1.494-1.1,1.434,1.824,5.032,1.824c1.194,0,3.515-.233,4.376-1.016a6.773,6.773,0,0,1-6.957,6.644,7.352,7.352,0,0,1-7.477-7.5,7.67,7.67,0,0,1,7.712-7.605c1.145,0,2.111.39,2.111.885C61.726,56.743,60.031,56.325,59.9,57.132Zm8,1.383a1.548,1.548,0,0,1,.261.832c0,.73-.5,1.407-.5,2.164A1.554,1.554,0,0,0,69.3,63.072,1.8,1.8,0,0,0,71.1,61.2C71.1,59.816,69.851,58.644,67.9,58.515Zm-8.625,1.667a1.051,1.051,0,0,1,.339.781c0,.391-.182.808-.182,1.251a1.146,1.146,0,0,0,1.146,1.171,1.214,1.214,0,0,0,1.228-1.249A2.289,2.289,0,0,0,59.275,60.181Zm3.463-4.43a4.818,4.818,0,0,1,4.224,4.508,2.357,2.357,0,0,1-2.294,2.551,2.205,2.205,0,0,1-2.29-2.37c0-1.094.854-2.24.854-3.361A2.018,2.018,0,0,0,62.738,55.752Zm1.356,3.465a.624.624,0,0,0,.626.652.717.717,0,0,0,.678-.782c0-.547-.5-1.3-.965-1.3-.209,0-.13.313-.182.652-.027.259-.157.572-.157.781" transform="translate(-18.191 -11.282)" fill="#fff"/>
      <path id="Path_30884" data-name="Path 30884" d="M29.971,24.71c.885,0,1.9-4.794,1.9-5.6,0-.208-.077-.365-.259-.365-.808,0-1.928,4.56-1.928,5.577C29.684,24.5,29.736,24.71,29.971,24.71Zm6.383,1.433c.65,0,1.379-2.5,1.379-4.065,0-.339-.052-.7-.209-.7-.547,0-1.459,2.579-1.459,3.986C36.066,25.908,36.2,26.143,36.354,26.143ZM32.1,23.824c.286,0,.652-.314,1.331-1.068a6.811,6.811,0,0,0,.051-1.043c0-.52-.208-1.094-.52-1.094-.783,0-1.173,2.084-1.173,2.632C31.795,23.563,31.95,23.824,32.1,23.824Zm3.57-1.068c0-.444-.105-.548-.208-.548-.261,0-.547.313-.963,1.017.052.938.208,1.355.469,1.355C35.258,24.579,35.675,23.667,35.675,22.756Zm2.006-3.075c1.72,0,2.5,1.485,2.5,3.153,0,.729-.207,1.8-.546,1.8s-.286-.6-.339-1.147c-.052-.7-.183-.859-.418-.859-.443,0-.729,1.041-.729,2.006,0,.6.1,1.276.572,1.276a.95.95,0,0,0,.652-.286,2.332,2.332,0,0,1-2.241,2.241c-2.293,0-3.153-2.684-3.412-4.247-1.381,1.459-2.657,2.527-4.951,2.527a2.932,2.932,0,0,1-3.1-3.048c0-.444.156-1.59.7-1.59.651,0,.078,2.135,1.354,2.135.313,0,.885-.261,1.2-1.119a4.832,4.832,0,0,0,.286-1.538c0-.7-.156-1.146-.677-1.146a2.043,2.043,0,0,0-1.173.52,3.925,3.925,0,0,1,3.8-2.839c2.06,0,3.154,1.823,3.154,3.856a5.059,5.059,0,0,1-.079.885c.886-1.459,2.112-2.579,3.44-2.579" transform="translate(-12.828 -3.582)" fill="#fff"/>
      <path id="Path_30885" data-name="Path 30885" d="M32.589,29.045c-1.12,0-1.172,1.357-1.172,4.091-.835-1.8-2.214-3.726-3.83-3.726-1.094,0-1.51.73-1.51,2.006a4.819,4.819,0,0,0,.078.885.987.987,0,0,1,1.068-.625,4.752,4.752,0,0,1,3.361,2.033,17.32,17.32,0,0,0-2.839-.365,3.274,3.274,0,0,0-1.381.235,3.463,3.463,0,0,0-1.772,3.153,5.213,5.213,0,0,0,.079.859,5.61,5.61,0,0,1,4.9-2.944,4.936,4.936,0,0,1,.73.053,4.246,4.246,0,0,0-1.043,2.866c-.025.417-.182.444-.469.444,0,.858.679,2.136.679,2.787a.553.553,0,0,1-.26.5c0,1.146,1.145,1.98,1.145,2.709a.609.609,0,0,1-.13.418c.08.469,1.34,1.258,1.5,1.653.2.481.426.562.556.562.443,0,1.145-.522,1.145-.991a.621.621,0,0,0-.233-.417,3.839,3.839,0,0,1-.965-1.666.488.488,0,0,1-.5-.384c-.142-.539-.15-1.544-.358-2.144-.339-.078-.5-.208-.5-.912,0-.339.209-1.668.209-2.138a.37.37,0,0,1-.364-.417c0-.833.835-1.484,1.068-2.552a3.832,3.832,0,0,1,1.849,3.2,6.838,6.838,0,0,1-.182,1.485c1.095-.548,2.736-1.356,2.736-3,0-.965-.443-2.033-3.387-2.449a9.21,9.21,0,0,1,3.022-.52c1.668,0,2.632.52,2.839,1.692a3.248,3.248,0,0,0,.6-1.667,2.2,2.2,0,0,0-2.423-2.11,8.314,8.314,0,0,0-4.508,1.85c.679-1.407,1.146-2.24,1.981-2.24a2,2,0,0,1,.391.053c-.313-1.146-1.484-2.267-2.111-2.267" transform="translate(-12.607 -5.938)" fill="#fff"/>
      <path id="Path_30886" data-name="Path 30886" d="M88.6,52.657c1.3,0,2.347,1.693,2.347,3.674A8.189,8.189,0,0,1,88.19,62.3c-.026-3.516-4.33-2.4-4.33-4.948a1.73,1.73,0,0,1,1.722-1.824,2.64,2.64,0,0,1,1.955.7,2.311,2.311,0,0,1-.7-1.668,1.771,1.771,0,0,1,1.768-1.9" transform="translate(-24.725 -10.766)" fill="#fff"/>
      <path id="Path_30887" data-name="Path 30887" d="M60.406,20.436a2.77,2.77,0,0,0,2.006.937c.288,0,.628-.077.811-.077.235,0,.39.1.39.286A1.64,1.64,0,0,1,63.04,22.6a2.62,2.62,0,0,0,1.017.182A3.066,3.066,0,0,0,67.231,19.5a3.475,3.475,0,0,1,.5,1.667,3.736,3.736,0,0,1-4.01,3.933,5.625,5.625,0,0,1-2.036-.418c-.494,0-.468.991-.807.965-.6-.1-1.146-1.433-1.146-2.839A4.154,4.154,0,0,1,60.406,20.436Zm3.932-1.9a1.945,1.945,0,0,0-1.35-.52A2.106,2.106,0,0,0,60.9,19.55a2.445,2.445,0,0,1-.182-.886,2.517,2.517,0,0,1,2.687-2.553,4.574,4.574,0,0,1,2.55.885c.26,0,.521-.261.73-.261.286,0,.286.443.286.757,0,1.041-.47,2.839-1.643,3.491a2.657,2.657,0,0,0-1.3-1.251.412.412,0,0,1-.26-.391,1.049,1.049,0,0,1,.568-.808" transform="translate(-19.791 -3.294)" fill="#fff"/>
      <path id="Path_30888" data-name="Path 30888" d="M32.089,9.567c0,.912,3.256,5.367,3.882,5.367.522,0,.912-.912.912-1.695a1.066,1.066,0,0,0-.155-.572c-.469-.652-3.778-3.257-4.508-3.257A.146.146,0,0,0,32.089,9.567ZM12.94,6.883c0,.522-1.979,2.267-2.682,2.267-.26,0-.34-.312-.34-.6a2.317,2.317,0,0,1,.522-1.486A2.909,2.909,0,0,1,12.159,6.6C12.523,6.6,12.94,6.675,12.94,6.883ZM36.727,8.395c0-1.564-4.227-4.4-4.274-5.627a.46.46,0,0,1,.151-.323c.724-.764,3.73-1.321,3.73-1.971,0-.337-.626-.337-.939-.337-2.422,0-5.966.885-5.966,1.745,0,.887,3.178,3.049,3.178,4.118,0,.286-.182.391-.469.391-.885,0-2.813-1.069-3.725-1.069-.417,0-.574.286-.574.7,0,1.25,1.485,3.621,1.485,4.322,0,.079-.026.183-.13.183-.469,0-2.682-2.6-3.465-2.6-.286,0-.313.39-.313.963v.885c0,.6-.026.964-.311.964-.679,0-.991-1.9-1.642-1.9-.678,0-.808,3.386-1.458,3.386-.757,0-.105-3.726-.835-3.726-.807,0-1.72,2.476-2.294,2.476-.208,0-.259-.209-.259-.391,0-.755.442-1.979.442-2.708,0-.366-.1-.574-.415-.574-.809,0-2.58,1.3-3.257,1.3-.1,0-.235-.052-.235-.157,0-.624,2.839-2.6,2.839-3.49,0-.861-3.909-.286-3.909-1.278,0-.833,2.79-1.693,2.79-2.553,0-.756-3.309-1.093-4.586-1.093-1.538,0-2.371.181-2.371.624,0,.678,3.492.887,3.492,1.485,0,.574-3.622,2.111-3.622,3,0,.782,5.106.052,5.106.861,0,.885-4.453,4.714-4.453,5.99,0,.287.208.418.494.418,1.355,0,4.87-2.579,5.835-2.579.339,0,.365.416.365.781,0,.678-.234,1.719-.234,2.476,0,.6.156,1.015.676,1.015.966,0,1.85-1.641,2.5-1.641.833,0,.338,4.819,1.589,4.819,1.068,0,1.51-5.21,2.188-5.21s1.226,1.511,1.85,1.511c.78,0,.416-2.631,1.251-2.631.911,0,3.516,3.126,4.689,3.126.364,0,.494-.287.494-.652,0-1.381-1.927-4.506-1.927-5.5,0-.26.077-.339.364-.339,1.016,0,3.987,1.407,5.393,1.407C36.442,8.994,36.727,8.734,36.727,8.395Zm-2.71-5.158c0,.469,1.641,1.485,2.4,1.485.442,0,.573-.6.573-1.225,0-.781-.337-.807-1.016-.807C35.112,2.689,34.017,2.924,34.017,3.237ZM27.894.579c0-.157-.781-.313-1.849-.313-1.694,0-1.459,1.409-2.761,1.409-1.355,0-1.018-1.461-2.737-1.461-1.042,0-2,.183-2,.417,0,.313,1.224.183,1.224,1.044,0,.911-2.632,1.172-2.632,1.719,0,.182.208.26.469.26.574,0,1.484-.26,2.137-.26.365,0,.7.077.7.416,0,.652-1.408,1.824-1.408,2.345,0,.157.13.209.26.209.522,0,1.408-1.329,2.241-1.329,1.381,0,.47,2.944,1.224,2.944.781,0,.443-2.893,1.563-2.893.913,0,1.59,2.006,2.215,2.006a.3.3,0,0,0,.286-.313c0-.546-.781-1.667-.781-2.4,0-.443.313-.652.73-.652.6,0,1.407.365,1.848.365.156,0,.313-.052.313-.234,0-.625-2.317-1.3-2.317-2.11S27.894.944,27.894.579" transform="translate(-9.58 -0.007)" fill="#fff"/>
      <path id="Path_30889" data-name="Path 30889" d="M87.976,4.814c0,2.317-1.689,4.089-4.741,4.584.34.025.652.025.966.025,3.566,0,4.871-1.614,4.871-2.968A1.656,1.656,0,0,0,87.976,4.814Zm-4.4,2.63c0-1.85-4.426-2.319-4.426-2.735,0-.338,2.471-.912,3.748-.939-1.954-2.5-4.738-2.239-4.738-2.683,0-.261,2.085-.783,4.01-.783C83.784.3,85.3.67,85.3,1.894c0,.679-.547,1.383-.547,2.423a.963.963,0,0,0,1.043,1.068c.81,0,.99-.859.99-1.772,0-.754-.13-1.328-.13-1.693A1.732,1.732,0,0,1,88.472.1c.886,0,1.1.389,2.4.389a1.989,1.989,0,0,0-.965,1.538c0,1.1.706,1.85.706,4.091,0,4.115-3.855,5.574-8.573,5.574A27.024,27.024,0,0,1,78,11.378c-.208-.026-.26-.078-.26-.208,0-.339,1.852-.522,1.852-2.188a12.957,12.957,0,0,0-.209-1.511.206.206,0,0,1,.209-.209c.391,0,1.174,1.511,2.628,1.511A1.241,1.241,0,0,0,83.575,7.444ZM87.82,1.688a.652.652,0,1,0,.652-.652.645.645,0,0,0-.652.652" transform="translate(-23.474 -0.02)" fill="#fff"/>
      <path id="Path_30890" data-name="Path 30890" d="M84.774,30.927c0-.547-1.383-.6-1.512-2.136-.027-.234-.105-.65-.392-.65-.469,0-.1,1.433-.625,1.433-1.2,0-1.589-2.345-2.032-2.345-.105,0-.229.078-.229.391,0,.287.053.469.053.807s-.08.574-.391.574c-.7,0-1.33-1.642-1.93-1.642a.237.237,0,0,0-.26.209c0,.313.52.885.52,1.172,0,.626-1.695.286-1.695.808,0,.235.234.312.547.312.548,0,1.409-.233,1.852-.233.261,0,.652.052.652.389,0,.365-.939.834-.939,1.173a.262.262,0,0,0,.286.234c.7,0,1.95-1.224,2.836-1.224.156,0,.547.078.547.313,0,.338-.885.936-.885,1.432a.264.264,0,0,0,.235.286c.466,0,1.092-1.224,1.979-1.224.339,0,.835.13,1.1.13C84.7,31.136,84.774,31.006,84.774,30.927Zm.678,12.636a15.839,15.839,0,0,1,1.793-3.621c-.854-.442-3.123-1.381-3.123-2.918,0-1.8,2.241-3.2,2.706-3.2.209,0,.261.183.261.522,0,.937-.443,2.448-.443,3.256,0,.729.469,1.434.886,1.434.443,0,1.668-1.563,1.668-3.1a3.512,3.512,0,0,0-3.175-3.6c-.7,0-1.982,1.146-4.979,1.146-5.6,0-6.878-5.547-6.878-7.971,0-.1.025-.13.051-.13a3.979,3.979,0,0,0,2.451.679c.912,0,1.747-.235,3.077-.235,3.121,0,4.5,2.164,6.434,4.924,1.167.729,3.958,1.9,3.958,5.211,0,2.918-3.1,4.533-3.854,7.66,1.193-.13,1.9-2.267,3.123-2.267.626,0,.912.5.912,1.278a5.671,5.671,0,0,1-1.9,3.933,1.773,1.773,0,0,0,.025-.391c0-.729-.286-1.77-1.122-1.77-1.3,0-1.714,1.407-2.444,2.578-.757-2.656-1.773-5.054-3.6-6.513-1.845-1.484-5.027-.678-5.027-3.387,0-.73.47-1.772.47-2.605a1.219,1.219,0,0,0-.21-.756c2.5.939,1.617,2.6,3.157,4.325.959,1.1,3.617,2.137,5.155,6.644a4.943,4.943,0,0,0,.052-.7c0-3.856-5.1-7.635-5.547-9.2,2.965.339,3.486,1.069,4.894,4.977a16.181,16.181,0,0,1,1.228,3.8" transform="translate(-22.743 -5.188)" fill="#fff"/>
      <path id="Path_30891" data-name="Path 30891" d="M68.182,10.811c-1.826,0-3.025-.911-3.025-1.381a.362.362,0,0,1,.366-.39c.573,0,1.824.885,2.24.885.106,0,.183-.051.183-.208,0-.469-.443-1.251-.443-1.64,0-.105.079-.182.235-.182.7,0,1.746.286,2.3.286.182,0,.234-.1.234-.209,0-.573-1.7-1.693-1.7-2.032,0-.313,2.107-.783,2.107-1.276,0-.522-2.864-.157-2.864-.652,0-.364.548-.99.548-1.276,0-.13-.105-.182-.286-.182a20.546,20.546,0,0,1-2.008.495c-.26,0-.574-.052-.574-.418,0-.6,1.017-1.25,2.608-1.25,2.575,0,4.115,1.772,4.115,4.741C72.219,9.874,69.59,10.811,68.182,10.811ZM63.1,5.862c0-.287-1.018-.834-1.018-1.146,0-.052.051-.078.13-.078.288,0,.784.1,1.176.1.339,0,.391-1.459.647-1.459.182,0,.494,1.381.783,1.381.338,0,.963-.391,1.224-.391.052,0,.1.025.1.079,0,.182-.652.885-.652,1.093,0,.235,1.461.522,1.461.73,0,.261-1.487.235-1.487.469,0,.181.548.911.548,1.146a.07.07,0,0,1-.079.079c-.209,0-1.017-.366-1.251-.366-.287,0-.751,1.068-.986,1.068-.078,0-.13-.1-.13-.235l-.053-1.041a.185.185,0,0,0-.182-.209c-.313,0-.913-.026-1.1-.026-.13,0-.182-.025-.182-.078C62.059,6.772,63.1,6.044,63.1,5.862Zm-.758,4.27c.418,0,.5,1.018.576,1.616.052.313.1.339.235.339.313,0,.807-1.2,1.142-1.2.494,0,1.825,1.381,4.041,1.381a5.936,5.936,0,0,0,6.123-6.122C74.461,2.37,71.8.155,68.13.155c-1.745,0-3.025.86-3.7.86C64.016,1.041,63.39,0,63.076,0c-.13,0-.26.259-.26.7,0,.287,0,1.2-.313,1.2-.627,0-3.049-1.8-3.049-1.146,0,.6,1.613,2.424,1.613,2.893s-1.588.912-1.588,1.224c0,.573,1.693.677,1.693,1.407S59.4,7.581,59.4,8.128c0,.442,1.772.13,1.772.677s-1.3,2.371-1.3,2.89c0,.131.025.131.129.131.5,0,1.981-1.695,2.346-1.695" transform="translate(-19.724)" fill="#fff"/>
      <path id="Path_30892" data-name="Path 30892" d="M46.132,69.748a1.2,1.2,0,0,1-.287.755,1.918,1.918,0,0,0-1.459-.78c-2.683,0-1.667,3.882-4.533,3.882a13.552,13.552,0,0,1-1.745-.157c-.183,0-.287.079-.287.235,0,.679.964,2.344,3.648,2.344s5.263-1.64,5.263-3.675a2.717,2.717,0,0,0-.235-1.066.764.764,0,0,1,.6-.261c.416,0,.651.471,1.041.471a.714.714,0,0,0,.73-.73.789.789,0,0,0-.494-.732.9.9,0,0,0,.364-.7.828.828,0,0,0-.835-.859.747.747,0,0,0-.572.258c-.051-.466-.313-.909-.808-.909a.672.672,0,0,0-.679.73c0,.414.287.754.287,1.2" transform="translate(-15.312 -13.867)" fill="#fff"/>
      <path id="Path_30893" data-name="Path 30893" d="M29.833,63.537c2.084.518,3.127,1.639,3.334,2.968a5.786,5.786,0,0,0,.963,2.839,4.5,4.5,0,0,0,3.049,1.379c.938,0,1.692-.309,1.692-1.17A3.574,3.574,0,0,0,35.72,66.5c-.182,0-.417.027-.678.027a1.246,1.246,0,0,1-.781-.235c-.416-.366-.547-2.32-1.329-3.492a3.277,3.277,0,0,0-3.073-1.668c-.911,0-1.928.494-1.928,1.224C27.931,62.807,28.166,63.119,29.833,63.537ZM37.1,69.372c-.783,0-1.955-.835-1.955-1.3a.632.632,0,0,1,.65-.6c.652,0,1.823.81,1.823,1.487,0,.182-.13.418-.519.418" transform="translate(-13.29 -12.5)" fill="#fff"/>
      <path id="Path_30894" data-name="Path 30894" d="M36.331,44.437c0-1.667,3.961-2.553,3.961-4.612a3.407,3.407,0,0,0-.365-1.38c1.379.755,2.4,2.033,2.4,3.074,0,1.8-1.875,2.632-1.875,3.753,0,1.3,2.006,1.511,2.006,3.126,0,1.328-1.9,2.866-1.9,4.585a2.6,2.6,0,0,0,2.37,2.6,6.016,6.016,0,0,1-1.328.182c-2.632,0-5.341-2.161-5.341-4.741a4.446,4.446,0,0,1,1.379-3.2,3.724,3.724,0,0,0,1.929,1.041c.416,0,.6-.208.6-.52C40.162,47.381,36.331,46.5,36.331,44.437Zm8.311,13.157c-.893.409-1.25.339-1.25,1.251,0,.338-.079.779-.079,1.014,0,.313.052.5.416.5.939,0,2.424-1.589,2.424-2.944,0-.366-.209-.519-.444-.519C45.5,56.891,45.268,57.307,44.642,57.594Zm-.1-1.877c0-1.172-2.423-1.2-2.423-2.97a4.061,4.061,0,0,1,.86-2.007,2.826,2.826,0,0,0,1.955,2.5c2.317.858,2.631,2.161,2.631,3.543,0,2.345-1.641,5.263-5.862,5.263a5.933,5.933,0,0,1-5.811-5.576c0-.7.182-1.484.625-1.484.391,0,.521.312.834.624a5.424,5.424,0,0,0,4.3,1.485c1.667,0,2.892-.676,2.892-1.38" transform="translate(-14.917 -7.86)" fill="#fff"/>
      <path id="Path_30895" data-name="Path 30895" d="M22.316,60.007a.991.991,0,1,1-1.1-.872A.99.99,0,0,1,22.316,60.007Zm-4.869,1.025a1.7,1.7,0,0,0,1.877,1.46,2.143,2.143,0,0,0,.861-.26,1.6,1.6,0,0,0,1.853,1.245,1.652,1.652,0,0,0,1.508-1.845,1.887,1.887,0,0,0-.156-.6s.126-.014.222-.031a1.734,1.734,0,0,0,1.5-1.845,1.692,1.692,0,0,0-1.821-1.526,1.64,1.64,0,0,0-.862.353,1.756,1.756,0,0,0-1.972-1.294,1.683,1.683,0,0,0-1.414,1.893,1.715,1.715,0,0,0,.13.52l-.259.038a1.755,1.755,0,0,0-1.462,1.89" transform="translate(-11.144 -11.585)" fill="#fff"/>
    </g>
  </g>
</svg>
