<svg version="1.1" id="Layer_1" xmlns="http://www.w3.org/2000/svg" xmlns:xlink="http://www.w3.org/1999/xlink" x="0px" y="0px"
	 viewBox="0 0 32.2 31.1" style="enable-background:new 0 0 32.2 31.1;" xml:space="preserve" width="48" height="48">
<style type="text/css">
	.st0{fill:#FFFFFF;}
	.st1{fill:#0832FF;}
</style>
<g>
	<path class="st0" d="M4.3,28.6c-0.3,0.1-0.6,0.2-1,0.3c-1.5,0.2-3-0.9-3.2-2.4c-0.3-1.5,0.6-2.9,1.8-3.4C2,23.2,1.9,23.1,1.9,23
		c-0.2-1,0-1.9,0.7-2.7c0.9-1.1,2.5-1.3,3.7-0.6c0,0,0,0,0.1,0c0-0.1,0-0.1,0-0.2c0-6.3,0-12.6,0-18.9C6.4,0.2,6.6,0,7.1,0
		c6.4,0,12.7,0,19.1,0c0.5,0,0.7,0.2,0.7,0.7c0,6.1,0,12.3,0,18.4c0,0.2,0,0.2,0.2,0.2c1.5,0,3,0,4.5,0c0.5,0,0.7,0.2,0.7,0.7
		c0,0.6,0,1.3,0,1.9c0,0.4-0.2,0.6-0.6,0.6c-0.1,0-0.3,0-0.4,0c-0.1,0.1,0,0.3,0,0.4c0,2.5,0,5,0,7.5c0,0.5-0.2,0.6-0.7,0.6
		c-7.8,0-15.6,0-23.3,0c-0.5,0-0.7-0.2-0.7-0.7c0-0.4,0-0.9,0-1.3c0-0.1,0-0.2-0.2-0.2c-0.3,0-0.5-0.1-0.8-0.2
		c-0.1-0.1-0.1,0-0.1,0.1c0,0.6,0,1.2,0,1.7C5.4,31,5,31.2,4.6,31c-0.2-0.1-0.3-0.3-0.3-0.5c0-0.6,0-1.2,0-1.7
		C4.3,28.7,4.3,28.7,4.3,28.6z M25.7,15.6c0-4.8,0-9.5,0-14.3c0-0.2,0-0.2-0.2-0.2c-5.9,0-11.9,0-17.8,0c-0.2,0-0.2,0-0.2,0.2
		c0,6.5,0,13,0,19.5c0,0.2,0,0.3,0.1,0.4c0.2,0.6,0.3,1.1,0.1,1.7c0,0.2,0,0.3,0.2,0.3c1.1,0.5,1.8,1.6,1.8,2.9
		c-0.1,1.2-0.9,2.3-2,2.7c-0.1,0-0.1,0.1-0.1,0.2c0,0.3,0,0.6,0,0.9c0,0.1,0,0.2,0.2,0.2c1.7,0,3.3,0,5,0c0.1,0,0.2,0,0.2-0.2
		c0-1.9,0-3.7,0-5.6c0-0.4,0.2-0.6,0.6-0.6c2.1,0,4.1,0,6.2,0c0.4,0,0.6,0.2,0.6,0.6c0,1.9,0,3.7,0,5.6c0,0.1,0,0.2,0.2,0.2
		c1.7,0,3.3,0,5,0c0.2,0,0.2,0,0.2-0.2C25.7,25.1,25.7,20.3,25.7,15.6z M5.4,26.7c0,0.2,0,0.3,0,0.5c0,0.1,0,0.2,0.1,0.3
		C6.2,28,7.3,28,7.9,27.4c0.7-0.7,0.8-1.7,0.3-2.5c-0.3-0.5-0.8-0.7-1.4-0.8c-0.4-0.1-0.6-0.4-0.4-0.8c0-0.1,0.1-0.1,0.1-0.2
		c0.4-0.8,0.2-1.7-0.4-2.3c-0.6-0.6-1.6-0.7-2.3-0.2c-0.9,0.5-1.2,1.6-0.7,2.5c0.1,0.2,0.2,0.3,0.1,0.5C3.1,24,2.9,24,2.7,24.1
		c-1.4,0.2-2.1,1.8-1.3,2.9c0.6,0.9,1.9,1.1,2.7,0.4c0.1-0.1,0.2-0.2,0.2-0.3c0-0.3,0-0.6,0-0.9c0-0.3,0.2-0.5,0.5-0.5
		c0.3,0,0.5,0.2,0.5,0.5C5.4,26.4,5.4,26.6,5.4,26.7z M16.6,24.7c-0.8,0-1.7,0-2.5,0c-0.1,0-0.2,0-0.2,0.2c0,1.7,0,3.4,0,5.1
		c0,0.1,0,0.2,0.1,0.2c1.7,0,3.4,0,5.1,0c0.1,0,0.1,0,0.1-0.1c0-1.7,0-3.4,0-5.1c0-0.1-0.1-0.2-0.2-0.2
		C18.3,24.7,17.5,24.7,16.6,24.7z M26.8,26.3c0,1.2,0,2.4,0,3.6c0,0.1,0,0.2,0.2,0.2c1,0,1.9,0,2.9,0c0.1,0,0.2,0,0.2-0.2
		c0-2.4,0-4.8,0-7.2c0-0.1,0-0.2-0.2-0.2c-1,0-1.9,0-2.9,0c-0.1,0-0.2,0-0.2,0.2C26.8,23.9,26.8,25.1,26.8,26.3z M29,20.4
		c-0.7,0-1.3,0-2,0c-0.1,0-0.1,0-0.1,0.1c0,0.3,0,0.5,0,0.8c0,0.1,0,0.1,0.1,0.1c1.4,0,2.7,0,4.1,0c0.1,0,0.1,0,0.1-0.1
		c0-0.3,0-0.5,0-0.8c0-0.1,0-0.2-0.2-0.2C30.3,20.4,29.6,20.4,29,20.4z"/>
	<path class="st0" d="M12.9,9.6c0-0.5,0-1,0-1.5c0-0.4,0.2-0.6,0.6-0.6c0.7,0,1.4,0,2.1,0c0.4,0,0.6,0.2,0.6,0.6c0,1,0,2.1,0,3.1
		c0,0.4-0.2,0.6-0.6,0.6c-0.7,0-1.4,0-2.1,0c-0.4,0-0.6-0.2-0.6-0.6C12.9,10.7,12.9,10.2,12.9,9.6z M15,9.7c0-0.3,0-0.6,0-1
		c0-0.1,0-0.1-0.1-0.1c-0.3,0-0.6,0-0.9,0c-0.1,0-0.1,0-0.1,0.1c0,0.6,0,1.3,0,1.9c0,0.1,0,0.1,0.1,0.1c0.3,0,0.6,0,0.8,0
		c0.1,0,0.1,0,0.1-0.1C15,10.3,15,10,15,9.7z"/>
	<path class="st0" d="M8.6,20.4c0-0.5,0-1,0-1.6c0-0.4,0.2-0.6,0.6-0.6c0.7,0,1.4,0,2.1,0c0.4,0,0.6,0.2,0.6,0.6c0,1,0,2.1,0,3.1
		c0,0.4-0.2,0.6-0.6,0.6c-0.7,0-1.4,0-2.1,0c-0.4,0-0.6-0.2-0.6-0.6C8.6,21.4,8.6,20.9,8.6,20.4z M10.7,20.4c0-0.3,0-0.6,0-1
		c0-0.1,0-0.1-0.1-0.1c-0.3,0-0.6,0-0.9,0c-0.1,0-0.1,0-0.1,0.1c0,0.6,0,1.3,0,1.9c0,0.1,0,0.1,0.1,0.1c0.3,0,0.5,0,0.8,0
		c0.1,0,0.1,0,0.1-0.1C10.7,21,10.7,20.7,10.7,20.4z"/>
	<path class="st0" d="M12.9,4.3c0-0.5,0-1,0-1.6c0-0.4,0.2-0.6,0.6-0.6c0.7,0,1.4,0,2.1,0c0.3,0,0.6,0.2,0.6,0.6c0,1.1,0,2.1,0,3.2
		c0,0.3-0.2,0.6-0.5,0.6c-0.7,0-1.4,0-2.1,0c-0.3,0-0.6-0.2-0.6-0.6C12.9,5.3,12.9,4.8,12.9,4.3z M15,4.3c0-0.3,0-0.6,0-1
		c0-0.1,0-0.1-0.1-0.1c-0.3,0-0.6,0-0.8,0c-0.1,0-0.1,0-0.1,0.1c0,0.6,0,1.3,0,1.9c0,0.1,0,0.1,0.1,0.1c0.3,0,0.5,0,0.8,0
		c0.1,0,0.1,0,0.1-0.1C15,4.9,15,4.6,15,4.3z"/>
	<path class="st0" d="M11.8,9.6c0,0.5,0,1,0,1.6c0,0.4-0.2,0.6-0.6,0.6c-0.7,0-1.4,0-2,0c-0.4,0-0.6-0.2-0.6-0.6c0-1,0-2.1,0-3.1
		c0-0.4,0.2-0.6,0.6-0.6c0.7,0,1.4,0,2,0c0.4,0,0.6,0.2,0.6,0.6C11.8,8.6,11.8,9.1,11.8,9.6z M9.6,9.7c0,0.3,0,0.6,0,0.9
		c0,0.1,0,0.1,0.1,0.1c0.3,0,0.6,0,0.8,0c0.1,0,0.1,0,0.1-0.1c0-0.6,0-1.3,0-1.9c0-0.1,0-0.1-0.1-0.1c-0.3,0-0.6,0-0.8,0
		c-0.1,0-0.1,0-0.1,0.1C9.7,9,9.6,9.3,9.6,9.7z"/>
	<path class="st0" d="M8.6,4.3c0-0.5,0-1,0-1.6c0-0.4,0.2-0.6,0.6-0.6c0.7,0,1.4,0,2.1,0c0.4,0,0.6,0.2,0.6,0.6c0,1,0,2.1,0,3.1
		c0,0.3-0.2,0.6-0.6,0.6c-0.7,0-1.4,0-2.1,0c-0.3,0-0.6-0.2-0.6-0.6C8.6,5.3,8.6,4.8,8.6,4.3z M10.7,4.3c0-0.3,0-0.6,0-1
		c0-0.1,0-0.1-0.1-0.1c-0.3,0-0.6,0-0.8,0c-0.1,0-0.1,0-0.1,0.1c0,0.6,0,1.3,0,1.9c0,0.1,0,0.1,0.1,0.1c0.3,0,0.6,0,0.8,0
		c0.1,0,0.1,0,0.1-0.1C10.7,4.9,10.7,4.6,10.7,4.3z"/>
	<path class="st0" d="M17.2,9.6c0-0.5,0-1,0-1.6c0-0.4,0.2-0.6,0.6-0.6c0.7,0,1.4,0,2.1,0c0.4,0,0.6,0.2,0.6,0.6c0,1,0,2.1,0,3.1
		c0,0.4-0.2,0.6-0.6,0.6c-0.7,0-1.4,0-2.1,0c-0.4,0-0.6-0.2-0.6-0.6C17.2,10.7,17.2,10.2,17.2,9.6z M19.3,9.6c0-0.3,0-0.6,0-0.9
		c0-0.1,0-0.1-0.1-0.1c-0.3,0-0.6,0-0.8,0c-0.1,0-0.1,0-0.1,0.1c0,0.6,0,1.3,0,1.9c0,0.1,0,0.1,0.1,0.1c0.3,0,0.5,0,0.8,0
		c0.1,0,0.1,0,0.1-0.1C19.3,10.3,19.3,10,19.3,9.6z"/>
	<path class="st0" d="M24.7,9.6c0,0.5,0,1,0,1.6c0,0.4-0.2,0.6-0.6,0.6c-0.7,0-1.4,0-2,0c-0.4,0-0.6-0.2-0.6-0.6c0-1,0-2.1,0-3.1
		c0-0.4,0.2-0.6,0.6-0.6c0.7,0,1.4,0,2,0c0.4,0,0.6,0.2,0.6,0.6C24.7,8.6,24.7,9.1,24.7,9.6z M22.5,9.6c0,0.3,0,0.6,0,0.9
		c0,0.1,0,0.1,0.1,0.1c0.3,0,0.6,0,0.8,0c0.1,0,0.1,0,0.1-0.1c0-0.6,0-1.3,0-1.9c0-0.1,0-0.1-0.1-0.1c-0.3,0-0.6,0-0.8,0
		c-0.1,0-0.1,0-0.1,0.1C22.5,9,22.5,9.3,22.5,9.6z"/>
	<path class="st0" d="M17.2,4.3c0-0.5,0-1,0-1.6c0-0.4,0.2-0.6,0.6-0.6c0.7,0,1.4,0,2.1,0c0.4,0,0.6,0.2,0.6,0.6c0,1,0,2.1,0,3.1
		c0,0.4-0.2,0.6-0.6,0.6c-0.7,0-1.4,0-2.1,0c-0.4,0-0.6-0.2-0.6-0.6C17.2,5.3,17.2,4.8,17.2,4.3z M19.3,4.3c0-0.3,0-0.6,0-0.9
		c0-0.1,0-0.1-0.1-0.1c-0.3,0-0.6,0-0.8,0c-0.1,0-0.1,0-0.1,0.1c0,0.6,0,1.3,0,1.9c0,0.1,0,0.1,0.1,0.1c0.3,0,0.6,0,0.8,0
		c0.1,0,0.1,0,0.1-0.1C19.3,4.9,19.3,4.6,19.3,4.3z"/>
	<path class="st0" d="M24.7,4.3c0,0.5,0,1,0,1.5c0,0.4-0.2,0.6-0.6,0.6c-0.7,0-1.4,0-2,0c-0.4,0-0.6-0.2-0.6-0.6c0-1,0-2.1,0-3.1
		c0-0.4,0.2-0.6,0.6-0.6c0.7,0,1.4,0,2,0c0.4,0,0.6,0.2,0.6,0.6C24.7,3.3,24.7,3.8,24.7,4.3z M23.6,4.3c0-0.3,0-0.6,0-1
		c0-0.1,0-0.1-0.1-0.1c-0.3,0-0.6,0-0.9,0c-0.1,0-0.1,0-0.1,0.1c0,0.6,0,1.3,0,1.9c0,0.1,0,0.1,0.1,0.1c0.3,0,0.5,0,0.8,0
		c0.1,0,0.1,0,0.1-0.1C23.6,4.9,23.6,4.6,23.6,4.3z"/>
	<path class="st0" d="M20.4,15c0,0.5,0,1,0,1.6c0,0.4-0.2,0.6-0.6,0.6c-0.7,0-1.4,0-2,0c-0.4,0-0.6-0.2-0.6-0.6c0-1,0-2.1,0-3.1
		c0-0.4,0.2-0.6,0.6-0.6c0.7,0,1.4,0,2,0c0.4,0,0.6,0.2,0.6,0.6C20.4,14,20.4,14.5,20.4,15z M19.3,15c0-0.3,0-0.6,0-0.9
		c0-0.1,0-0.1-0.1-0.1c-0.3,0-0.5,0-0.8,0c-0.1,0-0.1,0-0.1,0.1c0,0.6,0,1.3,0,1.9c0,0.1,0,0.1,0.1,0.1c0.3,0,0.6,0,0.8,0
		c0.1,0,0.1,0,0.1-0.1C19.3,15.6,19.3,15.3,19.3,15z"/>
	<path class="st0" d="M11.8,15c0,0.5,0,1,0,1.5c0,0.4-0.2,0.6-0.6,0.6c-0.7,0-1.4,0-2,0c-0.4,0-0.6-0.2-0.6-0.6c0-1,0-2.1,0-3.1
		c0-0.4,0.2-0.6,0.6-0.6c0.7,0,1.4,0,2,0c0.4,0,0.6,0.2,0.6,0.6C11.8,14,11.8,14.5,11.8,15z M9.6,15c0,0.3,0,0.6,0,1
		c0,0.1,0,0.1,0.1,0.1c0.3,0,0.6,0,0.9,0c0.1,0,0.1,0,0.1-0.1c0-0.6,0-1.3,0-1.9c0-0.1,0-0.1-0.1-0.1c-0.3,0-0.5,0-0.8,0
		c-0.1,0-0.1,0-0.1,0.1C9.7,14.4,9.6,14.7,9.6,15z"/>
	<path class="st0" d="M16.1,15c0,0.5,0,1,0,1.6c0,0.4-0.2,0.6-0.6,0.6c-0.7,0-1.4,0-2,0c-0.4,0-0.6-0.2-0.6-0.6c0-1,0-2.1,0-3.1
		c0-0.4,0.2-0.6,0.6-0.6c0.7,0,1.4,0,2,0c0.4,0,0.6,0.2,0.6,0.6C16.1,14,16.1,14.5,16.1,15z M15,15c0-0.3,0-0.6,0-1
		c0-0.1,0-0.1-0.1-0.1c-0.3,0-0.6,0-0.8,0c-0.1,0-0.1,0-0.1,0.1c0,0.6,0,1.3,0,1.9c0,0.1,0,0.1,0.1,0.1c0.3,0,0.6,0,0.8,0
		c0.1,0,0.1,0,0.1-0.1C15,15.6,15,15.3,15,15z"/>
	<path class="st0" d="M21.4,20.4c0-0.5,0-1,0-1.5c0-0.4,0.2-0.6,0.6-0.6c0.7,0,1.4,0,2,0c0.4,0,0.6,0.2,0.6,0.6c0,1,0,2.1,0,3.1
		c0,0.4-0.2,0.6-0.6,0.6c-0.7,0-1.4,0-2,0c-0.4,0-0.6-0.2-0.6-0.6C21.4,21.4,21.4,20.9,21.4,20.4z M22.5,20.4c0,0.3,0,0.6,0,1
		c0,0.1,0,0.1,0.1,0.1c0.3,0,0.5,0,0.8,0c0.1,0,0.1,0,0.1-0.1c0-0.6,0-1.3,0-1.9c0-0.1,0-0.1-0.1-0.1c-0.3,0-0.5,0-0.8,0
		c-0.1,0-0.1,0-0.1,0.1C22.5,19.7,22.5,20,22.5,20.4z"/>
	<path class="st0" d="M24.7,15c0,0.5,0,1,0,1.5c0,0.4-0.2,0.6-0.6,0.6c-0.7,0-1.4,0-2,0c-0.4,0-0.6-0.2-0.6-0.6c0-1,0-2.1,0-3.1
		c0-0.4,0.2-0.6,0.6-0.6c0.7,0,1.4,0,2,0c0.4,0,0.6,0.2,0.6,0.6C24.7,14,24.7,14.5,24.7,15z M23.6,15c0-0.3,0-0.6,0-0.9
		c0-0.1,0-0.2-0.1-0.2c-0.3,0-0.5,0-0.8,0c-0.1,0-0.1,0-0.1,0.1c0,0.6,0,1.3,0,1.9c0,0.1,0,0.1,0.1,0.1c0.3,0,0.6,0,0.8,0
		c0.1,0,0.1,0,0.1-0.1C23.6,15.6,23.6,15.3,23.6,15z"/>
	<path class="st0" d="M20.4,20.4c0,0.5,0,1,0,1.5c0,0.4-0.2,0.6-0.6,0.6c-0.7,0-1.4,0-2,0c-0.4,0-0.6-0.2-0.6-0.6c0-1,0-2.1,0-3.1
		c0-0.4,0.2-0.6,0.6-0.6c0.7,0,1.4,0,2,0c0.4,0,0.6,0.2,0.6,0.6C20.4,19.3,20.4,19.9,20.4,20.4z M18.2,20.4c0,0.3,0,0.6,0,1
		c0,0.1,0,0.1,0.1,0.1c0.3,0,0.6,0,0.8,0c0.1,0,0.1,0,0.1-0.1c0-0.6,0-1.3,0-1.9c0-0.1,0-0.1-0.1-0.1c-0.3,0-0.6,0-0.8,0
		c-0.1,0-0.1,0-0.1,0.1C18.2,19.7,18.2,20,18.2,20.4z"/>
	<path class="st0" d="M12.9,20.4c0-0.5,0-1,0-1.6c0-0.4,0.2-0.6,0.6-0.6c0.7,0,1.4,0,2.1,0c0.4,0,0.6,0.2,0.6,0.6c0,1,0,2.1,0,3.1
		c0,0.4-0.2,0.6-0.6,0.6c-0.7,0-1.4,0-2.1,0c-0.4,0-0.6-0.2-0.6-0.6C12.9,21.4,12.9,20.9,12.9,20.4z M15,20.4c0-0.3,0-0.6,0-1
		c0-0.1,0-0.1-0.1-0.1c-0.3,0-0.6,0-0.9,0c-0.1,0-0.1,0-0.1,0.1c0,0.6,0,1.3,0,1.9c0,0.1,0,0.1,0.1,0.1c0.3,0,0.6,0,0.8,0
		c0.1,0,0.1,0,0.1-0.1C15,21,15,20.7,15,20.4z"/>
</g>
</svg>
