<svg version="1.1" id="Layer_1" xmlns="http://www.w3.org/2000/svg" xmlns:xlink="http://www.w3.org/1999/xlink" x="0px" y="0px"
	 viewBox="0 0 34.3 25.5" style="enable-background:new 0 0 34.3 25.5;" xml:space="preserve" width="48" height="48">
<style type="text/css">
	.st0{fill:#FFFFFF;}
	.st1{fill:#0832FF;}
</style>
<g>
	<path class="st0" d="M17.2,25.5c-5.2,0-10.3,0-15.5,0c-1,0-1.7-0.7-1.7-1.7c0-5,0-9.9,0-14.9c0-0.8,0.6-1.5,1.4-1.6
		C1.9,7.2,2.5,7,3,6.8c2.5-0.7,5-1.4,7.5-2.1c4.8-1.3,9.6-2.7,14.4-4c0.8-0.2,1.6-0.5,2.5-0.7c0.8-0.2,1.6,0.3,1.9,1.1
		c0.2,0.6,0.3,1.2,0.5,1.9c0,0.1,0.1,0.2,0.3,0.2c0.4-0.1,0.7-0.1,1.1-0.1c0.7,0.1,1.2,0.7,1.3,1.4c0.1,0.8,0.2,1.6,0.3,2.5
		c0,0.2,0,0.2,0.3,0.3c0.8,0.1,1.4,0.7,1.4,1.6c0,0.7,0,1.4,0,2c0,4.3,0,8.6,0,12.8c0,0.6-0.2,1.1-0.6,1.4c-0.3,0.2-0.6,0.3-0.9,0.3
		C27.6,25.5,22.4,25.5,17.2,25.5C17.2,25.5,17.2,25.5,17.2,25.5z M17.2,24.4C17.2,24.4,17.2,24.4,17.2,24.4c5.2,0,10.4,0,15.5,0
		c0.1,0,0.3,0,0.4-0.1c0.2-0.1,0.2-0.3,0.2-0.5c0-4.9,0-9.9,0-14.8c0,0,0-0.1,0-0.1c0-0.3-0.2-0.5-0.4-0.5c-0.2,0-0.4,0-0.7,0
		c-10,0-20.1,0-30.1,0c-0.1,0-0.3,0-0.4,0C1.3,8.3,1.1,8.5,1.1,9c0,4.9,0,9.9,0,14.8c0,0.4,0.2,0.6,0.6,0.6
		C6.9,24.4,12,24.4,17.2,24.4z M9.4,7.2c0.4,0.1,0.8,0,1.2,0c6.9,0,13.9,0,20.8,0c0,0,0.1,0,0.1,0c0.1,0,0.1,0,0.1-0.1
		c0-0.1,0-0.3-0.1-0.4c-0.1-0.7-0.2-1.3-0.2-2c-0.1-0.5-0.3-0.6-0.7-0.6c-1.1,0.1-2.1,0.3-3.2,0.5C26.2,4.8,25.1,5,24,5.1
		c-1,0.1-2.1,0.3-3.1,0.4c-1.1,0.2-2.1,0.3-3.2,0.5c-1.1,0.2-2.3,0.3-3.4,0.5c-0.8,0.1-1.6,0.2-2.5,0.4C11,7,10.2,7.1,9.4,7.2z
		 M9.8,6C9.8,6.1,9.8,6.1,9.8,6c0.1,0,0.1,0,0.2,0c0.4-0.1,0.9-0.1,1.3-0.2c1.7-0.3,3.3-0.5,5-0.7C17.7,5,19,4.8,20.4,4.6
		c1.1-0.2,2.2-0.3,3.4-0.5c1.5-0.2,3-0.4,4.5-0.7c0.4-0.1,0.4,0,0.3-0.4c-0.1-0.5-0.2-1-0.4-1.5c-0.1-0.4-0.3-0.5-0.7-0.4
		c-0.1,0-0.2,0.1-0.3,0.1C24,2.1,20.8,3,17.7,3.9c-2.2,0.6-4.5,1.2-6.7,1.9C10.6,5.8,10.2,5.9,9.8,6z"/>
	<path class="st0" d="M17.2,23.3c-3.7,0-6.9-3-7-6.9c0-3.9,3.1-7,7-7c3.9,0,7,3.1,7,7C24.1,20.4,20.8,23.4,17.2,23.3z M17.2,22.3
		c3.1,0,5.9-2.5,5.9-5.9c0-3.3-2.6-5.9-5.9-5.9c-3.2,0-5.9,2.7-5.9,5.9C11.3,19.7,14.1,22.3,17.2,22.3z"/>
	<path class="st0" d="M2.1,16.4c0-1.6,0-3.2,0-4.7c0-0.4,0.2-0.6,0.6-0.6c0.6,0,1-0.5,1.1-1.1c0-0.3,0.2-0.5,0.5-0.5
		c0.1,0,0.2,0,0.2,0c2.2,0,4.4,0,6.6,0c0.1,0,0.2,0,0.3,0c0.3,0.1,0.4,0.3,0.4,0.6c0,0.3-0.2,0.5-0.5,0.5c-0.2,0-0.4,0-0.5,0
		c-1.9,0-3.9,0-5.8,0c-0.1,0-0.2,0-0.3,0.2C4.5,11.3,4,11.7,3.4,12c-0.1,0-0.1,0.1-0.1,0.2c0,2.8,0,5.6,0,8.4c0,0.1,0,0.2,0.2,0.2
		C4,21,4.5,21.5,4.7,22.1c0,0.1,0.1,0.1,0.2,0.1c2,0,4.1,0,6.1,0c0.1,0,0.3,0,0.4,0c0.3,0.1,0.4,0.3,0.4,0.6c0,0.3-0.2,0.5-0.5,0.5
		c-0.2,0-0.4,0-0.6,0c-2.1,0-4.2,0-6.3,0c-0.4,0-0.6-0.2-0.7-0.6c0-0.4-0.4-1-1.1-1c-0.4,0-0.5-0.2-0.5-0.6
		C2.1,19.5,2.1,17.9,2.1,16.4z"/>
	<path class="st0" d="M32.2,16.4c0,1.6,0,3.1,0,4.7c0,0.4-0.2,0.6-0.6,0.6c-0.6,0.1-1,0.4-1.1,1.1c0,0.3-0.2,0.5-0.6,0.5
		c-2.1,0-4.2,0-6.3,0c-0.2,0-0.4,0-0.6,0c-0.3,0-0.5-0.2-0.5-0.5c0-0.3,0.2-0.5,0.4-0.6c0.1,0,0.2,0,0.3,0c2,0,4.1,0,6.1,0
		c0.1,0,0.2,0,0.2-0.2c0.2-0.6,0.7-1.1,1.3-1.3c0.1,0,0.2-0.1,0.2-0.2c0-2.8,0-5.6,0-8.4c0-0.1,0-0.2-0.2-0.2
		c-0.6-0.2-1.1-0.7-1.3-1.3c0-0.1-0.1-0.2-0.3-0.2c-2.1,0-4.1,0-6.2,0c-0.3,0-0.5-0.1-0.6-0.3c-0.1-0.3,0-0.7,0.3-0.7
		c0.1,0,0.2,0,0.4,0c2.2,0,4.3,0,6.5,0c0.1,0,0.2,0,0.3,0c0.3,0,0.5,0.2,0.5,0.6c0,0.6,0.4,1,1,1c0.4,0,0.6,0.2,0.6,0.7
		C32.2,13.2,32.2,14.8,32.2,16.4z"/>
	<path class="st0" d="M6.4,18c-0.9,0-1.6-0.7-1.6-1.6c0-0.9,0.7-1.6,1.6-1.6c0.9,0,1.6,0.7,1.6,1.6C8.1,17.2,7.4,18,6.4,18z
		 M6.4,16.9c0.3,0,0.5-0.2,0.5-0.5c0-0.3-0.2-0.5-0.5-0.5c-0.3,0-0.5,0.2-0.5,0.5C5.9,16.7,6.1,16.9,6.4,16.9z"/>
	<path class="st0" d="M27.9,18c-0.9,0-1.6-0.7-1.6-1.6c0-0.9,0.7-1.6,1.6-1.6c0.9,0,1.6,0.7,1.6,1.6C29.5,17.2,28.8,18,27.9,18z
		 M27.9,16.9c0.3,0,0.5-0.2,0.5-0.5c0-0.3-0.3-0.5-0.5-0.5c-0.3,0-0.5,0.3-0.5,0.5C27.4,16.7,27.6,16.9,27.9,16.9z"/>
	<path class="st0" d="M17.7,12.4c-0.1,0.2,0.1,0.3,0.3,0.4c0.8,0.4,1.2,1,1.3,1.9c0,0.3-0.2,0.6-0.5,0.6c-0.3,0-0.5-0.2-0.6-0.5
		c0-0.5-0.4-0.9-0.9-1c-0.5-0.1-1,0.2-1.2,0.6c-0.3,0.6,0.2,1.4,0.9,1.5c0.5,0,1,0.1,1.5,0.5c0.6,0.5,0.9,1.2,0.7,2
		c-0.1,0.8-0.6,1.3-1.4,1.6c-0.1,0-0.2,0.1-0.2,0.2c0,0.1,0,0.3,0,0.4c0,0.3-0.2,0.5-0.5,0.5c-0.3,0-0.5-0.2-0.5-0.5
		c0-0.2,0.1-0.4,0-0.6c-0.1-0.2-0.3-0.2-0.5-0.2c-0.7-0.4-1.1-1-1.1-1.8c0-0.3,0.2-0.6,0.5-0.6c0.3,0,0.5,0.2,0.5,0.6
		c0,0.4,0.2,0.8,0.6,0.9c0.4,0.2,0.8,0.1,1.1-0.2c0.3-0.3,0.5-0.7,0.3-1.2c-0.1-0.4-0.5-0.7-1.1-0.7c-0.7,0-1.2-0.3-1.7-0.8
		c-0.9-1.2-0.4-2.8,1-3.3c0.1-0.1,0.2-0.1,0.2-0.3c0-0.1,0-0.3,0-0.4c0-0.3,0.2-0.5,0.5-0.5c0.3,0,0.5,0.2,0.5,0.5
		C17.7,12.1,17.7,12.2,17.7,12.4z"/>
</g>
</svg>
