<svg version="1.1" id="Layer_1" xmlns="http://www.w3.org/2000/svg" xmlns:xlink="http://www.w3.org/1999/xlink" x="0px" y="0px"
	 viewBox="0 0 19.8 32" style="enable-background:new 0 0 19.8 32;" xml:space="preserve" width="48" height="48">
<style type="text/css">
	.st0{fill:#FFFFFF;}
	.st1{fill:#0832FF;}
</style>
<g>
	<path class="st0" d="M9.6,32c-2.4,0-4.9,0-7.3,0c-0.4,0-0.8-0.1-1.2-0.2c-1.2-0.5-1.4-1.9-0.6-2.8c0.5-0.6,1.2-0.9,2-0.9
		c0.2,0,0.2,0,0.1-0.2c-0.7-2.5-0.3-4.8,0.9-7c0.8-1.4,1.8-2.6,3.2-3.4c0.3-0.2,0.7-0.4,1-0.6c0.3-0.2,0.5-0.5,0.7-0.9
		c0.1-0.4,0-0.7-0.2-1c-0.3-0.4-0.7-0.6-1.1-0.8C4.8,12.9,3.4,11,2.7,8.6C2.3,7.2,2.2,5.7,2.6,4.2c0-0.1,0-0.2-0.1-0.2
		c-0.4,0-0.7,0-1.1-0.1C0.7,3.7,0.2,3.3,0,2.6C-0.1,2,0.1,1.4,0.6,1c0.5-0.6,1.2-0.8,2-0.9c0.4,0,0.8,0,1.3,0c0.8,0.1,1.7,0,2.5,0
		C7.8,0,9.3,0,10.8,0c2.2,0,4.4,0,6.7,0.1c0.4,0,0.8,0.1,1.2,0.3c1.2,0.5,1.5,1.8,0.7,2.8c-0.4,0.5-0.9,0.7-1.5,0.8
		C17.5,4,17.5,4,17.5,4.3c0.2,0.9,0.3,1.8,0.2,2.7c-0.4,3-1.7,5.3-4.3,6.9c-0.3,0.2-0.7,0.4-1,0.6c-0.1,0.1-0.2,0.2-0.4,0.3
		c-0.3,0.4-0.4,0.7-0.2,1.2c0.2,0.4,0.5,0.7,0.8,0.9c0.3,0.2,0.5,0.3,0.8,0.5c2.1,1.3,3.4,3.2,4,5.6c0.3,1.2,0.4,2.4,0.2,3.6
		c-0.1,0.4-0.1,0.9-0.3,1.3c0,0.1,0,0.2,0.1,0.2c0.5,0,1,0.1,1.4,0.4c0.9,0.5,1.2,1.6,0.6,2.4c-0.4,0.6-0.9,0.9-1.6,1
		C17.5,32,17,32,16.6,32C14.3,32,11.9,32,9.6,32C9.6,32,9.6,32,9.6,32z M16.5,23.3c0-0.1,0-0.2-0.1-0.2c-0.4-1.2-0.9-2.3-1.8-3.3
		c-0.6-0.7-1.3-1.2-2.1-1.7c-0.4-0.3-0.9-0.6-1.2-1c-0.9-1.1-0.8-2.4,0.3-3.3c0.3-0.2,0.6-0.4,0.9-0.6c1.9-1,3.1-2.6,3.7-4.7
		c0-0.1,0-0.1-0.1-0.2c-0.2,0-0.4-0.1-0.7-0.1C14,8,12.3,7.8,10.7,7.8c-1.5,0-3,0-4.4,0.2C5.4,8.1,4.6,8.2,3.8,8.4
		c-0.1,0-0.2,0-0.1,0.2c0.7,2.1,1.9,3.7,3.9,4.7c0.5,0.2,0.9,0.5,1.3,0.9c0.4,0.4,0.6,0.9,0.5,1.4c0,0.6-0.3,1.1-0.6,1.5
		c-0.4,0.5-0.9,0.8-1.5,1.1c-1.9,1.1-3,2.8-3.7,4.9c0,0.1,0,0.1,0.1,0.2c1.7,1.1,3.5,1.3,5.3,0.5c0.6-0.3,1.3-0.6,1.9-0.9
		c1.9-0.8,3.7-0.7,5.4,0.4C16.4,23.3,16.4,23.3,16.5,23.3z M9.8,28c2.3,0,4.4,0,6.4,0.1c0.1,0,0.2,0,0.2-0.2
		c0.3-0.9,0.4-1.8,0.4-2.7c0-0.3-0.1-0.4-0.3-0.6c-1.3-1.3-3.3-1.7-5-1c-0.7,0.3-1.3,0.6-2,0.9c-1.5,0.7-3.1,0.8-4.7,0.3
		c-0.5-0.1-0.9-0.3-1.3-0.6c-0.1-0.1-0.2,0-0.2,0.1c0,0.1,0,0.3,0,0.4c-0.1,1.1,0,2.1,0.4,3.1c0,0.1,0.1,0.1,0.2,0.1
		c0.3,0,0.7,0,1,0C6.6,28,8.4,28,9.8,28z M10.1,4.1C10.1,4.1,10.1,4.1,10.1,4.1c-1.5,0-2.9,0-4.4,0c-0.6,0-1.2,0-1.8,0
		c-0.2,0-0.2,0-0.3,0.2C3.5,4.7,3.4,5,3.4,5.4c-0.1,0.7,0,1.3,0.1,2c0,0.1,0,0.1,0.1,0.1C3.8,7.4,4,7.4,4.2,7.4C5,7.2,5.8,7.1,6.5,7
		c0.9-0.1,1.7-0.2,2.6-0.2c1.4,0,2.9,0,4.3,0.2c1,0.1,2.1,0.3,3.1,0.5c0.1,0,0.1,0,0.1-0.1c0-0.1,0-0.3,0-0.4c0.1-0.9,0-1.9-0.2-2.8
		c0-0.1-0.1-0.1-0.2-0.1C14.2,4.1,12.2,4.1,10.1,4.1z M9.6,31.1C9.6,31.1,9.6,31.1,9.6,31.1c2.3,0,4.7,0,7,0c0.3,0,0.7,0,1-0.1
		c0.4-0.1,0.8-0.2,1-0.6c0.3-0.4,0.2-0.8-0.2-1c-0.2-0.1-0.5-0.2-0.7-0.2C16.8,29,16,29,15.1,29c-1.7-0.1-3.4-0.1-5,0
		c-1.2,0-2.4,0-3.6,0.1c-1,0-1.9,0.1-2.9,0c-0.3,0-0.7,0-1,0c-0.5,0-1,0.2-1.3,0.7c-0.3,0.5-0.2,1,0.3,1.2C1.8,31,2,31.1,2.3,31.1
		C4.7,31.1,7.2,31.1,9.6,31.1z M9.6,3.1C9.6,3.1,9.6,3.1,9.6,3.1c2.2,0,4.4,0,6.7,0c0.4,0,0.8,0,1.2,0c0.4-0.1,0.8-0.2,1.1-0.5
		c0.4-0.5,0.3-1-0.3-1.2c-0.3-0.1-0.6-0.2-1-0.2C16.1,1,15,1,13.8,1c-2.7-0.1-5.4,0-8.1,0.1c-0.5,0-1,0.1-1.6,0c-0.5,0-1-0.1-1.6,0
		C2,1.1,1.5,1.3,1.2,1.7C0.8,2.2,0.9,2.7,1.5,3C1.7,3.1,2,3.1,2.3,3.1C4.7,3.1,7.2,3.1,9.6,3.1z"/>
</g>
</svg>
