<?xml version="1.0" standalone="no"?>
<!DOCTYPE svg PUBLIC "-//W3C//DTD SVG 1.1//EN" "http://www.w3.org/Graphics/SVG/1.1/DTD/svg11.dtd" >
<svg xmlns="http://www.w3.org/2000/svg" xmlns:xlink="http://www.w3.org/1999/xlink" version="1.1">
<metadata>
Created by FontForge 20190801 at Tue Oct 17 07:12:35 2023
 By root
Copyright (c) 2023 by Olivia Wood &#38; Alexander Ru:tten, under exclusive license to TypeMates. All rights reserved.
</metadata>
<defs>
<font id="EasyGroteskDemo-ExtraBold" horiz-adv-x="651" >
  <font-face 
    font-family="Easy Grotesk Demo ExtraBold"
    font-weight="800"
    font-stretch="normal"
    units-per-em="1000"
    panose-1="0 0 0 0 0 0 0 0 0 0"
    ascent="800"
    descent="-200"
    x-height="527"
    cap-height="700"
    bbox="-25 -215 1027 764"
    underline-thickness="52"
    underline-position="-172"
    unicode-range="U+0020-03C0"
  />
<missing-glyph horiz-adv-x="703" 
d="M72 700h232l24 -301l7 -153h19l8 153l24 301h238v-700h-154v382h-19l-9 -114l-38 -268h-125l-36 268l-8 114h-21v-382h-142v700zM72 -41h85q26 0 36 -15.5t10 -54.5t-10 -54.5t-36 -15.5h-85v140zM158 -117v12h-45v-12h45zM214 -41h111v-42h-58v-13h49v-32h-49v-13h58
v-40h-111v140zM334 -41h63l6 -60v-33h6v33l8 60h61v-140h-41v75h-7v-23l-9 -52h-31l-8 52v23h-9v-75h-39v140zM502 -170.5q-14 15.5 -14 59.5q0 43 14.5 58t55.5 15q42 0 57 -15t15 -58q0 -44 -15 -59.5t-57 -15.5t-56 15.5zM564 -149v75h-12v-75h12z" />
    <glyph glyph-name=".notdef" horiz-adv-x="703" 
d="M72 700h232l24 -301l7 -153h19l8 153l24 301h238v-700h-154v382h-19l-9 -114l-38 -268h-125l-36 268l-8 114h-21v-382h-142v700zM72 -41h85q26 0 36 -15.5t10 -54.5t-10 -54.5t-36 -15.5h-85v140zM158 -117v12h-45v-12h45zM214 -41h111v-42h-58v-13h49v-32h-49v-13h58
v-40h-111v140zM334 -41h63l6 -60v-33h6v33l8 60h61v-140h-41v75h-7v-23l-9 -52h-31l-8 52v23h-9v-75h-39v140zM502 -170.5q-14 15.5 -14 59.5q0 43 14.5 58t55.5 15q42 0 57 -15t15 -58q0 -44 -15 -59.5t-57 -15.5t-56 15.5zM564 -149v75h-12v-75h12z" />
    <glyph glyph-name="space" unicode=" " horiz-adv-x="228" 
 />
    <glyph glyph-name="space" unicode="&#xa0;" horiz-adv-x="228" 
 />
    <glyph glyph-name="A" unicode="A" horiz-adv-x="743" 
d="M263 700h216l252 -700h-174l-48 141h-277l-46 -141h-174zM466 269l-68 201q-20 60 -26 95h-6q-3 -29 -25 -95l-66 -201h191z" />
    <glyph glyph-name="B" unicode="B" horiz-adv-x="693" 
d="M72 700h345q68 0 120.5 -23.5t81.5 -65.5t29 -96q0 -66 -42 -108.5t-111 -56.5q63 -13 103 -56.5t40 -108.5q0 -54 -29 -96t-81.5 -65.5t-120.5 -23.5h-335v700zM446 149q24 23 24 59q0 35 -23.5 57.5t-65.5 22.5h-144v-162h144q41 0 65 23zM392 411q39 0 63.5 23.5
t24.5 58.5t-24.5 58t-63.5 23h-155v-163h155z" />
    <glyph glyph-name="C" unicode="C" horiz-adv-x="766" 
d="M209 31.5q-83 46.5 -130 130t-47 188.5t47 188.5t130 130t186 46.5q91 0 164 -33.5t119.5 -92.5t62.5 -134l-173 -36q-11 66 -58 106.5t-113 40.5q-54 0 -97 -26.5t-67.5 -75.5t-24.5 -114t24.5 -114t67.5 -75.5t97 -26.5q66 0 113 40.5t58 106.5l173 -36
q-16 -75 -62.5 -134t-119.5 -92.5t-164 -33.5q-103 0 -186 46.5z" />
    <glyph glyph-name="D" unicode="D" horiz-adv-x="755" 
d="M72 700h279q111 0 195 -43.5t130.5 -123t46.5 -183.5t-46.5 -183.5t-130.5 -123t-195 -43.5h-279v700zM493 195q54 58 54 155t-54 155t-147 58h-105v-426h105q93 0 147 58z" />
    <glyph glyph-name="E" unicode="E" horiz-adv-x="627" 
d="M72 700h512v-137h-342v-150h289v-137h-289v-139h341v-137h-511v700z" />
    <glyph glyph-name="F" unicode="F" horiz-adv-x="589" 
d="M72 700h496v-137h-326v-167h290v-137h-290v-259h-170v700z" />
    <glyph glyph-name="G" unicode="G" horiz-adv-x="766" 
d="M207.5 30q-81.5 45 -128.5 128t-47 192t48.5 192t132 128t185.5 45q92 0 163.5 -31.5t116 -85t60.5 -118.5l-171 -52q-13 62 -58 101t-111 39q-54 0 -98 -27t-69 -76.5t-25 -114.5t24 -114.5t66 -76.5t94 -27q67 0 108 28t51 79h-174v135h337l2 -42q5 -102 -33.5 -180.5
t-113.5 -122.5t-177 -44q-101 0 -182.5 45z" />
    <glyph glyph-name="H" unicode="H" horiz-adv-x="752" 
d="M510 274h-268v-274h-170v700h170v-289h268v289h170v-700h-170v274z" />
    <glyph glyph-name="I" unicode="I" horiz-adv-x="315" 
d="M72 700h170v-700h-170v700z" />
    <glyph glyph-name="J" unicode="J" horiz-adv-x="581" 
d="M135 14.5q-56 29.5 -89 81t-37 114.5l159 23q5 -47 30 -76.5t64 -29.5q41 0 63.5 27t22.5 84v462h170v-458q0 -120 -68.5 -188.5t-188.5 -68.5q-70 0 -126 29.5z" />
    <glyph glyph-name="K" unicode="K" horiz-adv-x="705" 
d="M72 700h165v-296l260 296h197l-239 -264l215 -436h-180l-152 317l-101 -110v-207h-165v700z" />
    <glyph glyph-name="L" unicode="L" horiz-adv-x="565" 
d="M72 700h170v-562h296v-138h-466v700z" />
    <glyph glyph-name="M" unicode="M" horiz-adv-x="916" 
d="M72 700h216l171 -503l170 503h215v-700h-151v469l-162 -469h-145l-143 412q-12 44 -16 81h-9q5 -27 5 -81v-412h-151v700z" />
    <glyph glyph-name="N" unicode="N" horiz-adv-x="769" 
d="M72 700h164l244 -355q47 -66 61 -104h6q-6 50 -8 126v333h158v-700h-164l-244 356q-47 66 -61 104h-6q6 -50 8 -126v-334h-158v700z" />
    <glyph glyph-name="O" unicode="O" horiz-adv-x="798" 
d="M210.5 32q-83.5 47 -131 130.5t-47.5 187.5t47.5 187.5t131 130.5t188.5 47q104 0 187.5 -47t131 -130.5t47.5 -187.5t-47.5 -187.5t-131 -130.5t-187.5 -47q-105 0 -188.5 47zM498.5 161q43.5 27 67.5 76t24 113t-24 113t-67.5 76t-99.5 27t-99.5 -27t-67.5 -76
t-24 -113t24 -113t67.5 -76t99.5 -27t99.5 27z" />
    <glyph glyph-name="P" unicode="P" horiz-adv-x="657" 
d="M72 700h302q75 0 134 -31t92 -85t33 -120t-33 -120t-92 -85.5t-134 -31.5h-133v-227h-169v700zM434 391.5q29 27.5 29 72.5q0 44 -29.5 71.5t-75.5 27.5h-119v-199h119q47 0 76 27.5z" />
    <glyph glyph-name="Q" unicode="Q" horiz-adv-x="798" 
d="M547 13q-70 -28 -148 -28q-105 0 -188.5 47t-131 130.5t-47.5 187.5t47.5 187.5t131 130.5t188.5 47q104 0 187.5 -47t131 -130.5t47.5 -187.5q0 -76 -25.5 -141.5t-72.5 -114.5l101 -119l-112 -91zM441 138l-93 111l111 92l99 -118q32 53 32 127q0 64 -24 113t-67.5 76
t-99.5 27t-99.5 -27t-67.5 -76t-24 -113t24 -113t67.5 -76t99.5 -27q25 0 42 4z" />
    <glyph glyph-name="R" unicode="R" horiz-adv-x="697" 
d="M72 700h321q78 0 139 -28.5t95 -82t34 -125.5q0 -92 -52 -142.5t-138 -66.5q40 -6 71 -31.5t43 -73.5l26 -101q8 -33 20 -49h-179q-20 9 -31 51l-28 110q-7 31 -30 48t-58 17h-64v-226h-169v700zM455.5 387.5q32.5 30.5 32.5 75.5t-32.5 75.5t-81.5 30.5h-133v-212h133
q49 0 81.5 30.5z" />
    <glyph glyph-name="S" unicode="S" horiz-adv-x="660" 
d="M190 12q-60 27 -96 74.5t-45 107.5l172 42q8 -52 38.5 -81.5t77.5 -29.5q41 0 64.5 17.5t23.5 49.5q0 25 -17.5 41t-53.5 24l-101 22q-90 20 -142 76t-52 136q0 65 35.5 116t99 79.5t145.5 28.5q84 0 146 -29.5t98 -78.5t48 -106l-169 -44q-10 58 -44 88t-88 30
q-46 0 -72 -18.5t-26 -52.5q0 -53 68 -69l98 -24q100 -25 150 -73t50 -129q0 -68 -34.5 -118.5t-95.5 -78t-140 -27.5q-78 0 -138 27z" />
    <glyph glyph-name="T" unicode="T" horiz-adv-x="626" 
d="M228 562h-205v138h581v-138h-206v-562h-170v562z" />
    <glyph glyph-name="U" unicode="U" horiz-adv-x="745" 
d="M211 20.5q-70 35.5 -108.5 104t-38.5 164.5v411h170v-419q0 -69 37.5 -110t101.5 -41t101 41t37 110v419h170v-411q0 -96 -39 -164.5t-109 -104t-161 -35.5t-161 35.5z" />
    <glyph glyph-name="V" unicode="V" horiz-adv-x="736" 
d="M12 700h184l144 -438q18 -54 25 -95h6q3 29 25 95l144 438h184l-253 -700h-205z" />
    <glyph glyph-name="W" unicode="W" horiz-adv-x="1042" 
d="M16 700h180l107 -443q9 -39 12 -74h6q3 40 10 74l95 443h197l96 -443q7 -34 10 -74h6q3 31 11 74l107 443h174l-201 -700h-199l-106 495l-107 -495h-198z" />
    <glyph glyph-name="X" unicode="X" horiz-adv-x="720" 
d="M357 216l-147 -216h-189l242 350l-243 350h190l152 -217l148 217h188l-243 -350l245 -350h-193z" />
    <glyph glyph-name="Y" unicode="Y" horiz-adv-x="692" 
d="M262 210l-253 490h193l120 -267q18 -41 22 -66h6q4 31 22 66l120 267h191l-253 -490v-210h-168v210z" />
    <glyph glyph-name="Z" unicode="Z" horiz-adv-x="615" 
d="M59 120l320 442h-344v138h548v-118l-317 -444h316v-138h-523v120z" />
    <glyph glyph-name="a" unicode="a" horiz-adv-x="586" 
d="M108 26q-45 38 -45 103q0 84 81.5 133t223.5 75q-1 35 -24 55.5t-67 20.5q-43 0 -71 -24t-37 -62l-150 28q12 53 47.5 96t90.5 67.5t123 24.5q115 0 181.5 -54t66.5 -163v-188q0 -84 10 -138h-151q-7 29 -7 85h-4q-19 -45 -60 -71t-96 -26q-67 0 -112 38zM237.5 115
q14.5 -13 39.5 -13q40 0 65.5 29.5t25.5 79.5v28q-75 -18 -110 -38.5t-35 -50.5q0 -22 14.5 -35z" />
    <glyph glyph-name="b" unicode="b" 
d="M294 6.5q-40 21.5 -63 58.5h-4v-65h-166v730h166v-267h4q23 36 63 57.5t87 21.5q68 0 123 -34.5t86.5 -97.5t31.5 -146q0 -84 -31.5 -147t-86.5 -97.5t-123 -34.5q-47 0 -87 21.5zM423.5 162.5q30.5 37.5 30.5 101.5q0 63 -31 101t-82 38q-52 0 -86 -38t-34 -101
q0 -62 34 -100.5t86 -38.5t82.5 37.5z" />
    <glyph glyph-name="c" unicode="c" horiz-adv-x="592" 
d="M163 21q-63 36 -99 99.5t-36 143.5q0 79 36 142.5t99 99.5t141 36q99 0 170.5 -52t96.5 -136l-162 -33q-10 36 -36.5 59t-66.5 23q-47 0 -78.5 -40.5t-31.5 -98.5q0 -59 31 -99t79 -40q40 0 66.5 23t36.5 59l162 -33q-25 -84 -96.5 -136.5t-170.5 -52.5q-78 0 -141 36z
" />
    <glyph glyph-name="d" unicode="d" 
d="M147 19.5q-55 34.5 -87 97.5t-32 147q0 83 32 146t87 97.5t123 34.5q47 0 87 -21.5t63 -57.5h4v267h166v-730h-166v65h-4q-23 -37 -63 -58.5t-87 -21.5q-68 0 -123 34.5zM396 163.5q34 38.5 34 100.5q0 63 -34 101t-86 38q-51 0 -82.5 -38t-31.5 -101q0 -64 31 -101.5
t83 -37.5t86 38.5z" />
    <glyph glyph-name="e" unicode="e" horiz-adv-x="605" 
d="M163 20.5q-63 35.5 -98.5 99t-35.5 144.5q0 80 36.5 143.5t99.5 99.5t141 36q81 0 142 -35.5t94 -98.5t33 -145v-48h-382q10 -48 40.5 -73t75.5 -25q70 0 107 48l115 -80q-33 -46 -90.5 -73.5t-134.5 -27.5q-80 0 -143 35.5zM412 323v1q0 38 -28.5 67t-77.5 29
q-41 0 -70.5 -24.5t-41.5 -72.5h218z" />
    <glyph glyph-name="f" unicode="f" horiz-adv-x="420" 
d="M132.5 642q25.5 49 72.5 76t110 27q31 0 61.5 -8t51.5 -23l-56 -121q-21 16 -51 16q-22 0 -36 -16t-14 -45v-21h119v-125h-119v-402h-164v402h-90v125h90v3q0 63 25.5 112z" />
    <glyph glyph-name="g" unicode="g" horiz-adv-x="608" 
d="M135 -183q-61 32 -61 89q0 59 64 85q-98 25 -98 111q0 35 22 62.5t60 45.5q-73 55 -73 139q0 58 33.5 101.5t91.5 67.5t129 24q54 0 107 -16q18 40 53 68.5t83 28.5q24 0 48 -3v-125q-20 7 -51 7q-29 0 -51 -20q64 -53 64 -133q0 -58 -33.5 -102.5t-91 -68t-128.5 -23.5
q-48 0 -92 12q-13 -5 -19 -12.5t-6 -19.5q0 -13 10.5 -20t27.5 -7h152q97 0 142 -41t45 -105q0 -52 -31.5 -92t-90 -62.5t-136.5 -22.5q-109 0 -170 32zM371 290.5q26 21.5 26 58.5q0 38 -26 60.5t-68 22.5q-41 0 -67.5 -22.5t-26.5 -60.5q0 -37 26 -58.5t68 -21.5t68 21.5z
M246 -97q26 -13 70 -13q50 0 76.5 13.5t26.5 37.5q0 19 -15 29.5t-46 10.5h-108q-30 -11 -30 -42q0 -23 26 -36z" />
    <glyph glyph-name="h" unicode="h" horiz-adv-x="636" 
d="M61 730h166v-289h4q17 48 57 74.5t96 26.5q92 0 143.5 -58.5t51.5 -152.5v-331h-166v296q0 48 -23.5 77.5t-66.5 29.5q-45 0 -70.5 -30.5t-25.5 -78.5v-294h-166v730z" />
    <glyph glyph-name="i" unicode="i" horiz-adv-x="287" 
d="M60 527h167v-527h-167v527zM72 609q-29 26 -29 64t29 64.5t71 26.5q41 0 70 -27t29 -64q0 -38 -29 -64t-70 -26q-42 0 -71 26z" />
    <glyph glyph-name="j" unicode="j" horiz-adv-x="308" 
d="M-25 -194l4 129q22 -4 41 -4q32 0 47 18t15 56v522h166v-507q0 -107 -55 -164.5t-150 -57.5q-39 0 -68 8zM89 609q-29 26 -29 64t29 64.5t71 26.5q41 0 70 -27t29 -64q0 -38 -29 -64t-70 -26q-42 0 -71 26z" />
    <glyph glyph-name="k" unicode="k" horiz-adv-x="618" 
d="M61 730h166v-442l204 239h175l-192 -209l165 -318h-166l-106 215l-80 -85v-130h-166v730z" />
    <glyph glyph-name="l" unicode="l" horiz-adv-x="288" 
d="M61 730h166v-730h-166v730z" />
    <glyph glyph-name="m" unicode="m" horiz-adv-x="919" 
d="M60 527h153v-90h4q17 49 57.5 77t97.5 28q58 0 94 -25.5t55 -80.5h4q17 49 59 77.5t98 28.5q85 0 133 -58t48 -157v-327h-161v310q0 44 -21 69t-57 25t-59 -26t-23 -69v-309h-161v310q0 44 -21 69t-57 25q-37 0 -59.5 -26t-22.5 -69v-309h-161v527z" />
    <glyph glyph-name="n" unicode="n" horiz-adv-x="635" 
d="M60 527h159v-90h4q20 51 61 78t100 27q92 0 143 -58.5t51 -152.5v-331h-166v299q0 47 -24.5 75.5t-66.5 28.5q-44 0 -69 -29t-25 -77v-297h-167v527z" />
    <glyph glyph-name="o" unicode="o" horiz-adv-x="615" 
d="M164.5 21q-63.5 36 -100 100t-36.5 143t36.5 142.5t100 99.5t142.5 36t143 -36t100 -99.5t36 -142.5t-36 -143t-100 -100t-143 -36t-142.5 36zM387.5 162.5q30.5 37.5 30.5 101.5q0 63 -30.5 101t-80.5 38q-49 0 -80 -38t-31 -101q0 -64 31 -101.5t80 -37.5
q50 0 80.5 37.5z" />
    <glyph glyph-name="p" unicode="p" 
d="M61 527h166v-64h4q23 36 63 57.5t87 21.5q68 0 123 -34.5t86.5 -97.5t31.5 -146q0 -84 -31.5 -147t-86.5 -97.5t-123 -34.5q-47 0 -87 21.5t-63 58.5h-4v-265h-166v727zM423.5 162.5q30.5 37.5 30.5 101.5q0 63 -31 101t-82 38q-52 0 -86 -38t-34 -101q0 -62 34 -100.5
t86 -38.5t82.5 37.5z" />
    <glyph glyph-name="q" unicode="q" 
d="M424 65h-4q-23 -37 -63 -58.5t-87 -21.5q-68 0 -123 34.5t-87 97.5t-32 147q0 83 32 146t87 97.5t123 34.5q47 0 87 -21.5t63 -57.5h4v64h166v-727h-166v265zM396 163.5q34 38.5 34 100.5q0 63 -34 101t-86 38q-51 0 -82.5 -38t-31.5 -101q0 -64 31 -101.5t83 -37.5
t86 38.5z" />
    <glyph glyph-name="r" unicode="r" horiz-adv-x="421" 
d="M60 527h154v-144h4q15 71 54 111.5t91 40.5q25 0 46 -7l-27 -166q-17 5 -43 5q-54 0 -83 -38t-29 -112v-217h-167v527z" />
    <glyph glyph-name="s" unicode="s" horiz-adv-x="547" 
d="M155 6.5q-50 21.5 -77.5 54.5t-32.5 69l152 39q2 -31 23.5 -50t55.5 -19q30 0 46 11.5t16 31.5q0 19 -12.5 30t-39.5 17l-82 18q-76 16 -120 57t-44 104q0 80 64 126.5t173 46.5q71 0 124 -23t84 -58t39 -71l-150 -51q-7 40 -33 63t-64 23q-35 0 -54 -13t-19 -36
q0 -37 54 -50l84 -18q76 -18 116.5 -53t40.5 -96q0 -49 -28 -89t-79.5 -62.5t-119.5 -22.5q-67 0 -117 21.5z" />
    <glyph glyph-name="t" unicode="t" horiz-adv-x="427" 
d="M152.5 35.5q-52.5 50.5 -52.5 138.5v228h-83v125h83v140h166v-140h135v-125h-135v-209q0 -35 17.5 -52.5t48.5 -17.5q25 0 51 8l18 -130q-46 -16 -112 -16q-84 0 -136.5 50.5z" />
    <glyph glyph-name="u" unicode="u" horiz-adv-x="635" 
d="M108 43.5q-51 58.5 -51 152.5v331h166v-299q0 -47 24.5 -75t66.5 -28q44 0 69 28.5t25 76.5v297h167v-527h-159v90h-4q-21 -50 -62 -77.5t-99 -27.5q-92 0 -143 58.5z" />
    <glyph glyph-name="v" unicode="v" horiz-adv-x="608" 
d="M12 527h174l100 -306q14 -45 19 -79h6q5 34 19 79l99 306h167l-197 -527h-190z" />
    <glyph glyph-name="w" unicode="w" horiz-adv-x="862" 
d="M13 527h156l90 -372l90 372h164l89 -372l90 372h157l-157 -527h-168l-93 365l-94 -365h-168z" />
    <glyph glyph-name="x" unicode="x" horiz-adv-x="617" 
d="M305 142l-104 -142h-181l196 259l-204 268h185l115 -150l114 150h179l-203 -268l197 -259h-186z" />
    <glyph glyph-name="y" unicode="y" horiz-adv-x="605" 
d="M35 -183l25 135q22 -8 38 -12.5t34 -4.5q52 0 75 46l10 19l-206 527h176l92 -272q16 -51 20 -79l6 1q2 19 8 39t13 39l95 272h171l-207 -531q-78 -200 -254 -200q-49 0 -96 21z" />
    <glyph glyph-name="z" unicode="z" horiz-adv-x="519" 
d="M59 112l232 290h-257v125h451v-111l-233 -290h224l3 -126h-420v112z" />
    <glyph glyph-name="pi" unicode="&#x3c0;" horiz-adv-x="708" 
d="M563.5 137q15.5 -19 44.5 -19q23 0 53 11l21 -122q-55 -19 -116 -19q-88 0 -133.5 48.5t-45.5 141.5v224h-117v-402h-161v402h-89v125h635v-125h-107v-207q0 -39 15.5 -58z" />
    <glyph glyph-name="zero" unicode="0" horiz-adv-x="676" 
d="M173 31.5q-68 46.5 -103 129t-35 189.5t35 189.5t103 129t165 46.5t165 -46.5t103 -129t35 -189.5t-35 -189.5t-103 -129t-165 -46.5t-165 46.5zM441.5 188q31.5 58 31.5 162t-31.5 162t-103.5 58t-103.5 -58t-31.5 -162t31.5 -162t103.5 -58t103.5 58z" />
    <glyph glyph-name="one" unicode="1" horiz-adv-x="437" 
d="M134 448q-44 -17 -95 -17h-12v158h14q78 0 121.5 23.5t64.5 87.5h138v-700h-167v491q-20 -26 -64 -43z" />
    <glyph glyph-name="two" unicode="2" horiz-adv-x="601" 
d="M263.5 259.5q69.5 57.5 101 106.5t31.5 105q0 49 -26 78.5t-76 29.5q-49 0 -78 -29t-29 -73q0 -22 9 -46l-158 -50q-14 43 -14 89q0 71 36 127t99.5 87t143.5 31q124 0 193 -64.5t69 -171.5q0 -102 -67 -179.5t-206 -162.5h253v-137h-483v113q132 89 201.5 146.5z" />
    <glyph glyph-name="three" unicode="3" horiz-adv-x="607" 
d="M173.5 14.5q-57.5 29.5 -91 80t-37.5 110.5l158 19q5 -47 29 -77.5t69 -30.5q44 0 67.5 20t23.5 57q0 38 -29.5 59t-80.5 21h-48v127h53q60 0 93.5 26t33.5 70q0 41 -29 64.5t-79 23.5q-53 0 -83.5 -32.5t-34.5 -84.5l-163 17q7 67 44.5 119.5t99 82t137.5 29.5
q78 0 138.5 -24.5t94.5 -71t34 -109.5q0 -46 -21.5 -82.5t-56.5 -59t-74 -28.5q58 -12 93.5 -50t35.5 -104q0 -57 -30 -103t-86 -72t-130 -26q-73 0 -130.5 29.5z" />
    <glyph glyph-name="four" unicode="4" horiz-adv-x="642" 
d="M370 136h-341v142l302 422h193v-436h95v-128h-95v-136h-154v136zM370 264v212q1 39 11 82l-8 3q-3 -18 -11.5 -32.5t-25.5 -38.5l-163 -226h197z" />
    <glyph glyph-name="five" unicode="5" horiz-adv-x="605" 
d="M131.5 37.5q-69.5 52.5 -84.5 137.5l161 25q6 -36 32.5 -60t66.5 -24q43 0 70 28t27 73q0 44 -26.5 72t-67.5 28q-37 0 -62.5 -15.5t-37.5 -39.5l-153 38l33 400h461v-137h-325l-17 -181q23 30 63.5 48.5t87.5 18.5q60 0 108.5 -27.5t76 -79.5t27.5 -122q0 -64 -36 -118
t-97.5 -85.5t-136.5 -31.5q-101 0 -170.5 52.5z" />
    <glyph glyph-name="six" unicode="6" horiz-adv-x="626" 
d="M178 25q-65 40 -102.5 118.5t-37.5 189.5q0 118 39.5 204.5t109 132t156.5 45.5q113 0 180 -53.5t87 -135.5l-161 -45q-11 50 -39 75.5t-74 25.5q-42 0 -73.5 -28.5t-48.5 -78.5t-17 -111q25 35 64.5 54t88.5 19q64 0 116.5 -29.5t82 -80t29.5 -111.5q0 -64 -33 -117
t-91 -83.5t-130 -30.5q-81 0 -146 40zM395.5 137q30.5 29 30.5 74t-30.5 74.5t-75.5 29.5q-44 0 -75 -30t-31 -74q0 -45 30.5 -74t75.5 -29t75.5 29z" />
    <glyph glyph-name="seven" unicode="7" horiz-adv-x="552" 
d="M176 324q64 150 190 239h-343v137h513v-121q-122 -103 -182 -229t-60 -285q0 -43 2 -65h-179q-5 174 59 324z" />
    <glyph glyph-name="eight" unicode="8" horiz-adv-x="615" 
d="M178 11q-57 26 -89.5 71.5t-32.5 102.5t32.5 98.5t87.5 55.5q-63 16 -99.5 62t-36.5 107q0 58 34.5 105.5t95.5 74.5t137 27q77 0 138 -27t95 -74.5t34 -105.5q0 -61 -36.5 -107t-99.5 -62q56 -14 88.5 -55t32.5 -99q0 -57 -32.5 -102.5t-89.5 -71.5t-130 -26
q-72 0 -129 26zM378.5 129.5q27.5 24.5 27.5 62.5q0 40 -27.5 65t-71.5 25q-43 0 -71 -25t-28 -65q0 -38 28 -62.5t71 -24.5q44 0 71.5 24.5zM385.5 439q30.5 26 30.5 66t-30 65t-79 25t-79 -25t-30 -65t30.5 -66t78.5 -26t78.5 26z" />
    <glyph glyph-name="nine" unicode="9" horiz-adv-x="626" 
d="M122.5 36q-68.5 51 -89.5 126l163 43q11 -39 37 -63t67 -24q59 0 95 50.5t30 147.5q-25 -34 -65 -52t-91 -18q-64 0 -117 30t-83 83t-30 120q0 65 34.5 119t95 85.5t134.5 31.5q84 0 148.5 -44.5t101 -129t36.5 -201.5q0 -110 -35.5 -190t-102 -122.5t-156.5 -42.5
q-104 0 -172.5 51zM379.5 399.5q32.5 30.5 32.5 76.5q0 49 -32 80t-79 31q-46 0 -78 -31t-32 -80q0 -46 32 -76.5t78 -30.5t78.5 30.5z" />
    <glyph glyph-name="period" unicode="." horiz-adv-x="316" 
d="M84.5 14.5q-30.5 29.5 -30.5 69.5t30.5 69.5t73.5 29.5t73.5 -29.5t30.5 -69.5t-30.5 -69.5t-73.5 -29.5t-73.5 29.5z" />
    <glyph glyph-name="comma" unicode="," horiz-adv-x="310" 
d="M128 -64.5q31 20.5 33 53.5q-9 -4 -24 -4q-39 0 -66 28t-27 68t31 69.5t74 29.5q47 0 80.5 -36.5t33.5 -97.5q0 -90 -53.5 -147.5t-154.5 -69.5l-1 84q43 2 74 22.5z" />
    <glyph glyph-name="exclam" unicode="!" horiz-adv-x="319" 
d="M73 700h173l-19 -478h-135zM91 11q-27 26 -27 65q0 37 27.5 62.5t67.5 25.5t68 -25.5t28 -62.5q0 -39 -27.5 -65t-68.5 -26t-68 26z" />
    <glyph glyph-name="question" unicode="?" horiz-adv-x="582" 
d="M216 253q0 85 60 133l53 42q25 19 38 38.5t13 46.5q0 33 -23 53t-65 20t-67.5 -25t-25.5 -64q0 -25 10 -48l-157 -52q-16 48 -16 93q0 68 34.5 119t93.5 78.5t130 27.5q76 0 134 -24t90 -69t32 -105q0 -56 -21.5 -93t-63.5 -68l-62 -47q-46 -35 -49 -95h-135q-3 21 -3 39
zM218.5 11q-27.5 26 -27.5 64t27.5 63.5t68.5 25.5q40 0 67.5 -26t27.5 -63q0 -38 -27.5 -64t-67.5 -26q-41 0 -68.5 26z" />
    <glyph glyph-name="hyphen" unicode="-" horiz-adv-x="486" 
d="M47 337h392v-134h-392v134z" />
    <glyph glyph-name="ampersand" unicode="&#x26;" horiz-adv-x="730" 
d="M158.5 8q-54.5 23 -84.5 65.5t-30 98.5q0 59 32.5 100t87.5 72q-38 39 -59.5 81t-21.5 92q0 56 29.5 101t84 71t124.5 26q67 0 118 -24t78.5 -66t27.5 -95q0 -69 -42.5 -118.5t-114.5 -82.5l-9 -4l108 -103q35 65 43 139h142q-9 -60 -32 -119t-61 -107l143 -135h-196
l-45 42q-88 -57 -197 -57q-71 0 -125.5 23zM221 123q27 -24 80 -24q52 0 94 25l-146 138q-55 -32 -55 -78q0 -37 27 -61zM243.5 464.5q15.5 -25.5 49.5 -58.5l10 5q43 22 68.5 51.5t25.5 64.5q0 32 -24 54t-61 22q-39 0 -61.5 -23t-22.5 -61q0 -29 15.5 -54.5z" />
    <glyph glyph-name="uni00B5" unicode="&#xb5;" horiz-adv-x="639" 
d="M61 527h166v-299q0 -47 24.5 -75t67.5 -28q44 0 69 28.5t25 76.5v297h166v-527h-159v90h-4q-20 -50 -62.5 -77.5t-99.5 -27.5q-30 0 -54 9l26 -193h-165v726z" />
    </font>
</defs>
</svg>
