<svg xmlns="http://www.w3.org/2000/svg" width="285" height="53" viewBox="0 0 285 53">
  <g id="Group_3034" data-name="Group 3034" transform="translate(-80 -10909)">
    <g id="Group_3033" data-name="Group 3033">
      <g id="Group_2863" data-name="Group 2863" transform="translate(-739 1133)">
        <g id="Group_2567" data-name="Group 2567" transform="translate(-571 10025)">
          <path id="Path_3" data-name="Path 3" d="M12.285-68.7a7.8,7.8,0,0,1-5.124-1.6A7.6,7.6,0,0,1,4.59-74.147l2.1-1.051q1.5,4.317,5.593,4.317a4.8,4.8,0,0,0,3.1-.976,2.9,2.9,0,0,0,1.22-2.327,2.751,2.751,0,0,0-1.145-2.346,7.421,7.421,0,0,0-2.8-1.22q-1.652-.375-3.3-.826a6.093,6.093,0,0,1-2.8-1.614,4.3,4.3,0,0,1-1.145-3.153A4.2,4.2,0,0,1,7.2-86.909a7.894,7.894,0,0,1,4.786-1.314,7.354,7.354,0,0,1,4.279,1.295,5.876,5.876,0,0,1,2.44,3.359l-2.064.938a4.2,4.2,0,0,0-1.727-2.459,5.194,5.194,0,0,0-3.078-.957,5.277,5.277,0,0,0-2.928.694,2.26,2.26,0,0,0-1.051,2.008,2.082,2.082,0,0,0,1.164,1.877,9.649,9.649,0,0,0,2.8,1.032q1.633.357,3.284.863a5.851,5.851,0,0,1,2.8,1.858,5.272,5.272,0,0,1,1.145,3.528,4.861,4.861,0,0,1-1.858,3.979A7.556,7.556,0,0,1,12.285-68.7ZM22.044-95.58h2.928v3.6H22.044ZM22.307-69V-87.923h2.365V-69Zm6.719,0V-87.923h2.365v3.941a6.477,6.477,0,0,1,2.158-3.1,5.809,5.809,0,0,1,3.66-1.145,7.555,7.555,0,0,1,4.167,1.107,4.812,4.812,0,0,1,2.177,3.1,7.075,7.075,0,0,1,2.384-3.04,6.05,6.05,0,0,1,3.66-1.164,6.428,6.428,0,0,1,4.786,1.764,6.584,6.584,0,0,1,1.745,4.842V-69H53.762V-81.316a4.849,4.849,0,0,0-1.2-3.435,4.331,4.331,0,0,0-3.341-1.295,4.613,4.613,0,0,0-4.035,2.121,9.577,9.577,0,0,0-1.445,5.5V-69H41.375V-81.316a4.881,4.881,0,0,0-1.182-3.453,4.3,4.3,0,0,0-3.322-1.276,4.613,4.613,0,0,0-4.035,2.121,9.577,9.577,0,0,0-1.445,5.5V-69Zm31.455,6.832v-25.75h2.365v3.04a6,6,0,0,1,2.609-2.365,8.394,8.394,0,0,1,3.96-.976,8.539,8.539,0,0,1,6.775,2.759,10.225,10.225,0,0,1,2.421,7,10.275,10.275,0,0,1-2.4,7A8.481,8.481,0,0,1,69.452-68.7a8.215,8.215,0,0,1-3.735-.938,7.522,7.522,0,0,1-2.872-2.4v9.872Zm8.859-8.708a6.317,6.317,0,0,0,4.936-2.064,7.938,7.938,0,0,0,1.858-5.518,7.938,7.938,0,0,0-1.858-5.518,6.317,6.317,0,0,0-4.936-2.064,6.19,6.19,0,0,0-4.88,2.083,8,8,0,0,0-1.839,5.5,8,8,0,0,0,1.839,5.5A6.19,6.19,0,0,0,69.34-70.881ZM81.839-69V-95.58H84.2V-69ZM105.3-79.477a8.886,8.886,0,0,1-.075,1.239H89.834a7.783,7.783,0,0,0,1.877,5.311,6.071,6.071,0,0,0,4.73,2.046,7,7,0,0,0,4.035-1.089,4.74,4.74,0,0,0,2.008-3.078l2.252.45a7.016,7.016,0,0,1-2.815,4.354A9.2,9.2,0,0,1,96.478-68.7a8.428,8.428,0,0,1-6.531-2.759,9.992,9.992,0,0,1-2.515-7,9.992,9.992,0,0,1,2.515-7,8.428,8.428,0,0,1,6.531-2.759,8.625,8.625,0,0,1,6.344,2.459A8.479,8.479,0,0,1,105.3-79.477Zm-15.277-.938h12.837a6.362,6.362,0,0,0-1.989-4.073,6.222,6.222,0,0,0-4.392-1.558,6.166,6.166,0,0,0-4.223,1.5A7.176,7.176,0,0,0,90.022-80.415Z" transform="translate(1455.41 -149.126)" fill="#fff"/>
          <path id="Path_4" data-name="Path 4" d="M13.9-68.7a10.163,10.163,0,0,1-6.569-2.233,9.325,9.325,0,0,1-3.416-5.837l3.228-1.051a6.871,6.871,0,0,0,2.29,4.41,6.682,6.682,0,0,0,4.542,1.67,7.147,7.147,0,0,0,4.317-1.182,3.7,3.7,0,0,0,1.614-3.134A3.7,3.7,0,0,0,18.8-78.783,6.535,6.535,0,0,0,16.039-80.4q-1.652-.507-3.6-1.145t-3.6-1.314a6.389,6.389,0,0,1-2.759-2.177,6.026,6.026,0,0,1-1.107-3.679,5.982,5.982,0,0,1,2.477-4.955,10.137,10.137,0,0,1,6.381-1.914A10.478,10.478,0,0,1,19.98-93.8a6.966,6.966,0,0,1,3.04,4.711l-3.115,1.2a5.49,5.49,0,0,0-2.008-3.4,6.379,6.379,0,0,0-4.073-1.257,6.7,6.7,0,0,0-3.96,1.032,3.261,3.261,0,0,0-1.445,2.8,2.756,2.756,0,0,0,.826,2.027A5.47,5.47,0,0,0,11.4-85.408q1.333.45,2.928.863t3.191.976a14.4,14.4,0,0,1,2.928,1.408,6.243,6.243,0,0,1,2.158,2.384,7.678,7.678,0,0,1,.826,3.679,6.463,6.463,0,0,1-2.609,5.368A10.983,10.983,0,0,1,13.9-68.7Zm17-.3L25.123-87.923h3.266L32.48-73.471l4.429-14.451h3.078l4.429,14.451L48.47-87.923h3.341L45.993-69H42.877L38.448-83.381,34.019-69ZM54.964-95.58h3.679v4.054H54.964ZM55.189-69V-87.923H58.38V-69Zm18.243-.15a8.7,8.7,0,0,1-2.965.45,5.583,5.583,0,0,1-4.073-1.483,6,6,0,0,1-1.52-4.486V-85.107H61.345v-2.815h3.528v-5.743h3.191v5.743h5.067v2.815H68.064V-74.56a3,3,0,0,0,.751,2.215,2.739,2.739,0,0,0,2.027.751,5.243,5.243,0,0,0,2.365-.488Zm11.336.45a9.013,9.013,0,0,1-6.794-2.684,9.76,9.76,0,0,1-2.59-7.076,9.76,9.76,0,0,1,2.59-7.076,9.013,9.013,0,0,1,6.794-2.684,8.984,8.984,0,0,1,5.537,1.67,7.005,7.005,0,0,1,2.759,4.486l-3.153.638a4.5,4.5,0,0,0-1.689-2.834,5.249,5.249,0,0,0-3.378-1.107,5.635,5.635,0,0,0-4.448,1.9,7.3,7.3,0,0,0-1.67,5.011,7.3,7.3,0,0,0,1.67,5.011,5.635,5.635,0,0,0,4.448,1.9,5.416,5.416,0,0,0,3.4-1.051,4.7,4.7,0,0,0,1.745-2.928L93.1-74.9a7.218,7.218,0,0,1-2.834,4.561A9.065,9.065,0,0,1,84.768-68.7ZM96.892-69V-95.58h3.191v11.373a6.81,6.81,0,0,1,6.456-4.016,7.178,7.178,0,0,1,5.161,1.839,6.469,6.469,0,0,1,1.933,4.917V-69h-3.191V-80.866a4.361,4.361,0,0,0-1.22-3.284,4.677,4.677,0,0,0-3.4-1.182,4.868,4.868,0,0,0-4.185,2.215,10.268,10.268,0,0,0-1.558,6.006V-69Z" transform="translate(1559.608 -149.126)" fill="#fff"/>
          <path id="Path_1_-_Outline" data-name="Path 1 - Outline" d="M84.357-68.926a10.452,10.452,0,0,1-3.852-.681,8.6,8.6,0,0,1-3.042-2.046,8.949,8.949,0,0,1-1.973-3.16,11.662,11.662,0,0,1-.656-4.013,11.662,11.662,0,0,1,.656-4.013A8.949,8.949,0,0,1,77.463-86a8.6,8.6,0,0,1,3.042-2.046,10.452,10.452,0,0,1,3.852-.681,10.661,10.661,0,0,1,3.076.424,8.169,8.169,0,0,1,2.544,1.275,7.214,7.214,0,0,1,1.842,2,7.528,7.528,0,0,1,.971,2.576l.025.135-3.427.694-.024-.141a4.387,4.387,0,0,0-1.639-2.749,5.137,5.137,0,0,0-3.292-1.077,5.526,5.526,0,0,0-4.344,1.848,7.2,7.2,0,0,0-1.636,4.919,7.2,7.2,0,0,0,1.636,4.919,5.526,5.526,0,0,0,4.344,1.848,5.305,5.305,0,0,0,3.312-1.022,4.59,4.59,0,0,0,1.694-2.845l.027-.137,3.389.694-.028.136A8.067,8.067,0,0,1,91.8-72.581a7.128,7.128,0,0,1-1.861,2A8.261,8.261,0,0,1,87.4-69.34,10.718,10.718,0,0,1,84.357-68.926Zm0-19.519A8.918,8.918,0,0,0,77.663-85.8a9.668,9.668,0,0,0-2.551,6.979,9.668,9.668,0,0,0,2.551,6.979A8.918,8.918,0,0,0,84.357-69.2a8.97,8.97,0,0,0,5.417-1.606,7.084,7.084,0,0,0,2.751-4.34l-2.843-.582a4.823,4.823,0,0,1-1.768,2.874,5.576,5.576,0,0,1-3.482,1.08,6.488,6.488,0,0,1-2.555-.485,5.553,5.553,0,0,1-2-1.458A6.47,6.47,0,0,1,78.6-75.97a9.037,9.037,0,0,1-.425-2.854,9.037,9.037,0,0,1,.425-2.854,6.47,6.47,0,0,1,1.28-2.248,5.553,5.553,0,0,1,2-1.458,6.488,6.488,0,0,1,2.555-.485A5.408,5.408,0,0,1,87.9-84.733a4.652,4.652,0,0,1,1.713,2.778l2.88-.583A6.883,6.883,0,0,0,89.811-86.8,8.888,8.888,0,0,0,84.357-88.445Zm-14.3,19.519a6.843,6.843,0,0,1-2.342-.379,5.093,5.093,0,0,1-1.828-1.143,4.784,4.784,0,0,1-1.175-1.918,8.355,8.355,0,0,1-.387-2.667v-10.3H60.8v-3.093h3.528v-5.743h3.469v5.743H72.86v3.093H67.793v10.409A2.885,2.885,0,0,0,68.5-72.8a2.617,2.617,0,0,0,1.929.71,5.131,5.131,0,0,0,2.3-.473l.185-.092.249,3.239-.1.036A8.874,8.874,0,0,1,70.056-68.926ZM61.074-85.607H64.6v10.574a5.9,5.9,0,0,0,1.478,4.386A5.473,5.473,0,0,0,70.056-69.2a8.749,8.749,0,0,0,2.819-.407l-.2-2.621a5.581,5.581,0,0,1-2.242.416,2.884,2.884,0,0,1-2.125-.791,3.148,3.148,0,0,1-.791-2.313V-85.607h5.067v-2.537H67.515v-5.743H64.6v5.743H61.074ZM13.489-68.926a11.11,11.11,0,0,1-3.583-.566,10.07,10.07,0,0,1-3.073-1.7A9.541,9.541,0,0,1,4.558-73.8a9.954,9.954,0,0,1-1.19-3.307l-.021-.119,3.5-1.14.023.165a6.767,6.767,0,0,0,2.243,4.325,6.576,6.576,0,0,0,4.45,1.636A7.046,7.046,0,0,0,17.8-73.4a3.583,3.583,0,0,0,1.557-3.022,3.581,3.581,0,0,0-1.067-2.623,6.428,6.428,0,0,0-2.7-1.579c-1.1-.336-2.31-.722-3.606-1.146s-2.514-.868-3.613-1.317a6.555,6.555,0,0,1-2.818-2.223,6.188,6.188,0,0,1-1.134-3.761,6.248,6.248,0,0,1,.634-2.821,6.562,6.562,0,0,1,1.9-2.244A8.831,8.831,0,0,1,9.827-95.6a12.513,12.513,0,0,1,3.587-.484,12.161,12.161,0,0,1,3.379.451,9.671,9.671,0,0,1,2.856,1.357,7.649,7.649,0,0,1,2.074,2.108,7.077,7.077,0,0,1,1.024,2.694l.019.112-3.376,1.3-.031-.163A5.379,5.379,0,0,0,17.4-91.534a6.273,6.273,0,0,0-3.987-1.228,6.6,6.6,0,0,0-3.879,1.006,3.1,3.1,0,0,0-1.387,2.683,2.633,2.633,0,0,0,.785,1.929,5.359,5.359,0,0,0,2.1,1.243c.881.3,1.863.587,2.918.86s2.14.6,3.2.979a14.6,14.6,0,0,1,2.956,1.421A6.408,6.408,0,0,1,22.32-80.2a7.85,7.85,0,0,1,.842,3.744,6.97,6.97,0,0,1-.666,3.073,6.841,6.841,0,0,1-2,2.4,9.2,9.2,0,0,1-3.082,1.544A14.039,14.039,0,0,1,13.489-68.926ZM3.663-77.041a9.215,9.215,0,0,0,3.344,5.634,10.073,10.073,0,0,0,6.482,2.2,10.9,10.9,0,0,0,6.84-2,6.357,6.357,0,0,0,2.555-5.258,7.577,7.577,0,0,0-.809-3.613,6.134,6.134,0,0,0-2.11-2.332,14.326,14.326,0,0,0-2.9-1.394c-1.055-.372-2.124-.7-3.179-.972s-2.05-.566-2.937-.866a5.632,5.632,0,0,1-2.212-1.31,2.9,2.9,0,0,1-.867-2.125,3.407,3.407,0,0,1,1.5-2.91,5.313,5.313,0,0,1,1.758-.8,9.111,9.111,0,0,1,2.283-.263,7.8,7.8,0,0,1,2.3.321,5.71,5.71,0,0,1,1.861.967,5.478,5.478,0,0,1,1.333,1.516,6.053,6.053,0,0,1,.692,1.8l2.856-1.1a6.863,6.863,0,0,0-2.963-4.508A10.389,10.389,0,0,0,13.414-95.8a10.048,10.048,0,0,0-6.3,1.885,5.874,5.874,0,0,0-2.423,4.845,5.917,5.917,0,0,0,1.08,3.6,6.281,6.281,0,0,0,2.7,2.131c1.093.447,2.3.888,3.594,1.31s2.506.808,3.6,1.144a6.7,6.7,0,0,1,2.816,1.649,3.85,3.85,0,0,1,1.148,2.82,3.848,3.848,0,0,1-1.671,3.246,5.875,5.875,0,0,1-1.932.909,9.387,9.387,0,0,1-2.467.3,7.213,7.213,0,0,1-2.5-.426,6.836,6.836,0,0,1-2.136-1.278A6.743,6.743,0,0,1,7.37-75.65,7.645,7.645,0,0,1,6.619-78Zm109.7,7.814h-3.469v-12a4.247,4.247,0,0,0-1.178-3.185,4.565,4.565,0,0,0-3.3-1.143,4.756,4.756,0,0,0-4.072,2.156,10.182,10.182,0,0,0-1.532,5.926v8.247H96.343V-96.08h3.469v10.97a7.35,7.35,0,0,1,2.434-2.588,7.233,7.233,0,0,1,3.883-1.025,8.791,8.791,0,0,1,2.951.468,6.471,6.471,0,0,1,2.306,1.41,6.092,6.092,0,0,1,1.483,2.2,7.687,7.687,0,0,1,.493,2.819Zm-3.191-.278h2.913V-81.827a6.363,6.363,0,0,0-1.89-4.816,7.075,7.075,0,0,0-5.065-1.8A6.706,6.706,0,0,0,99.8-84.5l-.263-.064V-95.8H96.621v26.3h2.913v-7.969a13.76,13.76,0,0,1,.394-3.432,8.139,8.139,0,0,1,1.189-2.654,5.394,5.394,0,0,1,1.874-1.7,5.128,5.128,0,0,1,2.425-.57,6.044,6.044,0,0,1,1.983.3,4.071,4.071,0,0,1,1.51.918,3.919,3.919,0,0,1,.949,1.464,5.516,5.516,0,0,1,.314,1.921Zm-52.062.278H54.64v-19.2h3.469ZM54.918-69.5h2.913v-18.64H54.918Zm-9.233.278H42.365L38.038-83.27,33.711-69.226H30.39l-5.866-19.2h3.559l3.992,14.1,4.321-14.1H39.68L44-74.326l3.954-14.1h3.634l-.055.18ZM42.57-69.5h2.91l5.733-18.64H48.165L44.012-73.339,39.474-88.145H36.6l-4.537,14.8-4.191-14.8H24.9L30.6-69.5h2.91l4.532-14.709Zm15.8-22.244H54.415V-96.08h3.957Zm-3.679-.278h3.4V-95.8h-3.4Z" transform="translate(1560.018 -148.765)" fill="#fff"/>
        </g>
        <g id="Group_2568" data-name="Group 2568" transform="translate(650 9427.943)">
          <rect id="Rectangle_2" data-name="Rectangle 2" width="22.4" height="3.2" transform="translate(188.24 366.486) rotate(-30)" fill="#57ff36"/>
          <rect id="Rectangle_4" data-name="Rectangle 4" width="13.257" height="3.2" transform="matrix(0.839, 0.545, -0.545, 0.839, 196.592, 372.228)" fill="#57ff36"/>
          <circle id="Ellipse_1" data-name="Ellipse 1" cx="6.5" cy="6.5" r="6.5" transform="translate(179 363.057)" fill="#57ff36"/>
          <path id="Ellipse_3" data-name="Ellipse 3" d="M6.628,2.286a4.343,4.343,0,1,0,4.343,4.343A4.348,4.348,0,0,0,6.628,2.286M6.628,0A6.628,6.628,0,1,1,0,6.628,6.628,6.628,0,0,1,6.628,0Z" transform="translate(205.114 376.8)" fill="#57ff36"/>
          <circle id="Ellipse_2" data-name="Ellipse 2" cx="6.5" cy="6.5" r="6.5" transform="translate(205 348.057)" fill="#57ff36"/>
          <rect id="Rectangle_1" data-name="Rectangle 1" width="14" height="3" transform="translate(169 368.057)" fill="#57ff36"/>
          <rect id="Rectangle_3" data-name="Rectangle 3" width="14" height="4" transform="translate(214 353.057)" fill="#57ff36"/>
          <rect id="Rectangle_5" data-name="Rectangle 5" width="9" height="4" transform="translate(217 381.057)" fill="#57ff36"/>
        </g>
      </g>
    </g>
    <text id="Share_the_power" data-name="Share the power" transform="translate(232 10958)" fill="#fff" font-size="18" font-family="ArialMT, Arial" letter-spacing="0.012em"><tspan x="0" y="0">share the power</tspan></text>
  </g>
</svg>
