<svg id="Group_2771" data-name="Group 2771" xmlns="http://www.w3.org/2000/svg" width="160" height="113.876" viewBox="0 0 160 113.876">
  <rect id="Rectangle_2" data-name="Rectangle 2" width="60.733" height="8.676" transform="translate(52.167 49.967) rotate(-30)" fill="#fff"/>
  <rect id="Rectangle_4" data-name="Rectangle 4" width="35.944" height="8.676" transform="matrix(0.839, 0.545, -0.545, 0.839, 74.811, 65.537)" fill="#43d62b"/>
  <ellipse id="Ellipse_1" data-name="Ellipse 1" cx="17.5" cy="18" rx="17.5" ry="18" transform="translate(27 40)" fill="#fff"/>
  <path id="Ellipse_3" data-name="Ellipse 3" d="M17.972,6.2A11.775,11.775,0,1,0,29.747,17.972,11.788,11.788,0,0,0,17.972,6.2m0-6.2A17.972,17.972,0,1,1,0,17.972,17.972,17.972,0,0,1,17.972,0Z" transform="translate(97.916 77.932)" fill="#43d62b"/>
  <circle id="Ellipse_2" data-name="Ellipse 2" cx="17.5" cy="17.5" r="17.5" transform="translate(98)" fill="#fff"/>
  <rect id="Rectangle_1" data-name="Rectangle 1" width="38" height="8" transform="translate(0 54)" fill="#fff"/>
  <rect id="Rectangle_3" data-name="Rectangle 3" width="37" height="12" transform="translate(123 13)" fill="#fff"/>
  <rect id="Rectangle_5" data-name="Rectangle 5" width="25" height="12" transform="translate(130 89)" fill="#43d62b"/>
</svg>
