<svg xmlns="http://www.w3.org/2000/svg" width="27.272" height="25.49" viewBox="0 0 27.272 25.49">
  <g id="online-shopping" transform="translate(0.199 0.153)">
    <g id="Group_1807" data-name="Group 1807" transform="translate(7.914 19.779)">
      <path id="Path_29841" data-name="Path 29841" d="M21.639,54.342a2.7,2.7,0,1,1,2.7-2.7,2.707,2.707,0,0,1-2.7,2.7Zm0-3.711a1.007,1.007,0,1,0,1.007,1.006A1.008,1.008,0,0,0,21.639,50.631Z" transform="translate(-18.935 -48.934)" stroke="#fff" stroke-width="0.3"/>
      <path id="Path_29842" data-name="Path 29842" d="M43.794,54.342a2.7,2.7,0,1,1,2.7-2.7A2.707,2.707,0,0,1,43.794,54.342Zm0-3.711A1.007,1.007,0,1,0,44.8,51.638,1.008,1.008,0,0,0,43.794,50.631Z" transform="translate(-31.689 -48.934)" stroke="#fff" stroke-width="0.3"/>
    </g>
    <path id="Path_29843" data-name="Path 29843" d="M22.282,20H8.951a2.751,2.751,0,0,1-2.694-2.147L3.489,5.773a.536.536,0,0,0-.3-.365L.9,4.344a1.061,1.061,0,0,1,.892-1.925l2.3,1.064A2.67,2.67,0,0,1,5.557,5.3L8.324,17.383a.639.639,0,0,0,.626.5H22.282a.641.641,0,0,0,.626-.5L25.06,8.13a.642.642,0,0,0-.625-.788H8.735a1.061,1.061,0,0,1,0-2.122h15.7A2.764,2.764,0,0,1,27.127,8.61l-2.152,9.256A2.753,2.753,0,0,1,22.282,20Z" transform="translate(-0.284 -2.321)" stroke="#fff" stroke-width="0.3"/>
  </g>
</svg>
