<svg xmlns="http://www.w3.org/2000/svg" width="26.01" height="50.197" viewBox="0 0 26.01 50.197">
  <g id="dollar-symbol_1_" data-name="dollar-symbol (1)" transform="translate(0)">
    <path id="Path_30858" data-name="Path 30858" d="M136.638,22.8a60.434,60.434,0,0,0-6.137-2.778,13.779,13.779,0,0,1-3.369-1.887,2.931,2.931,0,0,1,.726-5.215,5.915,5.915,0,0,1,2.063-.425,15.66,15.66,0,0,1,7.755,1.534c1.223.591,1.628.4,2.042-.871.435-1.348.8-2.716,1.2-4.074a1.423,1.423,0,0,0-.923-1.9A19.714,19.714,0,0,0,135.1,5.727c-2.219-.342-2.219-.352-2.229-2.581C132.864,0,132.864,0,129.713,0c-.456,0-.912-.01-1.369,0-1.472.041-1.721.3-1.762,1.783-.021.664,0,1.327-.01,2-.01,1.97-.021,1.939-1.908,2.623-4.562,1.659-7.382,4.769-7.682,9.745-.27,4.406,2.032,7.382,5.65,9.548a62.463,62.463,0,0,0,7.06,3.172,10.487,10.487,0,0,1,2.571,1.514,3.525,3.525,0,0,1-.84,6.179,8.456,8.456,0,0,1-4.531.591,20.222,20.222,0,0,1-6.9-2.063c-1.275-.664-1.648-.487-2.084.892-.373,1.192-.7,2.395-1.037,3.6-.446,1.617-.28,2,1.265,2.758a22.046,22.046,0,0,0,6.22,1.783c1.68.27,1.731.342,1.752,2.084.01.788.01,1.586.021,2.374a1.41,1.41,0,0,0,1.514,1.6c1.161.021,2.333.021,3.494-.01a1.329,1.329,0,0,0,1.441-1.5c0-1.078.052-2.167.01-3.245a1.714,1.714,0,0,1,1.483-1.949,11.716,11.716,0,0,0,6.106-3.919C144.611,34.165,142.921,26.275,136.638,22.8Z" transform="translate(-116.652 0)" fill="#fff"/>
  </g>
</svg>
