<svg xmlns="http://www.w3.org/2000/svg" width="79.66" height="14.161" viewBox="0 0 79.66 14.161">
  <g id="Group_2782" data-name="Group 2782" transform="translate(-1201 -522)">
    <path id="Path_30619" data-name="Path 30619" d="M568.473,565l1.758,5.409h5.687l-4.6,3.343,1.757,5.409-4.6-3.343-4.6,3.343,1.757-5.409-4.6-3.343h5.687Z" transform="translate(639.972 -43)" fill="#0832ff"/>
    <path id="Path_30735" data-name="Path 30735" d="M568.473,565l1.758,5.409h5.687l-4.6,3.343,1.757,5.409-4.6-3.343-4.6,3.343,1.757-5.409-4.6-3.343h5.687Z" transform="translate(654.843 -43)" fill="#0832ff"/>
    <path id="Path_30736" data-name="Path 30736" d="M568.473,565l1.758,5.409h5.687l-4.6,3.343,1.757,5.409-4.6-3.343-4.6,3.343,1.757-5.409-4.6-3.343h5.687Z" transform="translate(670.705 -43)" fill="#0832ff"/>
    <path id="Path_30737" data-name="Path 30737" d="M568.473,565l1.758,5.409h5.687l-4.6,3.343,1.757,5.409-4.6-3.343-4.6,3.343,1.757-5.409-4.6-3.343h5.687Z" transform="translate(687.228 -43)" fill="#0832ff"/>
    <path id="Path_30738" data-name="Path 30738" d="M568.473,565l1.758,5.409h5.687l-4.6,3.343,1.757,5.409-4.6-3.343-4.6,3.343,1.757-5.409-4.6-3.343h5.687Z" transform="translate(704.742 -43)" fill="#0832ff"/>
  </g>
</svg>
