<svg xmlns="http://www.w3.org/2000/svg" width="49.927" height="49.904" viewBox="0 0 49.927 49.904">
  <g id="real-estate" transform="translate(0 -0.121)">
    <path id="Path_30986" data-name="Path 30986" d="M42.962,268.468H64.374v5.756H42.962Z" transform="translate(-38.773 -242.179)" fill="#fff"/>
    <path id="Path_30987" data-name="Path 30987" d="M42.962,179.441H64.374V185.2H42.962Z" transform="translate(-38.773 -161.834)" fill="#fff"/>
    <path id="Path_30988" data-name="Path 30988" d="M42.962.121H70.14V6H42.962Z" transform="translate(-38.773)" fill="#fff"/>
    <path id="Path_30989" data-name="Path 30989" d="M42.962,90.414H70.14V96.17H42.962Z" transform="translate(-38.773 -81.488)" fill="#fff"/>
    <path id="Path_30990" data-name="Path 30990" d="M49.927,165.116H45.738V135.641H38.351V130.89H35.426v4.751h-7v29.475H25.6V152.987H4.189v12.129H0v2.925H49.927ZM38.9,142.91h2.779v2.925H38.9Zm0,5.266h2.779V151.1H38.9Zm0,5.266h2.779v2.925H38.9Zm-.343,6.571v5.1H35.632v-5.1Zm-6-17.1H35.34v2.925H32.561Zm0,5.266H35.34V151.1H32.561Zm0,5.266H35.34v2.925H32.561Zm-16.246,6.571h2.925v5.1H16.315Z" transform="translate(0 -118.017)" fill="#fff"/>
  </g>
</svg>
