<svg xmlns="http://www.w3.org/2000/svg" width="65.613" height="50.197" viewBox="0 0 65.613 50.197">
  <g id="Group_3046" data-name="Group 3046" transform="translate(-213.387 -1810.901)">
    <g id="Group_2951" data-name="Group 2951" transform="translate(213.387 1810.901)">
      <path id="freepik_br_f3a2ba85-01df-4cb0-835d-f03395935fa1" d="M-117.173-.191h.345l.94,0h.8q4.672.006,9.344.046l1.615.011q2.84.018,5.68.043l1.656.013q1.073.008,2.146.02l1.124.01q.617,0,1.234.013h.367a2.751,2.751,0,0,1,2.1.733l.132.2c.146.2.146.2.373.246l.243.013.269.019.28.014a4.073,4.073,0,0,1,2.62.973,3.485,3.485,0,0,1,.392.686.978.978,0,0,0,.392-.1,1.835,1.835,0,0,0,.263-.41A2.414,2.414,0,0,1-83.648,1.29a2.711,2.711,0,0,1,1.889.262,2.258,2.258,0,0,1,.952,1.7c.031.569.032,1.138.033,1.708q0,.249,0,.5,0,.52,0,1.04,0,.664.006,1.328,0,.513,0,1.027,0,.245,0,.489a3.513,3.513,0,0,1-.733,2.628l.49.1v.2l.178.049a1.379,1.379,0,0,1,.508.931,12.341,12.341,0,0,1,.046,1.267c0,.121,0,.241,0,.366q0,.382,0,.763c0,.388,0,.776.008,1.163q0,.372,0,.744c0,.115,0,.23,0,.349a2.912,2.912,0,0,1-.553,1.813,1.455,1.455,0,0,0-.223.806c0,.082,0,.164,0,.248s0,.178,0,.27,0,.189,0,.286q0,.468-.005.936,0,.326,0,.652,0,.683,0,1.367,0,.874-.011,1.748-.005.673,0,1.346,0,.322,0,.644c0,.3,0,.6,0,.9,0,.132,0,.132-.005.267a1.773,1.773,0,0,0,.53,1.317,1.248,1.248,0,0,1,.206.855c0,.127,0,.255,0,.386s0,.274-.005.411,0,.285,0,.427q0,.446-.006.892c0,.38,0,.76,0,1.14,0,.294,0,.587,0,.881q0,.21,0,.42c0,.2,0,.392-.006.588,0,.111,0,.222,0,.337a1.688,1.688,0,0,1-.645,1.07l-.19.122-.294.2.125.137.163.194.162.186a5.243,5.243,0,0,1,.244,2.373c0,.106,0,.211,0,.32q0,.5-.006,1,0,.322,0,.645,0,.795-.017,1.589,0,.323-.006.646c0,.318-.007.637-.012.955,0,.1,0,.191,0,.289a2.38,2.38,0,0,1-.586,1.7,2.664,2.664,0,0,1-1.922.736,2.906,2.906,0,0,1-1.7-1.148c-.256-.367-.256-.367-.256-.615a4.528,4.528,0,0,0-.435.473,3.461,3.461,0,0,1-2.014,1.29q-.2.017-.407.024l-.23.01-.475.017a2.048,2.048,0,0,0-1.5.543,1.3,1.3,0,0,1-1.022.4h-.814l-.988,0h-.717q-1.236,0-2.472-.008h-.227q-3.584-.014-7.169-.037l-1.894-.011c-3.52-.019-7.041-.039-10.561-.084l-.847-.01q-.577-.006-1.153-.015l-.34,0-.312-.005-.268,0a1.482,1.482,0,0,1-1.069-.572,2.02,2.02,0,0,0-1.548-.414,3.647,3.647,0,0,1-2.431-1.1,2.1,2.1,0,0,1-.294-.49,1.574,1.574,0,0,0-.759.673,2.044,2.044,0,0,1-1.2.894,2.7,2.7,0,0,1-2.057-.392,2.2,2.2,0,0,1-.784-1.273,7.015,7.015,0,0,1-.036-.776c0-.11,0-.11,0-.222,0-.24,0-.479,0-.719q0-.252,0-.5,0-.527,0-1.054,0-.673,0-1.345,0-.52,0-1.04,0-.248,0-.5c0-2.116,0-2.116.47-2.709a1.191,1.191,0,0,1,.441-.343l-.176-.065a2.18,2.18,0,0,1-1.2-.915,3.761,3.761,0,0,1-.111-.97c0-.093,0-.186,0-.282s0-.2,0-.3,0-.207,0-.314q0-.328,0-.657,0-.5,0-1,0-.32,0-.64c0-.148,0-.148,0-.3.005-1.629.005-1.629.261-2.063l.181-.175.18-.18q.164-.164.331-.324a2.175,2.175,0,0,0,.18-1.179c0-.095,0-.19,0-.287,0-.314,0-.627,0-.941q0-.327,0-.654,0-.685,0-1.37,0-.878.006-1.756,0-.675,0-1.35,0-.324,0-.648c0-.3,0-.6,0-.905,0-.089,0-.178,0-.27a1.233,1.233,0,0,0-.3-.973l-.252-.2a1.006,1.006,0,0,1-.4-.777c0-.072,0-.144,0-.217s0-.164,0-.248,0-.177,0-.268,0-.184,0-.279q0-.293,0-.586,0-.442,0-.883c0-3.174,0-3.174.5-3.989a1.156,1.156,0,0,1,.98-.392l-.233-.306a3.444,3.444,0,0,1-.536-2.081l-.019-.33q-.02-.347-.038-.694-.028-.519-.059-1.038c-.061-1.09-.108-2.178-.112-3.27,0-.092,0-.183,0-.278a2.655,2.655,0,0,1,.585-1.981,3.307,3.307,0,0,1,1.725-.741,2.852,2.852,0,0,1,1.876.922,4.239,4.239,0,0,1,.634,2.55,2.529,2.529,0,0,1,.485-2.01A3.48,3.48,0,0,1-121.949,1c.281-.02.563-.025.845-.031a1.729,1.729,0,0,0,1.292-.4q.158-.176.312-.355C-118.931-.345-117.914-.193-117.173-.191Z" transform="translate(129.897 0.211)" fill="#fff"/>
      <g id="Group_2772" data-name="Group 2772" transform="translate(13.421 16.985)">
        <rect id="Rectangle_2" data-name="Rectangle 2" width="8.654" height="1.236" transform="translate(7.434 7.12) rotate(-30)" fill="#43d62b"/>
        <rect id="Rectangle_4" data-name="Rectangle 4" width="5.122" height="1.236" transform="matrix(0.839, 0.545, -0.545, 0.839, 10.66, 9.339)"/>
        <ellipse id="Ellipse_1" data-name="Ellipse 1" cx="2.494" cy="2.565" rx="2.494" ry="2.565" transform="translate(3.847 5.7)" fill="#43d62b"/>
        <path id="Ellipse_3" data-name="Ellipse 3" d="M2.561.883A1.678,1.678,0,1,0,4.239,2.561,1.68,1.68,0,0,0,2.561.883m0-.883A2.561,2.561,0,1,1,0,2.561,2.561,2.561,0,0,1,2.561,0Z" transform="translate(13.953 11.105)"/>
        <ellipse id="Ellipse_2" data-name="Ellipse 2" cx="2.494" cy="2.494" rx="2.494" ry="2.494" transform="translate(13.965)" fill="#43d62b"/>
        <rect id="Rectangle_1" data-name="Rectangle 1" width="5.415" height="1.14" transform="translate(0 7.695)" fill="#43d62b"/>
        <rect id="Rectangle_3" data-name="Rectangle 3" width="5.272" height="1.71" transform="translate(17.527 1.852)" fill="#43d62b"/>
        <rect id="Rectangle_5" data-name="Rectangle 5" width="3.562" height="1.71" transform="translate(18.525 12.682)"/>
      </g>
    </g>
    <g id="Group_3042" data-name="Group 3042" transform="translate(246 1811)">
      <g id="Group_3041" data-name="Group 3041">
        <g id="Group_3040" data-name="Group 3040">
          <g id="Group_3039" data-name="Group 3039">
            <g id="Group_3038" data-name="Group 3038">
              <circle id="Ellipse_108" data-name="Ellipse 108" cx="16.5" cy="16.5" r="16.5" fill="#44de26"/>
              <path id="Path_30985" data-name="Path 30985" d="M48.365,57.43h-.007a.341.341,0,0,1-.244-.11L41.69,50.335a.341.341,0,0,1,.4-.539l5.88,2.753a.127.127,0,0,0,.146-.027l8.969-9.374a.341.341,0,0,1,.531.422L48.689,57.237a.344.344,0,0,1-.044.055l-.039.039A.343.343,0,0,1,48.365,57.43Z" transform="translate(-33.417 -33.599)" fill="#fff"/>
            </g>
          </g>
        </g>
      </g>
    </g>
  </g>
</svg>
