<svg xmlns="http://www.w3.org/2000/svg" width="30" height="30" viewBox="0 0 29.129 29.129">
  <path id="user_1_" data-name="user (1)" d="M24.863,4.266a14.565,14.565,0,0,0-20.6,20.6,14.565,14.565,0,0,0,20.6-20.6ZM6.321,24.424a8.333,8.333,0,0,1,8.244-7.333,8.3,8.3,0,0,1,8.244,7.333,12.831,12.831,0,0,1-16.487,0Zm8.244-9.091a4.424,4.424,0,1,1,4.424-4.424A4.429,4.429,0,0,1,14.564,15.333Zm9.713,7.648A10.033,10.033,0,0,0,18,15.987a6.13,6.13,0,1,0-6.862,0A10.024,10.024,0,0,0,4.85,22.98a12.858,12.858,0,1,1,19.427,0Zm0,0" transform="translate(0)" fill="#000000"/>
</svg>
