<svg id="wait-time" xmlns="http://www.w3.org/2000/svg" width="37.606" height="50.141" viewBox="0 0 37.606 50.141">
  <path id="Path_30859" data-name="Path 30859" d="M33.613,31.119a16.739,16.739,0,0,0-6.3-7.313l-1.437-.914,1.437-.914A16.747,16.747,0,0,0,35.07,7.85h1.671a1.671,1.671,0,0,0,1.671-1.671V3.671A1.671,1.671,0,0,0,36.742,2H11.671A1.671,1.671,0,0,0,10,3.671V6.178A1.671,1.671,0,0,0,11.671,7.85h1.671A16.747,16.747,0,0,0,21.1,21.978l1.437.914-1.437.914a16.747,16.747,0,0,0-7.755,14.128H11.671A1.671,1.671,0,0,0,10,39.606v2.507a1.671,1.671,0,0,0,1.671,1.671h14.34a11.561,11.561,0,0,1,7.6-12.665ZM15.8,12.66a15.111,15.111,0,0,1-.784-4.81H33.4a15.014,15.014,0,0,1-2.877,8.871C26.116,15.495,20.836,9.994,15.8,12.66Z" transform="translate(-10 -2)" fill="#fff"/>
  <path id="Path_30860" data-name="Path 30860" d="M41.028,38A10.028,10.028,0,1,0,51.056,48.028,10.029,10.029,0,0,0,41.028,38Zm0,16.714L36.014,49.7h2.507V42.178h5.014V49.7h2.507Z" transform="translate(-13.451 -7.916)" fill="#fff"/>
</svg>
