<svg id="Layer_1" data-name="Layer 1" xmlns="http://www.w3.org/2000/svg" viewBox="0 0 31 36" width="48" height="48">
  <defs>
    <style>
      .cls-1 {
        fill: #fff;
      }
    </style>
  </defs>
  <path class="cls-1" d="m15.51,3.04c2.49,0,4.98,0,7.47,0,3.45,0,6.43,2.34,7.27,5.68.15.59.22,1.18.22,1.79,0,5,.02,10-.01,15-.02,2.63-1.17,4.7-3.34,6.19-1.25.86-2.65,1.26-4.17,1.26-5,0-9.99,0-14.99,0-2.96,0-5.75-1.89-6.86-4.64-.37-.93-.56-1.9-.56-2.9,0-4.98,0-9.96,0-14.94,0-1.64.51-3.13,1.5-4.44,1.25-1.65,2.91-2.61,4.94-2.93.35-.05.7-.07,1.05-.07,2.49,0,4.99,0,7.48,0ZM1.94,17.98c0,2.5,0,5.01,0,7.51,0,.41.04.82.12,1.22.58,2.82,3.08,4.85,5.96,4.85,4.99,0,9.97,0,14.96,0,.51,0,1.02-.06,1.52-.19,2.69-.7,4.56-3.12,4.56-5.89,0-4.99,0-9.98,0-14.97,0-.51-.07-1.01-.19-1.5-.71-2.7-3.12-4.56-5.9-4.56-4.98,0-9.96,0-14.93,0-.39,0-.78.04-1.16.11-2.86.56-4.93,3.05-4.93,5.97,0,2.48,0,4.97,0,7.45Z"/>
  <path class="cls-1" d="m18.55,15.95s.08.03.12.03c.87,0,1.73,0,2.6,0,.13,0,.18.03.17.17,0,.37,0,.74,0,1.11,0,.11-.05.13-.14.13-.45,0-.91,0-1.36,0-1.2,0-2.41,0-3.61,0-.28,0-.23-.01-.23-.23,0-1.63,0-3.25,0-4.88,0-.22,0-.22.21-.22.36,0,.71,0,1.07,0,.11,0,.13.04.13.13,0,.84,0,1.68,0,2.53,0,.01,0,.03,0,.04,0,.06-.03.15.03.17.06.02.09-.06.13-.1,1.58-1.58,3.16-3.16,4.74-4.74.06-.06.1-.08.17,0,.28.29.56.57.85.85.08.08.02.1-.02.15-1.01,1.01-2.02,2.03-3.04,3.04-.6.6-1.19,1.22-1.81,1.8,0,0-.01.03-.02.04Z"/>
  <path class="cls-1" d="m12.21,18.62c.83,0,1.67,0,2.5,0,.13,0,.18.04.18.17,0,1.66,0,3.33,0,4.99,0,.13-.04.16-.17.16-.37,0-.74,0-1.11,0-.1,0-.13-.02-.13-.12,0-.88,0-1.75,0-2.63,0-.04.03-.1-.02-.12-.06-.03-.08.03-.12.07-1.57,1.57-3.15,3.15-4.72,4.72-.14.14-.14.14-.28,0-.25-.25-.51-.51-.77-.76-.08-.08-.07-.11,0-.18.93-.92,1.85-1.85,2.78-2.77.68-.68,1.36-1.35,2.04-2.03.02-.02.06-.03.04-.06,0-.02-.04-.02-.06-.03-.08,0-.17,0-.25,0-.81,0-1.62,0-2.43,0-.14,0-.17-.04-.16-.17.01-.34,0-.69,0-1.04,0-.19,0-.2.2-.2.82,0,1.65,0,2.47,0Z"/>
</svg>