<svg id="Layer_1" data-name="Layer 1" xmlns="http://www.w3.org/2000/svg" viewBox="0 0 31 36" width="48" height="48">
  <defs>
    <style>
      .cls-1 {
        fill: #fff;
      }
    </style>
  </defs>
  <path class="cls-1" d="m8.97,32.89c.17-.18.33-.36.5-.53,1.74-1.72,3.47-3.43,5.21-5.15.07-.07.1-.11.02-.18-.99-.98-1.98-1.96-2.97-2.93-.03-.03-.05-.06-.11-.06-.18.59-.37,1.19-.55,1.78-.09.29-.17.58-.27.86-.08.23-.27.34-.51.33-.22-.01-.39-.16-.45-.38-.03-.1,0-.2.02-.3.31-1.01.62-2.02.93-3.02.05-.16.08-.32.08-.49,0-1.01,0-2.01,0-3.02,0-.15-.03-.2-.19-.2-1.85,0-3.71,0-5.56,0-.13,0-.16.05-.16.17,0,.49,0,.97,0,1.46,0,.14-.02.28-.11.4-.13.16-.36.24-.54.18-.2-.06-.35-.24-.35-.46,0-.65,0-1.3,0-1.95,0-.05,0-.1,0-.15-.03-.3.1-.5.36-.64.67-.38,1.33-.77,2-1.16,1.47-.86,2.94-1.72,4.41-2.57.11-.06.15-.14.15-.27,0-.98,0-1.96,0-2.94,0-.12-.03-.17-.16-.17-1.87,0-3.73,0-5.6,0-.14,0-.17.04-.17.18.01.5.01,1,0,1.49,0,.28-.16.46-.4.51-.24.05-.46-.06-.56-.27-.05-.1-.05-.22-.05-.33,0-.67,0-1.34,0-2.01,0-.27.12-.45.35-.58,1.61-.93,3.22-1.87,4.83-2.81.6-.35,1.21-.7,1.81-1.05.12-.07.22-.17.3-.28,1.24-1.72,2.48-3.43,3.72-5.15.02-.02.03-.05.05-.07.32-.42.65-.43.96,0,.75,1.03,1.5,2.06,2.24,3.09.52.72,1.05,1.45,1.57,2.17.08.1.18.17.28.23,2.19,1.27,4.38,2.55,6.57,3.82.29.17.42.38.41.72-.02.64,0,1.29,0,1.93,0,.41-.26.65-.61.58-.23-.05-.4-.23-.4-.49,0-.5,0-1.01,0-1.51,0-.13-.01-.19-.16-.19-1.87,0-3.73,0-5.6,0-.12,0-.16.03-.16.16,0,.98,0,1.97,0,2.95,0,.12.04.19.15.25,2.02,1.17,4.04,2.35,6.06,3.53.13.07.25.15.38.22.25.13.35.34.34.62-.01.58,0,1.16,0,1.74,0,.13.02.27,0,.4-.04.22-.19.39-.39.43-.2.04-.42-.06-.53-.24-.07-.11-.08-.23-.08-.36,0-.48,0-.96,0-1.44,0-.13-.04-.17-.17-.17-1.86,0-3.72,0-5.58,0-.12,0-.16.04-.16.16,0,1.06,0,2.11,0,3.17,0,.13.04.25.08.38,1.13,3.69,2.26,7.38,3.39,11.07.02.07.04.15.06.23.04.23-.05.42-.24.53-.2.11-.4.1-.57-.06-.26-.24-.5-.49-.76-.74-2.16-2.13-4.32-4.27-6.47-6.4-.09-.09-.14-.08-.22,0-2.35,2.33-4.7,4.66-7.06,6.98-.06.06-.11.11-.17.16-.17.14-.36.16-.56.06-.18-.1-.29-.29-.25-.5.07-.39.21-.75.33-1.12.52-1.7,1.04-3.4,1.56-5.11.05-.17.11-.34.29-.43.19-.1.37-.09.53.04.16.12.24.28.19.48-.13.52-.3,1.03-.46,1.54-.28.92-.57,1.83-.85,2.75,0,.02,0,.05,0,.08.01.01.03.02.04.03ZM18.35,7.4c-.61,0-1.22,0-1.83,0-.45,0-.89,0-1.34,0-.26,0-.46-.2-.48-.45-.02-.24.15-.47.4-.53.09-.02.18-.02.27-.02,1,0,2,0,3,0,.05,0,.12.04.15-.03.02-.06-.05-.09-.08-.14-.06-.09-.14-.18-.2-.27-.88-1.21-1.76-2.42-2.63-3.64-.09-.13-.13-.1-.21,0-.96,1.32-1.91,2.64-2.87,3.96-.02.03-.06.05-.04.08.02.03.06.02.09.02.18,0,.37,0,.55,0,.33,0,.56.21.56.5,0,.31-.21.5-.56.51-.16,0-.33-.03-.51.01.03.04.05.06.08.09.9.89,1.81,1.78,2.7,2.68.1.1.15.04.21-.03.89-.88,1.78-1.76,2.67-2.64.03-.03.06-.05.06-.12Zm3.69,25.46s.02-.01.03-.02c-.9-2.94-1.8-5.88-2.7-8.82-.06,0-.08.03-.11.06-.99.97-1.97,1.95-2.96,2.92-.07.07-.09.11,0,.2,1.53,1.5,3.06,3.01,4.58,4.52.38.38.77.76,1.15,1.14Zm-3.68-10.25s-.02-.06-.04-.08c-.9-.89-1.81-1.77-2.71-2.67-.11-.11-.15-.09-.25,0-.49.49-.98.97-1.48,1.46-.43.42-.86.84-1.31,1.29h5.78Zm-6.48-8.8c.06,0,.08-.04.1-.07.89-.88,1.78-1.76,2.68-2.63.11-.1.1-.15,0-.25-.86-.85-1.72-1.7-2.59-2.56-.06-.06-.1-.13-.19-.16v5.66Zm0,2.4v5.68s.07-.06.09-.09c.89-.87,1.77-1.75,2.66-2.62.12-.12.11-.18,0-.28-.88-.86-1.75-1.73-2.62-2.59-.04-.04-.07-.09-.13-.1Zm7.22-8.05l-.05-.03c-.07.08-.14.17-.22.25-.84.83-1.68,1.67-2.53,2.5-.05.05-.12.09-.02.18.84.82,1.66,1.64,2.5,2.46.1.1.2.2.32.31v-5.67Zm0,13.74v-5.69c-.11.05-.16.14-.23.21-.85.84-1.7,1.68-2.55,2.52-.06.06-.13.1-.03.2.61.59,1.2,1.18,1.8,1.78.33.32.66.65,1.01.99Zm-.8-7.4l.02-.04s-.05-.03-.07-.05c-.88-.87-1.77-1.74-2.65-2.62-.1-.1-.15-.08-.24,0-.87.87-1.75,1.73-2.62,2.6-.03.03-.08.05-.06.11h5.61Zm-5.63,1.03s.02.05.03.06c.89.88,1.78,1.75,2.67,2.63.11.1.16.09.25,0,.88-.87,1.75-1.73,2.63-2.6.02-.02.05-.03.02-.08h-5.61Zm5.61,8.12h-5.44c.83.86,1.69,1.76,2.56,2.66.11.11.15.02.21-.04.79-.79,1.59-1.57,2.38-2.36.08-.08.17-.16.28-.26Zm6.32-13.17s0-.03,0-.04c-.05-.03-.09-.06-.14-.09-1.4-.82-2.81-1.64-4.21-2.46-.16-.09-.15,0-.15.1,0,.77,0,1.54,0,2.32,0,.13.04.17.17.17,1.17,0,2.35,0,3.52,0,.27,0,.53,0,.8,0Zm-18.24-.04s.01.03.02.04c.14,0,.28,0,.42,0,1.29,0,2.58,0,3.87,0,.16,0,.2-.05.2-.2,0-.77,0-1.53,0-2.3,0-.04.02-.1-.02-.12-.05-.03-.09.02-.13.05-1.34.78-2.68,1.56-4.02,2.34-.11.06-.22.13-.32.19Zm18.23,8.11s-.02-.04-.04-.05c-1.44-.83-2.87-1.67-4.31-2.51-.12-.07-.14-.03-.14.09,0,.78,0,1.55,0,2.33,0,.12.03.17.16.17,1.39,0,2.78,0,4.17,0,.05,0,.11.02.16-.02Zm-18.23,0s.1.04.14.03c1.4,0,2.79,0,4.19,0,.13,0,.17-.04.17-.17,0-.77,0-1.54,0-2.32,0-.15-.04-.16-.16-.08-.96.56-1.92,1.12-2.88,1.68-.49.29-.98.57-1.47.86Z"/>
</svg>