<svg id="Layer_1" data-name="Layer 1" xmlns="http://www.w3.org/2000/svg" viewBox="0 0 31 36" width="48" height="48">
  <defs>
    <style>
      .cls-1 {
        fill: #fff;
      }
    </style>
  </defs>
  <path class="cls-1" d="m9.91,15.8c1.27.44,2.31,1.17,3,2.31.74,1.2.79,2.47.26,3.77-.3.74-.68,1.45-1.11,2.13-.49.78-.97,1.56-1.3,2.43-.5,1.35-.29,2.59.58,3.72.32.41.67.8,1.02,1.19.03.03.09.07.07.12-.02.04-.08.03-.12.03-.87.06-1.74.12-2.61.09-1.8-.07-3.52-.46-5.03-1.48-1.63-1.09-2.67-2.61-3.1-4.52-.54-2.39-.22-4.68.94-6.84.63-1.17,1.52-2.1,2.73-2.69,1.02-.49,2.08-.69,3.21-.58.09,0,.14-.02.19-.09.63-.92,1.33-1.78,2.09-2.6.1-.11.15-.1.25,0,.23.23.46.46.7.68.09.08.07.12,0,.2-.6.62-1.15,1.29-1.66,1.98-.03.04-.05.08-.08.13Zm-3.47,7.46s0,0,0,0c-.18,0-.35,0-.53,0-.09,0-.12-.03-.12-.12.02-.56.06-1.11.16-1.66.29-1.64.91-3.16,1.73-4.6.02-.04.08-.07.05-.11-.03-.04-.08-.03-.13-.02-.48.03-.95.12-1.41.3-1.19.45-2.03,1.28-2.61,2.39-.95,1.83-1.22,3.76-.8,5.77.37,1.73,1.32,3.08,2.84,4,1.22.74,2.58,1.02,3.98,1.1.28.02.28,0,.15-.23-.01-.03-.03-.05-.04-.08-.65-1.27-.66-2.57-.19-3.9.33-.94.83-1.8,1.36-2.64.46-.72.87-1.45,1.16-2.25.33-.93.22-1.81-.35-2.6-.61-.84-1.43-1.4-2.43-1.66-.08-.02-.13,0-.17.07-1.15,1.89-1.97,3.9-2.02,6.15,0,.08-.03.12-.12.11-.18,0-.35,0-.53,0Z"/>
  <path class="cls-1" d="m26.97,17.41c-.07,2.42-.68,4.68-1.98,6.73-1.57,2.49-3.8,4.06-6.7,4.66-1.31.27-2.63.27-3.95.1-.77-.1-1.52-.29-2.28-.48-.07-.02-.18,0-.2-.07-.02-.07.08-.1.13-.15.76-.79,1.52-1.58,2.13-2.5.76-1.15,1.23-2.4,1.37-3.77.12-1.11.02-2.21-.17-3.31-.14-.79-.38-1.55-.57-2.33-.28-1.15-.29-2.29.14-3.41.47-1.24,1.38-2.08,2.56-2.64,1.13-.54,2.32-.62,3.54-.36,2.3.48,4.03,1.73,5.13,3.82.45.85.68,1.77.77,2.73.03.33.05.66.06.99Zm-10.89,10.34c.66-.01,1.32-.06,1.97-.19,2.27-.46,4.09-1.63,5.46-3.5.99-1.35,1.58-2.88,1.92-4.51.25-1.18.34-2.37.12-3.57-.47-2.46-1.94-4.03-4.32-4.75-1.01-.31-2.04-.33-3.03.09-.98.41-1.75,1.05-2.12,2.09-.31.88-.28,1.77-.04,2.65.26,1.01.54,2.01.69,3.04.15,1.09.19,2.18.03,3.27-.21,1.53-.79,2.91-1.65,4.18-.23.33-.47.65-.72.96-.03.04-.1.1.02.12.56.07,1.12.11,1.68.12Z"/>
  <path class="cls-1" d="m27.61,10.27c.28-.04.53-.06.78.01.68.19,1.13.62,1.27,1.32.14.68-.08,1.26-.62,1.69-.44.36-.96.52-1.53.47-.76-.07-1.29-.64-1.32-1.41-.02-.38.06-.75.23-1.09.01-.03.04-.05.03-.08-.02-.04-.06-.02-.09,0-.21.05-.42.1-.64.07-.58-.07-.98-.38-1.15-.94-.24-.77-.14-1.51.37-2.16.53-.68,1.55-.83,2.26-.35.73.48.97,1.47.56,2.24-.04.07-.08.13-.14.23Zm-1.88-.68c0,.07,0,.18.04.29.02.07.06.1.13.09.3-.07.55-.22.7-.5.12-.22.05-.49-.14-.6-.2-.11-.47-.04-.6.18-.09.15-.14.32-.14.54Zm1.75,2.58c-.01.27.08.35.31.32.17-.03.34-.09.47-.21.13-.11.2-.26.15-.43-.05-.17-.16-.29-.34-.32-.18-.03-.33.03-.43.18-.1.15-.16.31-.16.46Z"/>
  <path class="cls-1" d="m16.05,8.9c0,.65-.19,1.22-.63,1.7-.52.57-1.17.76-1.91.58-1.15-.27-1.95-.96-2.29-2.1-.35-1.18.27-2.46,1.39-2.87.97-.35,1.84-.1,2.58.59.6.56.85,1.28.86,2.09Zm-1.28,0c0-.4-.11-.75-.36-1.06-.32-.39-.85-.58-1.27-.46-.59.18-.91.93-.63,1.53.24.51.64.85,1.19,1.01.45.13.79-.05.98-.49.07-.17.09-.36.1-.53Z"/>
  <path class="cls-1" d="m16.01,6.69c.02-1.27.88-2.21,1.97-2.29,1.17-.09,2.17.67,2.34,1.8.14.92-.15,1.71-.81,2.34-.69.66-1.66.7-2.43.11-.69-.53-1.04-1.24-1.06-1.96Zm3.06-.13c-.01-.47-.33-.82-.8-.88-.41-.05-.83.24-.94.65-.12.41.14,1.03.52,1.29.32.22.63.19.88-.11.23-.27.35-.59.35-.95Z"/>
  <path class="cls-1" d="m24.86,6.81c.03,1.1-.95,2.3-2.07,2.42-.5.05-.94-.11-1.3-.45-.88-.85-.99-2.65.11-3.55.59-.48,1.25-.63,1.97-.36.72.27,1.12.83,1.26,1.58.02.12.03.25.03.36Zm-1.28,0c0-.36-.19-.65-.49-.76-.28-.09-.58.01-.79.29-.3.38-.27,1.13.06,1.48.11.11.23.16.38.11.44-.14.84-.66.84-1.12Z"/>
</svg>