<svg id="Layer_1" data-name="Layer 1" xmlns="http://www.w3.org/2000/svg" viewBox="0 0 31 36" width="48" height="48">
  <defs>
    <style>
      .cls-1 {
        fill: #fff;
      }
    </style>
  </defs>
  <path class="cls-1" d="m14.7,3.83c3.35.03,6.35,1.07,8.96,3.19,2.27,1.85,3.82,4.19,4.65,7,.48,1.6.65,3.24.54,4.91-.08,1.14-.29,2.25-.63,3.34-.03.1,0,.14.07.19,1.28.83,2,2.01,2.15,3.53.21,2.17-1.26,4.27-3.38,4.82-1.59.41-3.01.07-4.26-1-.11-.09-.17-.06-.27,0-1.39.93-2.91,1.59-4.54,1.98-1.52.36-3.05.47-4.6.32-2.16-.21-4.17-.88-6.03-2.01-1.58-.96-2.93-2.18-4.03-3.67-1.25-1.7-2.1-3.58-2.51-5.65-.21-1.06-.32-2.14-.27-3.22.17-3.86,1.63-7.17,4.43-9.84,1.95-1.87,4.28-3.06,6.93-3.6.92-.19,1.85-.29,2.79-.28Zm-.41,24.73c1.42-.02,2.42-.15,3.39-.44,1.25-.37,2.39-.95,3.43-1.74.09-.07.13-.13.13-.24,0-.19.02-.37.06-.55.34-1.72,1.32-2.9,2.94-3.54.19-.08.3-.18.36-.37.63-1.73.8-3.51.53-5.33-.27-1.73-.93-3.3-1.98-4.7-2.28-3.05-6.06-4.66-9.89-4.13-1.33.18-2.58.61-3.75,1.26-3.52,1.97-5.62,5.84-5.36,9.84.11,1.66.54,3.22,1.39,4.64,2.07,3.44,5.16,5.15,8.74,5.3Zm.69,2.74c.34,0,.94-.04,1.54-.12.98-.14,1.93-.37,2.85-.72.91-.34,1.77-.78,2.58-1.3.13-.08.13-.13.05-.25-.3-.43-.5-.91-.64-1.41-.06-.21-.05-.21-.23-.09-2.46,1.64-5.16,2.28-8.09,1.87-1.39-.19-2.7-.65-3.93-1.34-4.22-2.37-6.49-7.13-5.66-11.89.35-2.01,1.17-3.82,2.49-5.38,2.01-2.38,4.58-3.71,7.67-4.05,1.34-.14,2.67-.03,3.98.32,2.65.71,4.79,2.18,6.39,4.42,1.12,1.56,1.79,3.31,2.03,5.22.13,1.04.12,2.08-.04,3.12-.09.62-.24,1.23-.44,1.83-.07.23-.08.23.16.22.52-.02,1.03.05,1.52.22.14.05.18.02.22-.12.23-.82.41-1.66.5-2.51.14-1.32.08-2.62-.18-3.92-.28-1.44-.79-2.8-1.52-4.07-1.3-2.25-3.09-3.99-5.4-5.18-2.42-1.25-4.99-1.72-7.7-1.41-1.33.15-2.61.5-3.84,1.05-2.61,1.17-4.66,2.98-6.1,5.45-1.66,2.83-2.18,5.89-1.61,9.11.39,2.21,1.3,4.19,2.71,5.94,1.45,1.79,3.22,3.14,5.35,4.01,1.61.65,3.3.99,5.31.97Zm10.87-8.7c-2.22.01-3.73,1.81-3.76,3.68-.04,2.07,1.63,3.84,3.76,3.83,2.09-.01,3.76-1.69,3.75-3.77-.01-2.06-1.71-3.75-3.75-3.74Z"/>
  <path class="cls-1" d="m15.13,15.18c0,.76,0,1.51,0,2.27,0,.11.03.16.15.18,1.55.28,2.7,1.67,2.67,3.26-.02,1.55-1.08,2.84-2.59,3.17-.23.05-.22.05-.22.29,0,.11,0,.23,0,.34-.01.24-.2.42-.42.42-.24,0-.41-.17-.42-.42,0-.14,0-.29,0-.43,0-.1-.02-.14-.13-.16-1.34-.23-2.39-1.25-2.66-2.57-.04-.2-.06-.4-.07-.6-.02-.27.18-.49.42-.49.24,0,.42.2.43.47.04,1.14.75,2.02,1.84,2.32.13.04.17.02.16-.13-.03-1.49-.02-2.98,0-4.46,0-.13,0-.22-.17-.25-1.3-.23-2.35-1.27-2.61-2.57-.35-1.75.75-3.45,2.51-3.85.29-.07.29-.07.29-.37,0-.1,0-.21,0-.31.02-.21.21-.37.42-.37.21,0,.4.17.41.38,0,.15.01.3,0,.45,0,.12.02.17.15.19,1.26.26,2.12,1,2.55,2.21.11.3.15.62.17.94.02.28-.17.5-.42.51-.25,0-.43-.19-.43-.48-.03-1.11-.77-2.03-1.83-2.3-.17-.04-.17-.04-.17.13,0,.75,0,1.5,0,2.25,0,0,0,0,0,0Zm0,5.66c0,.75,0,1.49,0,2.24,0,.14.03.16.16.13,1.24-.32,2-1.48,1.81-2.74-.14-.95-.88-1.75-1.81-1.98-.12-.03-.17-.02-.17.13,0,.74,0,1.48,0,2.22Zm-.86-5.7c0-.09,0-.17,0-.26,0-.66,0-1.32.02-1.97,0-.12-.03-.16-.15-.12-.14.05-.29.09-.42.15-.94.43-1.52,1.4-1.43,2.4.1,1.06.8,1.89,1.83,2.16.17.04.18.04.17-.13-.03-.74,0-1.48-.02-2.22Z"/>
  <path class="cls-1" d="m27.73,24.9c0,.14-.07.25-.16.34-.34.34-.67.68-1.02,1.01-.08.08-.09.12,0,.21.35.33.69.68,1.03,1.03.15.15.18.35.09.51-.08.16-.26.24-.44.22-.12-.02-.21-.08-.29-.17-.32-.32-.64-.64-.96-.96-.1-.1-.15-.12-.26,0-.32.34-.65.66-.98.99-.14.15-.31.2-.51.12-.29-.12-.35-.46-.12-.7.19-.2.38-.39.58-.58.13-.13.27-.27.4-.4q.15-.15,0-.3c-.3-.3-.6-.6-.9-.89-.05-.05-.09-.1-.13-.15-.12-.17-.11-.39.04-.54.15-.16.36-.19.53-.07.09.06.17.15.25.23.29.29.58.58.87.88.07.07.12.08.19,0,.34-.35.69-.7,1.04-1.04.24-.23.55-.19.7.09.03.06.05.12.05.19Z"/>
</svg>