<svg id="Layer_1" data-name="Layer 1" xmlns="http://www.w3.org/2000/svg" viewBox="0 0 31 36" width="48" height="48">
  <defs>
    <style>
      .cls-1 {
        fill: #fff;
      }
    </style>
  </defs>
  <path class="cls-1" d="m3.59,18.01c0-5.26,0-10.51,0-15.77,0-.74.26-.83.84-.84,3.21-.03,6.43,0,9.64-.01,3.98,0,7.96,0,11.93,0,.28,0,.57,0,.85.02.33,0,.53.19.57.52,0,.08,0,.15,0,.23,0,10.43,0,20.87,0,31.3,0,.19,0,.38,0,.57,0,.32-.21.55-.53.58-.06,0-.12,0-.18,0-7.48,0-14.97,0-22.45,0-.49,0-.68-.18-.68-.68,0-5.31,0-10.62,0-15.93h0Zm1.07,0h0c0,5.1,0,10.19,0,15.29,0,.23,0,.23.23.23,7.09,0,14.17,0,21.26,0,.15,0,.19-.04.19-.19,0-10.19,0-20.38,0-30.57,0-.28,0-.28-.28-.28-7.05,0-14.1,0-21.15,0-.25,0-.25,0-.25.26,0,5.09,0,10.18,0,15.27Z"/>
  <path class="cls-1" d="m21.48,31.02c-.13,0-.26-.02-.39-.09-.27-.13-.52-.13-.8,0-.51.24-1.09.04-1.36-.46-.14-.25-.34-.41-.63-.46-.58-.1-.94-.62-.87-1.21.03-.26-.03-.5-.22-.7-.43-.47-.42-1.05.02-1.51.18-.19.23-.42.2-.67-.07-.59.24-1.06.82-1.18.31-.07.54-.21.69-.5.22-.42.8-.71,1.33-.44.27.14.54.13.82,0,.54-.24,1.11-.04,1.39.49.13.25.35.38.62.43.41.09.69.32.82.72.04.14.07.28.04.42-.06.32.04.57.26.81.38.41.37,1.01-.03,1.41-.21.21-.29.46-.25.76.08.56-.26,1.03-.85,1.17-.29.07-.51.22-.66.49-.18.32-.54.52-.93.52Zm-1.44-5.99c-.15.03-.25.09-.32.22-.15.31-.4.48-.74.56-.25.06-.33.19-.3.44.04.31-.05.59-.25.82-.22.26-.23.33,0,.59.19.22.29.48.26.77-.03.32.04.43.35.5.29.06.51.23.66.48.16.27.28.31.57.19.27-.11.54-.12.81,0,.32.13.4.1.6-.2.17-.26.39-.44.72-.47.21-.02.33-.2.3-.42-.05-.32.04-.6.24-.84.22-.26.22-.35,0-.6-.2-.23-.29-.49-.26-.79.03-.29-.04-.4-.34-.48-.31-.07-.54-.24-.69-.51-.14-.25-.26-.29-.53-.18-.3.13-.6.12-.89,0-.06-.03-.13-.05-.19-.07Z"/>
  <path class="cls-1" d="m15.71,13.72c-2.34,0-4.68,0-7.02,0-.2,0-.39-.03-.52-.21-.25-.33-.07-.8.34-.86.28-.04.56-.03.83-.03,4.42,0,8.84,0,13.27,0,.12,0,.24,0,.35.02.26.04.44.26.44.52,0,.26-.18.48-.44.52-.08.01-.17.01-.25.01-2.34,0-4.67,0-7.01,0h0Z"/>
  <path class="cls-1" d="m15.71,10.3c-2.34,0-4.68,0-7.02,0-.23,0-.43-.05-.56-.27-.17-.29-.03-.68.3-.78.1-.03.2-.04.3-.04,4.68,0,9.35,0,14.03,0,.05,0,.1,0,.14,0,.31.04.51.27.51.54,0,.28-.24.51-.54.53-.06,0-.13,0-.2,0-2.32,0-4.64,0-6.95,0h0Z"/>
  <path class="cls-1" d="m15.69,6.88c-2.34,0-4.67,0-7.01,0-.2,0-.39-.04-.52-.21-.23-.3-.09-.73.27-.83.09-.03.19-.04.28-.04,4.68,0,9.36,0,14.03,0,.24,0,.46.05.59.29.17.32-.02.72-.39.77-.15.02-.3.02-.44.02-2.27,0-4.54,0-6.81,0h0Z"/>
  <path class="cls-1" d="m12.9,16.08c1.4,0,2.79,0,4.19,0,.06,0,.12,0,.18,0,.3.03.51.23.52.51,0,.28-.2.51-.5.55-.12.01-.25.01-.37.01-2.71,0-5.42,0-8.12,0-.08,0-.15,0-.23,0-.3-.02-.51-.24-.51-.52,0-.29.22-.53.52-.54.87-.01,1.74-.01,2.61-.02.57,0,1.15,0,1.72,0,0,0,0,0,0,.01Z"/>
  <path class="cls-1" d="m10.76,25.62c.71,0,1.42,0,2.13,0,.37,0,.6.22.59.54,0,.24-.17.44-.42.5-.1.02-.21.04-.32.04-1.34,0-2.69,0-4.03,0-.35,0-.55-.12-.64-.38-.1-.29.07-.62.38-.69.11-.03.22-.02.34-.02.66,0,1.32,0,1.97,0h0Z"/>
  <path class="cls-1" d="m10.78,28.61c.7,0,1.41,0,2.11,0,.35,0,.58.2.59.51.01.27-.16.48-.44.54-.12.03-.23.04-.35.04-1.29,0-2.58,0-3.87,0-.12,0-.25,0-.37-.03-.23-.05-.4-.26-.4-.5,0-.24.16-.47.39-.53.09-.02.19-.03.28-.03.69,0,1.37,0,2.06,0Z"/>
</svg>