<svg id="Layer_1" data-name="Layer 1" xmlns="http://www.w3.org/2000/svg" viewBox="0 0 31 36" width="48" height="48">
  <defs>
    <style>
      .cls-1 {
        fill: #fff;
      }
    </style>
  </defs>
  <path class="cls-1" d="m11.25,13.18c-1.62,1.08-2.67,2.48-3.22,4.25-1,3.21.18,6.68,2.9,8.64,2.73,1.97,6.36,1.98,9.11.03.13-.09.24-.19.37-.27.24-.14.47-.13.65.09.2.25.15.5-.08.7-.18.16-.38.3-.58.43-3.88,2.6-9.12,1.71-11.94-2.03-2.82-3.73-2.22-9.01,1.36-12.03.18-.15.37-.3.59-.49-.31-.24-.66-.26-.98-.35-.39-.11-.64-.33-.57-.75.12-.74-.2-1.25-.75-1.69-.46-.37-.78-1.13-1.29-1.12-.5,0-.87.72-1.28,1.14-.43.43-1.19.81-1.16,1.33.02.45.72.87,1.14,1.29q1.08,1.09.39,2.42c-.33.64-.59,1.32-.8,2.01-.26.9-.5,1.08-1.45,1.08-.61,0-1.23.01-1.84,0-.31,0-.42.11-.42.42.01.94.02,1.89,0,2.83,0,.34.1.47.45.46.64-.02,1.27-.01,1.91,0,.81.01,1.12.23,1.33.99.25.89.59,1.74,1.06,2.54.36.6.27,1.12-.23,1.59-.46.44-.89.91-1.35,1.34-.25.24-.33.4-.03.68.69.65,1.35,1.32,2,2,.25.27.41.21.63-.03.47-.49.95-.98,1.44-1.44.57-.55,1.48-.48,1.98.13.16.19.19.4.04.6-.17.22-.42.31-.63.14-.52-.43-.8-.1-1.13.26-.4.43-.82.85-1.26,1.25-.49.45-1.05.46-1.53,0-.84-.8-1.66-1.63-2.47-2.46-.49-.51-.48-1.05,0-1.58.48-.51.98-1.01,1.49-1.49.23-.22.27-.39.11-.67-.46-.78-.81-1.61-1.03-2.48-.08-.32-.26-.4-.56-.39-.66.02-1.32.01-1.97,0-.82-.01-1.23-.4-1.24-1.2-.02-1.1-.02-2.19,0-3.29.01-.78.4-1.17,1.18-1.18.68-.02,1.36-.02,2.04,0,.32,0,.48-.1.56-.41.23-.87.57-1.71,1.03-2.48.17-.29.12-.46-.11-.67-.49-.47-.97-.95-1.44-1.44-.55-.58-.56-1.1-.01-1.67.78-.8,1.57-1.59,2.37-2.37.54-.52,1.08-.52,1.62,0,.65.62,1.27,1.28,1.92,1.9.27.26.33.57.28.9-.07.48.14.66.58.75.45.09.88.26,1.33.37.41.1.6.33.58.75,0,.15-.01.31,0,.46.1,1.04-.05,1.91-1.03,2.61-.85.6-1.26,1.61-1.53,2.62-.1.36-.14.82-.67.69-.58-.14-.38-.61-.28-.98.35-1.3.99-2.45,2.03-3.31.5-.41.51-.83.4-1.46Z"/>
  <path class="cls-1" d="m15.53,4.63c.5,0,1.01,0,1.51,0,.93.02,1.29.39,1.31,1.34,0,.59.02,1.18,0,1.78-.01.38.08.59.49.7.83.21,1.62.54,2.36.99.32.19.5.11.73-.13.47-.49.95-.98,1.44-1.44.69-.65,1.92-.27,2.17.65.06.21,0,.39-.17.52-.24.18-.5.14-.65-.07-.45-.66-.78-.33-1.15.08-.37.41-.77.78-1.16,1.17-.42.43-.9.52-1.43.22-.88-.51-1.81-.89-2.79-1.15-.55-.15-.83-.54-.84-1.12,0-.68-.02-1.36,0-2.04.01-.35-.07-.52-.47-.51-.92.03-1.84.02-2.76,0-.31,0-.49.05-.48.42.02.92.02,1.84,0,2.76,0,.27.11.39.35.47.42.13.83.29,1.25.41.52.15.95.32.89,1-.03.37.32.29.53.32,3.74.52,6.73,3.29,7.47,6.99.46,2.32.04,4.49-1.22,6.49-.21.33-.44.77-.91.45-.44-.3-.13-.65.07-.97,2.99-4.76.27-10.97-5.22-11.91-.23-.04-.61-.36-.73.18-.1.47.11.61.57.7,2.76.55,4.63,2.17,5.42,4.86.77,2.64.13,5.02-1.86,6.93-1.93,1.84-4.26,2.4-6.82,1.6-2.55-.8-4.1-2.59-4.72-5.18-.08-.34-.12-.7.31-.81.48-.12.58.23.67.6.74,3.13,3.44,5.05,6.58,4.68,2.9-.34,5.15-2.91,5.15-5.89,0-3.05-2.26-5.53-5.37-5.89-.93-.11-.93-.11-.94-1.03,0-.68.2-1.48-.1-2-.3-.53-1.19-.52-1.83-.74-.39-.14-.55-.37-.55-.78.01-1.14,0-2.28,0-3.42.01-.82.4-1.19,1.23-1.22.55-.02,1.1,0,1.64,0Z"/>
  <path class="cls-1" d="m30.61,19.74c0,.5,0,1.01,0,1.51-.01.94-.38,1.32-1.31,1.33-.61,0-1.23.02-1.84,0-.36-.01-.55.07-.65.46-.22.85-.56,1.66-1.01,2.42-.17.28-.13.45.1.67.5.46.97.95,1.44,1.44.55.58.56,1.11.01,1.67-.78.8-1.57,1.6-2.37,2.37-.53.52-1.09.51-1.63,0-.49-.47-.98-.95-1.44-1.44-.23-.24-.41-.31-.72-.12-.73.44-1.53.78-2.36.98-.4.1-.51.31-.49.7.03.63.02,1.27,0,1.91-.02.81-.42,1.2-1.23,1.2-1.07,0-2.15,0-3.22,0-.81,0-1.21-.4-1.23-1.21-.02-.66-.01-1.32,0-1.97,0-.28-.02-.51-.36-.59-.32-.08-.49-.31-.36-.65.12-.34.4-.35.71-.28.69.16,1,.53,1.01,1.25.01.66.02,1.32,0,1.97-.01.38.13.5.49.49.92-.02,1.84-.02,2.76,0,.34,0,.47-.11.46-.46-.02-.66,0-1.32,0-1.97-.01-.66.28-1.08.93-1.25.94-.25,1.82-.62,2.66-1.11.55-.32,1.04-.24,1.49.21.46.47.95.91,1.39,1.4.28.32.46.27.73-.01.6-.64,1.21-1.27,1.86-1.86.36-.33.3-.54-.03-.83-.46-.41-.87-.87-1.31-1.3-.47-.46-.57-.96-.23-1.54.49-.84.86-1.72,1.1-2.66.16-.62.58-.9,1.21-.9.68,0,1.36-.01,2.04,0,.31,0,.43-.1.42-.41-.01-.94-.02-1.89,0-2.83,0-.4-.17-.48-.51-.47-.66.02-1.32,0-1.97,0-.65.01-1.03-.31-1.19-.91-.25-.94-.62-1.82-1.1-2.66-.32-.55-.25-1.04.21-1.49.47-.46.92-.94,1.4-1.39.24-.23.36-.42.04-.68-.26-.22-.39-.51-.11-.79.32-.31.59-.11.85.14.7.66.71,1.21.03,1.91-.44.45-.89.91-1.35,1.35-.23.21-.27.38-.1.67.46.77.8,1.61,1.03,2.48.08.31.25.42.56.41.68-.02,1.36-.02,2.04,0,.78.02,1.16.4,1.18,1.19.02.55,0,1.1,0,1.64Z"/>
  <path class="cls-1" d="m8.07,1.15c.25.02.38.22.48.45.44,1.05.89,2.09,1.34,3.14.14.32.17.61-.18.79-.37.18-.58-.05-.71-.36-.46-1.06-.92-2.13-1.36-3.2-.19-.46.02-.83.44-.82Z"/>
  <path class="cls-1" d="m11.06,4.63c.24-.79.46-1.54.7-2.29.09-.28.3-.44.61-.34.29.1.41.33.32.63-.21.73-.43,1.47-.66,2.19-.09.27-.28.46-.6.38-.3-.08-.39-.31-.38-.57Z"/>
  <path class="cls-1" d="m8.29,6.33c-.05.4-.31.6-.67.44-.73-.33-1.44-.72-2.15-1.1-.24-.13-.31-.37-.2-.62.1-.22.32-.36.53-.26.78.37,1.55.78,2.32,1.18.12.06.15.21.17.36Z"/>
</svg>