<svg id="Layer_1" data-name="Layer 1" xmlns="http://www.w3.org/2000/svg" viewBox="0 0 31 36" width="48" height="48">
  <defs>
    <style>
      .cls-1 {
        fill: #fff;
      }
    </style>
  </defs>
  <path class="cls-1" d="m25.04,33.01c-1.96-.1-3.51-.92-4.53-2.64-.04-.07-.08-.15-.11-.22-.12-.26-.05-.48.17-.59.23-.11.46-.04.6.2.14.24.27.47.45.69.74.92,1.7,1.47,2.87,1.63.55.07,1.09.04,1.63-.09.2-.05.19-.07.05-.21-.79-.79-1.6-1.56-2.37-2.36-.81-.84-.89-2.05-.24-2.99.32-.46.79-.68,1.32-.77.79-.14,1.5.07,2.08.64.78.76,1.54,1.55,2.31,2.32.06.06.11.16.19.13.06-.02.06-.13.08-.21.46-1.92-.44-4.01-2.32-4.91-1.2-.58-2.43-.6-3.67-.09-.3.12-.45.1-.67-.12-.36-.36-.73-.72-1.09-1.09-.11-.11-.21-.15-.36-.14-.78.01-1.49-.49-1.75-1.22-.11-.33-.15-.67-.06-1.01.03-.1,0-.13-.1-.15-.97-.16-1.6-.77-1.78-1.7,0-.02,0-.04-.01-.06-.02-.08.04-.2-.03-.25-.07-.05-.17.01-.26.02-1.1.07-2.05-.34-2.91-.98-.03-.03-.06-.08-.11-.06-.05.02-.03.08-.03.12-.05.5-.18.98-.42,1.43-.05.1,0,.14.06.19.8.8,1.61,1.61,2.41,2.41,1.48,1.48,2.96,2.95,4.44,4.43.21.21.27.42.15.7-.26.59-.38,1.22-.36,1.87,0,.25-.11.43-.32.49-.18.06-.38-.02-.49-.18-.07-.1-.08-.21-.08-.32-.01-.66.09-1.31.32-1.93.03-.08.03-.13-.03-.19-.29-.28-.57-.57-.85-.85-.05-.05-.09-.06-.16-.02-.47.24-.96.43-1.5.49-.36.05-.7-.04-1.05-.09-.15-.02-.3-.05-.45-.06-.28-.04-.53.04-.76.21-.16.12-.31.26-.45.4-.92.92-1.84,1.83-2.76,2.75-.05.05-.08.08-.05.16.24.59.14,1.13-.3,1.6-.26.27-.53.53-.79.79-.47.47-.94.94-1.42,1.41-.64.62-1.48.63-2.12,0-2-1.99-3.99-3.98-5.98-5.96-.15-.15-.31-.3-.42-.49-.33-.59-.24-1.27.25-1.77.73-.74,1.47-1.48,2.22-2.21.45-.44.98-.54,1.57-.32.08.03.13.04.2-.03.81-.83,1.67-1.6,2.41-2.49.49-.59.92-1.22,1.12-1.98.08-.3.11-.6.1-.9-.03-.5.03-.99.2-1.46.03-.07.02-.12-.04-.18-.45-.45-.9-.9-1.35-1.35-.06-.06-.12-.08-.21-.05-3.02,1.08-6.23-.69-6.94-3.83-.19-.84-.17-1.68.09-2.51.07-.21.17-.41.35-.55.23-.2.5-.24.78-.13.24.09.43.25.6.43.72.76,1.48,1.5,2.22,2.24.44.44.97.56,1.57.38.5-.15.73-.52.79-1.01.06-.49-.09-.92-.44-1.27-.76-.75-1.52-1.5-2.28-2.25-.12-.12-.23-.24-.32-.38-.27-.43-.17-.89.26-1.17.27-.17.58-.25.89-.29,1.87-.26,3.48.27,4.76,1.67,1.02,1.11,1.44,2.46,1.33,3.96-.03.46-.13.91-.3,1.34-.03.08-.02.14.04.2.37.37.74.74,1.11,1.11.09.09.14.1.24,0,.18-.19.35-.39.57-.52.51-.31,1.12-.24,1.58.18.09.08.14.09.23,0,.43-.44.85-.88,1.3-1.29,1.16-1.05,2.98-.48,3.35,1.03.04.16.05.33.05.5,0,.2,0,.2.2.2.49,0,.94.14,1.31.46.64.56.87,1.26.67,2.09-.03.11,0,.12.1.13.93.13,1.61.77,1.78,1.68.03.15.04.3.02.45-.01.13.02.17.15.17.78.03,1.43.51,1.67,1.24.22.66.12,1.29-.36,1.79-.74.79-1.52,1.54-2.3,2.29-.07.07-.07.1,0,.16.23.23.46.45.69.68.06.06.11.07.19.04,2.82-1.02,5.87.46,6.8,3.31.33,1,.36,2.01.05,3.02-.05.17-.14.33-.26.47-.23.26-.57.34-.89.21-.23-.09-.41-.25-.58-.42-.74-.77-1.5-1.52-2.26-2.27-.41-.41-.92-.53-1.47-.38-.51.14-.82.53-.86,1.06-.04.48.11.9.45,1.24.77.75,1.51,1.54,2.3,2.27.13.12.24.26.33.41.23.41.12.84-.28,1.1-.31.2-.66.26-1.01.32-.25.04-.51.05-.76.06Zm-6.55-8.8c-.04-.1-.12-.16-.19-.23-1.09-1.09-2.19-2.19-3.29-3.28-.49-.48-.97-.97-1.45-1.45-.09-.09-.15-.1-.22.01-.08.1-.17.19-.26.28-.18.16-.43.16-.6,0-.17-.15-.19-.41-.04-.6.04-.06.1-.11.15-.16.51-.56.85-1.2.93-1.95.06-.51-.05-.99-.41-1.39-.12-.13-.2-.27-.16-.45.04-.17.14-.28.3-.33.17-.05.33,0,.46.13.37.37.73.75,1.11,1.11.56.53,1.22.89,1.99,1,.57.08,1.12.04,1.49-.52.05-.08.07-.13,0-.2-.17-.18-.32-.38-.5-.56-1.17-1.18-2.35-2.35-3.52-3.52-.16-.16-.31-.32-.47-.47-.19-.17-.38-.17-.58-.02-.04.03-.08.07-.12.11-.84.84-1.68,1.67-2.52,2.51-.15.15-.29.31-.4.48-.32.5-.44,1.05-.41,1.64.03.65-.1,1.27-.37,1.87-.31.7-.76,1.31-1.26,1.88-.69.78-1.46,1.47-2.18,2.22-.08.08-.1.12,0,.21.51.5,1.02,1.01,1.53,1.52.11.11.22.21.32.33.14.17.13.41-.02.56-.16.17-.4.2-.58.06-.07-.05-.12-.11-.18-.17-.67-.66-1.33-1.33-2-1.99-.35-.35-.63-.35-.98,0-.7.69-1.39,1.39-2.09,2.09-.32.32-.32.61,0,.93,2.03,2.02,4.05,4.05,6.08,6.07.29.29.59.3.89.01.73-.72,1.46-1.45,2.18-2.18.27-.27.26-.58,0-.86-.04-.04-.08-.08-.12-.13-.78-.77-1.55-1.55-2.33-2.32-.22-.22-.23-.47-.04-.66.18-.18.44-.17.65.03.12.11.24.23.35.35.57.57,1.14,1.13,1.71,1.7.09.09.15.11.26,0,.27-.29.55-.56.83-.83.68-.67,1.35-1.35,2.04-2.01.31-.3.66-.55,1.1-.65.36-.08.71-.02,1.06.04.46.08.91.15,1.36-.02.17-.06.34-.12.51-.19ZM10.31,7.98c-.01-.95-.43-2-1.28-2.86-.76-.76-1.7-1.17-2.77-1.26-.48-.04-.96.01-1.42.14-.12.03-.12.08-.04.16.03.03.07.07.1.1.74.74,1.49,1.48,2.23,2.21.6.59.84,1.3.71,2.12-.21,1.27-1.22,1.82-2.29,1.76-.63-.03-1.16-.31-1.6-.77-.76-.77-1.52-1.53-2.28-2.29-.11-.11-.12-.11-.17.04-.18.61-.2,1.24-.08,1.86.53,2.87,3.5,4.3,6.01,3.26.36-.15.47-.13.74.15.4.41.81.81,1.22,1.21.2.2.2.19.39,0,.54-.55,1.09-1.1,1.64-1.64.1-.09.09-.14,0-.23-.44-.43-.87-.87-1.31-1.31-.25-.25-.28-.37-.14-.71.23-.54.35-1.11.35-1.96Zm8.29,9.77c.01.09.01.18.03.26.21.88,1.28,1.19,1.93.56.55-.53,1.09-1.08,1.63-1.62.11-.11.2-.23.26-.37.23-.5.07-1.08-.38-1.41-.43-.31-1.05-.29-1.45.09-.59.56-1.16,1.14-1.73,1.72-.21.21-.31.47-.31.77Zm5.89.45c-.02-.38-.2-.69-.56-.85-.37-.16-.74-.12-1.03.16-.73.71-1.46,1.43-2.17,2.17-.37.37-.34.95.03,1.32.35.35.95.37,1.31.02.73-.71,1.45-1.44,2.17-2.17.17-.17.24-.4.25-.65Zm-4.9-5.92c-.36,0-.64.15-.89.39-.36.37-.73.73-1.09,1.09q-.2.2,0,.4c.44.45.9.9,1.31,1.38.04.04.07.11.14.03.47-.47.95-.93,1.4-1.42.32-.35.36-.79.15-1.22-.2-.43-.56-.64-1.03-.66Zm-1.11-1.1c0-.26-.08-.49-.23-.7-.43-.56-1.21-.62-1.73-.12-.44.42-.86.85-1.29,1.27-.06.06-.05.1,0,.16.49.49.99.98,1.48,1.47.06.06.09.07.16,0,.44-.44.88-.88,1.31-1.32.2-.21.29-.47.29-.76Z"/>
</svg>