
<svg id="Layer_1" data-name="Layer 1" xmlns="http://www.w3.org/2000/svg" viewBox="0 0 31 36" width="48" height="48">
  <defs>
    <style>
      .cls-1 {
        fill: #fff;
      }
    </style>
  </defs>
  <path class="cls-1" d="m15.47,32.18c-.39,0-.79.02-1.2-.04-.88-.13-1.64-.85-1.84-1.77-.11-.51-.19-1.02-.28-1.54-.01-.08-.04-.12-.12-.15-.55-.18-1.08-.4-1.6-.66-.1-.05-.17-.05-.26.02-.37.27-.75.54-1.13.8-.56.39-1.17.54-1.84.39-.38-.08-.73-.25-1.01-.51-.48-.44-.94-.9-1.38-1.38-.36-.39-.56-.87-.6-1.4-.03-.45.09-.87.31-1.26.27-.46.58-.88.89-1.3.09-.13.12-.23.04-.38-.26-.49-.45-1-.63-1.52-.03-.09-.08-.13-.17-.15-.54-.11-1.08-.17-1.62-.3-.93-.23-1.63-1.07-1.68-2.03-.04-.72-.06-1.44,0-2.16.06-.65.4-1.15.91-1.54.38-.29.83-.4,1.3-.48.37-.06.74-.13,1.12-.19.08-.01.12-.05.14-.13.18-.56.41-1.11.68-1.63.03-.07.02-.11-.02-.18-.26-.36-.51-.72-.76-1.08-.24-.35-.43-.73-.49-1.16-.09-.6.09-1.13.42-1.62.09-.13.19-.25.3-.36.36-.36.72-.72,1.08-1.08.88-.85,2.04-.95,3.04-.25.37.26.74.52,1.11.78.08.06.16.08.25.03.51-.26,1.04-.48,1.58-.65.09-.03.13-.08.15-.17.11-.57.16-1.14.33-1.7.26-.85,1.04-1.58,2.02-1.61.71-.02,1.42-.04,2.13.01.85.06,1.62.71,1.89,1.6.14.46.19.94.28,1.41.07.42.07.42.47.56.44.14.86.33,1.27.54.12.06.2.06.31-.02.36-.26.73-.52,1.1-.77.97-.67,2.08-.61,2.95.18.48.45.97.9,1.38,1.41.67.85.7,1.86.09,2.76-.27.39-.54.77-.81,1.16-.06.09-.07.16-.02.26.26.5.47,1.02.64,1.56.03.1.08.14.18.16.54.11,1.09.17,1.63.3.9.22,1.62,1.08,1.67,2.01.04.71.05,1.42,0,2.13-.06.76-.47,1.3-1.1,1.7-.23.14-.48.23-.74.29-.35.07-.73-.16-.83-.51-.1-.35.11-.75.45-.86.07-.02.13-.04.2-.06.4-.15.6-.42.61-.85,0-.54,0-1.08,0-1.62,0-.47-.29-.79-.78-.88-.59-.1-1.17-.21-1.76-.3-.42-.06-.68-.28-.79-.7-.16-.6-.39-1.17-.67-1.72-.07-.14-.14-.28-.22-.41-.19-.33-.15-.63.07-.93.33-.45.64-.92.98-1.36.4-.53.38-.97-.11-1.44-.34-.33-.67-.67-1-1-.23-.22-.49-.36-.83-.28-.15.04-.27.11-.39.2-.49.34-.98.68-1.46,1.03-.32.23-.63.27-.98.07-.68-.39-1.41-.68-2.17-.9-.36-.1-.56-.32-.63-.69-.1-.61-.21-1.22-.32-1.82-.09-.53-.41-.79-.94-.79-.47,0-.93,0-1.4,0-.68,0-.97.25-1.07.93-.09.58-.2,1.16-.3,1.74-.05.31-.23.51-.53.6-.58.18-1.16.37-1.71.64-.18.09-.36.18-.54.28-.34.2-.66.18-.98-.06-.48-.35-.96-.68-1.44-1.03-.23-.17-.48-.27-.78-.21-.16.03-.3.11-.41.22-.39.39-.79.78-1.17,1.18-.36.37-.38.75-.09,1.17.35.5.7,1.01,1.06,1.5.23.32.25.63.06.97-.39.69-.69,1.43-.91,2.19-.09.33-.31.53-.65.59-.62.11-1.24.22-1.87.33-.52.09-.78.41-.78.93,0,.5,0,1.01,0,1.51,0,.53.27.85.8.94.61.11,1.22.22,1.83.32.36.06.57.26.67.61.15.53.34,1.05.58,1.55.1.21.2.41.32.61.2.35.17.68-.07,1-.35.47-.68.96-1.02,1.44-.17.24-.29.48-.2.79.05.18.15.33.28.45.36.36.72.72,1.08,1.08.38.38.76.42,1.21.11.49-.33.96-.67,1.44-1.01.04-.03.08-.05.11-.08.28-.2.57-.21.87-.05.24.13.48.26.73.37.49.22.99.4,1.5.55.34.1.54.31.6.66.1.62.21,1.24.33,1.85.1.55.39.78.95.78.51,0,1.02,0,1.52,0,.47,0,.74-.19.87-.64.07-.25.2-.46.44-.57.25-.11.49-.09.7.08.22.17.34.4.29.69-.18.97-.93,1.7-1.9,1.84-.4.06-.8.04-1.22.04Z"/>
  <path class="cls-1" d="m15.04,12.44s.05.06.07.09c.61.63,1.24,1.23,1.82,1.88.3.33.52.71.61,1.15.18.8-.02,1.52-.55,2.14-.56.64-1.17,1.23-1.81,1.79-.57.5-1.26.68-2,.55-.51-.09-.96-.32-1.33-.69-.61-.6-1.2-1.21-1.8-1.82-.03-.03-.06-.09-.1-.08-.06.02-.03.09-.04.13-.05,1.15.22,2.23.84,3.2.71,1.1,1.7,1.85,2.95,2.26.59.19,1.19.27,1.8.24.72-.03,1.42.03,2.1.29.65.25,1.19.64,1.67,1.14,1.46,1.51,2.93,3.02,4.39,4.52.21.22.34.45.27.77-.11.5-.75.73-1.14.39-.19-.16-.36-.35-.53-.53-1.34-1.38-2.69-2.76-4.02-4.15-.49-.5-1.06-.84-1.75-.96-.24-.04-.48-.05-.72-.03-1.5.09-2.87-.29-4.15-1.09-.95-.6-1.67-1.41-2.24-2.35-.39-.64-.65-1.34-.79-2.08-.14-.71-.18-1.43-.08-2.15.15-1,1.34-1.49,2.16-.89.1.08.2.16.29.26.61.62,1.22,1.24,1.82,1.86.29.3.64.43,1.05.34.21-.04.37-.16.52-.3.49-.47.97-.95,1.45-1.43.49-.49.48-1.08,0-1.59-.62-.64-1.24-1.26-1.86-1.9-.48-.5-.59-1.14-.27-1.7.23-.42.6-.66,1.07-.7,1.56-.13,3.01.2,4.31,1.06,1.58,1.04,2.6,2.49,3.02,4.34.13.57.17,1.15.14,1.73-.02.46-.05.91.08,1.36.14.49.38.92.74,1.28,1.5,1.55,3,3.1,4.51,4.64.21.21.33.44.28.74-.05.26-.2.45-.45.53-.27.09-.53.06-.73-.15-.35-.34-.69-.7-1.03-1.05-1.18-1.21-2.36-2.42-3.53-3.64-.68-.71-1.12-1.54-1.28-2.51-.06-.39-.04-.79-.02-1.19.06-1.5-.37-2.81-1.38-3.94-.92-1.03-2.08-1.6-3.44-1.77-.27-.03-.54-.04-.82-.03-.04,0-.07,0-.1.03Z"/>
</svg>